{"glyphs":{"0":{"ha":0,"x_min":0,"x_max":0,"o":"b 527 -212 98 0 527 -133 b 852 50 527 -81 772 50 b 474 -274 718 50 474 -195 b NaN NaN 474 -404 341 NaN "},"1":{"ha":-136,"x_min":0,"x_max":0,"o":"m 460 982 l 313 982 l 69 822 l 69 680 l 304 833 l 309 833 l 309 0 l 460 0 z "},"2":{"ha":0,"x_min":0,"x_max":0,"o":""},"3":{"ha":108,"x_min":0,"x_max":0,"o":"m 435 -14 b 789 270 639 -14 789 106 b 578 503 789 395 712 484 l 426 503 b 780 233 431 343 576 233 z "},"4":{"ha":0,"x_min":0,"x_max":0,"o":"l 123 0 l 123 65 l 787 65 l 787 -119 l 353 -789 m 511 -784 l 511 -776 l 820 -297 l 831 -297 l 831 -784 z "},"5":{"ha":83,"x_min":0,"x_max":0,"o":"m 420 -14 l 548 -14 l 548 -570 l 484 -1116 l 625 -1116 b 798 -1029 659 -1055 719 -1029 b 1009 -1237 921 -1031 1009 -1118 b 804 -1440 1009 -1354 924 -1440 b 617 -1295 705 -1440 625 -1379 l 472 -1295 b 804 -1565 479 -1451 618 -1565 z "},"6":{"ha":106,"x_min":0,"x_max":0,"o":"m 442 -14 b 793 321 654 -15 793 132 b 477 644 793 510 652 644 b 225 511 370 644 278 594 l 214 511 b 454 865 214 732 302 865 b 636 727 553 865 617 807 l 784 727 b 454 996 761 883 635 996 b 71 458 218 996 71 800 b 442 -14 71 95 260 -12 z m 441 111 b 232 317 320 111 233 209 b 445 522 233 427 324 522 b 648 319 563 522 648 431 b 441 111 648 203 560 111 z "},"7":{"ha":18,"x_min":0,"x_max":0,"o":"m 121 0 l 277 0 l 713 849 l 713 982 l 53 982 l 53 854 l 559 854 l 559 846 z "},"8":{"ha":100,"x_min":0,"x_max":0,"o":"m 430 -14 b 791 262 640 -14 789 102 b 585 509 789 388 699 491 l 585 514 b 753 734 684 537 751 627 b 430 996 751 884 616 996 b 106 734 243 996 106 884 b 274 514 106 627 174 537 l 274 509 b 69 262 159 491 68 388 b 430 -14 68 102 217 -14 z m 430 110 b 221 273 300 110 218 176 b 430 448 218 374 308 448 b 639 273 551 448 639 374 b 430 110 639 176 557 110 z m 430 566 b 251 720 326 566 251 628 b 430 873 251 812 321 873 b 606 720 534 873 606 811 b 430 566 606 628 533 566 z "},"9":{"ha":106,"x_min":0,"x_max":0,"o":"m 425 996 b 72 663 212 997 72 850 b 389 340 72 475 213 340 b 640 473 495 340 587 391 l 652 473 b 411 117 651 250 563 117 b 228 258 312 117 248 175 l 80 258 b 411 -14 103 98 231 -14 b 795 526 647 -14 795 182 b 425 996 795 886 605 994 z m 425 871 b 632 667 545 871 632 773 b 422 463 632 559 540 463 b 217 666 302 463 217 552 b 425 871 217 779 305 871 z "}," ":{"ha":-420,"x_min":0,"x_max":0,"o":""}," ":{"ha":-420,"x_min":0,"x_max":0,"o":""},"A":{"ha":0,"x_min":0,"x_max":0,"o":""},"Á":{"ha":0,"x_min":0,"x_max":0,"o":""},"Ă":{"ha":0,"x_min":0,"x_max":0,"o":""},"Ắ":{"ha":0,"x_min":0,"x_max":0,"o":""},"Ặ":{"ha":0,"x_min":0,"x_max":0,"o":""},"Ằ":{"ha":0,"x_min":0,"x_max":0,"o":""},"Ẳ":{"ha":0,"x_min":0,"x_max":0,"o":""},"Ẵ":{"ha":170,"x_min":0,"x_max":0,"o":"m 646 1221 l 530 1221 b 434 1146 530 1180 503 1146 b 336 1221 363 1146 336 1180 l 222 1221 b 434 1073 222 1134 305 1073 b 646 1221 564 1073 646 1134 z m 628 1398 l 562 1417 b 511 1360 560 1385 537 1360 b 359 1407 454 1360 418 1407 b 248 1284 294 1407 248 1348 l 316 1268 b 366 1325 316 1301 339 1325 b 517 1279 423 1325 445 1279 b 628 1398 581 1279 628 1333 "},"Ǎ":{"ha":0,"x_min":0,"x_max":0,"o":""},"Â":{"ha":0,"x_min":0,"x_max":0,"o":""},"Ấ":{"ha":0,"x_min":0,"x_max":0,"o":""},"Ậ":{"ha":0,"x_min":0,"x_max":0,"o":""},"Ầ":{"ha":0,"x_min":0,"x_max":0,"o":""},"Ẩ":{"ha":0,"x_min":0,"x_max":0,"o":""},"Ẫ":{"ha":170,"x_min":0,"x_max":0,"o":"m -320 -970 l 167 236 l 311 655 l 317 655 l 463 236 z "},"Ȁ":{"ha":0,"x_min":0,"x_max":0,"o":""},"Ä":{"ha":0,"x_min":0,"x_max":0,"o":""},"Ǟ":{"ha":0,"x_min":0,"x_max":0,"o":""},"Ạ":{"ha":0,"x_min":0,"x_max":0,"o":""},"Ǡ":{"ha":0,"x_min":0,"x_max":0,"o":""},"À":{"ha":0,"x_min":0,"x_max":0,"o":""},"Ả":{"ha":0,"x_min":0,"x_max":0,"o":""},"Ȃ":{"ha":0,"x_min":0,"x_max":0,"o":""},"Ā":{"ha":0,"x_min":0,"x_max":0,"o":""},"Ą":{"ha":0,"x_min":0,"x_max":0,"o":"l 170 -256 b 93 -415 112 -304 89 -361 "},"Å":{"ha":0,"x_min":0,"x_max":0,"o":""},"Ǻ":{"ha":0,"x_min":0,"x_max":0,"o":""},"Ḁ":{"ha":0,"x_min":0,"x_max":0,"o":""},"Ã":{"ha":0,"x_min":0,"x_max":0,"o":""},"Æ":{"ha":580,"x_min":0,"x_max":0,"o":"m -118 -598 l 88 -140 l 159 -140 l 159 -598 z "},"Ǽ":{"ha":580,"x_min":0,"x_max":0,"o":"m -557 -918 l -229 -819 l -23 -361 l 47 -361 l 47 -819 z "},"Ǣ":{"ha":580,"x_min":0,"x_max":0,"o":"m -732 -742 l -118 -496 l 88 -38 l 159 -38 l 159 -496 z "},"B":{"ha":109,"x_min":0,"x_max":0,"o":""},"Ḃ":{"ha":0,"x_min":0,"x_max":0,"o":""},"Ḅ":{"ha":0,"x_min":0,"x_max":0,"o":""},"Ɓ":{"ha":341,"x_min":0,"x_max":0,"o":"m 278 854 l 278 907 l -576 907 l -576 494 l -439 494 l -439 537 b -350 658 -441 598 -427 658 "},"Ḇ":{"ha":0,"x_min":0,"x_max":0,"o":""},"Ƃ":{"ha":0,"x_min":0,"x_max":0,"o":""},"C":{"ha":218,"x_min":0,"x_max":0,"o":""},"Ć":{"ha":0,"x_min":0,"x_max":0,"o":""},"Č":{"ha":0,"x_min":0,"x_max":0,"o":""},"Ç":{"ha":0,"x_min":0,"x_max":0,"o":""},"Ḉ":{"ha":0,"x_min":0,"x_max":0,"o":""},"Ĉ":{"ha":0,"x_min":0,"x_max":0,"o":""},"Ċ":{"ha":0,"x_min":0,"x_max":0,"o":""},"Ƈ":{"ha":296,"x_min":0,"x_max":0,"o":"m 916 662 l 916 772 b 1032 879 916 853 971 879 b 1076 876 1046 879 1065 878 l 1076 996 b 1000 1001 1053 1001 1027 1001 b 798 891 913 1001 836 962 b 792 827 865 891 792 791 b 288 899 792 713 479 899 b 760 1194 544 899 760 1058 b NaN NaN 760 1388 791 NaN z "},"D":{"ha":0,"x_min":0,"x_max":0,"o":""},"Ǳ":{"ha":0,"x_min":0,"x_max":0,"o":""},"Ɖ":{"ha":0,"x_min":0,"x_max":0,"o":""},"Ď":{"ha":0,"x_min":0,"x_max":0,"o":""},"Ḑ":{"ha":0,"x_min":0,"x_max":0,"o":""},"Ḓ":{"ha":0,"x_min":0,"x_max":0,"o":""},"Đ":{"ha":0,"x_min":0,"x_max":0,"o":""},"Ḋ":{"ha":200,"x_min":0,"x_max":0,"o":"m -146 -966 l -146 -670 l 949 -670 l 949 52 l 1119 52 b 1443 -308 1333 52 1443 -77 b 1111 -670 1443 -540 1333 -670 z "},"Ḍ":{"ha":0,"x_min":0,"x_max":0,"o":""},"Ɗ":{"ha":437,"x_min":0,"x_max":0,"o":"m 52 766 l 52 690 l 189 690 l 189 734 b 278 852 187 795 201 852 l 338 852 l 338 0 l 656 0 b 1128 492 955 0 1128 186 b 666 982 1128 798 955 982 l 277 982 b 52 766 134 982 52 891 "},"Ḏ":{"ha":0,"x_min":0,"x_max":0,"o":""},"Ƌ":{"ha":94,"x_min":0,"x_max":0,"o":"m 416 0 l 783 0 l 783 967 l 171 967 l 171 836 l 621 836 l 621 590 l 416 590 b 71 298 198 590 71 473 b 416 0 71 122 198 0 z m 621 129 l 416 129 b 233 300 288 129 233 209 b 416 460 233 388 288 460 l 621 460 z "},"ǲ":{"ha":928,"x_min":0,"x_max":0,"o":"m 930 0 "},"ǅ":{"ha":928,"x_min":0,"x_max":0,"o":"m 930 0 "},"Ð":{"ha":0,"x_min":0,"x_max":0,"o":""},"E":{"ha":40,"x_min":0,"x_max":0,"o":""},"É":{"ha":0,"x_min":0,"x_max":0,"o":""},"Ĕ":{"ha":0,"x_min":0,"x_max":0,"o":""},"Ě":{"ha":0,"x_min":0,"x_max":0,"o":""},"Ḝ":{"ha":0,"x_min":0,"x_max":0,"o":""},"Ê":{"ha":0,"x_min":0,"x_max":0,"o":""},"Ế":{"ha":0,"x_min":0,"x_max":0,"o":""},"Ḙ":{"ha":0,"x_min":0,"x_max":0,"o":""},"Ệ":{"ha":0,"x_min":0,"x_max":0,"o":""},"Ề":{"ha":0,"x_min":0,"x_max":0,"o":""},"Ể":{"ha":0,"x_min":0,"x_max":0,"o":""},"Ễ":{"ha":0,"x_min":0,"x_max":0,"o":""},"Ȅ":{"ha":0,"x_min":0,"x_max":0,"o":""},"Ë":{"ha":0,"x_min":0,"x_max":0,"o":""},"Ė":{"ha":0,"x_min":0,"x_max":0,"o":""},"Ẹ":{"ha":0,"x_min":0,"x_max":0,"o":""},"È":{"ha":0,"x_min":0,"x_max":0,"o":""},"Ẻ":{"ha":0,"x_min":0,"x_max":0,"o":""},"Ȇ":{"ha":0,"x_min":0,"x_max":0,"o":""},"Ē":{"ha":0,"x_min":0,"x_max":0,"o":""},"Ḗ":{"ha":0,"x_min":0,"x_max":0,"o":""},"Ḕ":{"ha":0,"x_min":0,"x_max":0,"o":""},"Ę":{"ha":40,"x_min":0,"x_max":0,"o":"m 100 0 l 562 0 b 487 -156 505 -46 483 -102 l 486 -155 l 486 -27 z "},"Ɛ":{"ha":96,"x_min":0,"x_max":0,"o":"m 69 264 b 426 -14 69 72 229 -14 b 784 267 621 -14 784 77 l 623 267 b 423 115 623 182 557 115 b 232 275 315 115 232 161 b 426 437 232 382 297 437 l 538 437 l 538 563 l 426 563 b 247 715 297 563 247 635 b 430 865 247 806 308 865 b 609 728 544 865 609 810 l 770 728 b 430 996 770 891 629 996 b 84 723 231 996 84 894 b 240 502 84 619 144 543 b 69 264 131 465 69 385 z "},"Ʃ":{"ha":94,"x_min":0,"x_max":0,"o":"m 762 133 l 292 133 l 556 476 l 556 488 l 290 834 l 736 834 l 736 967 l 77 967 l 77 865 l 384 481 l 77 100 l 77 0 l 762 0 z "},"Ẽ":{"ha":0,"x_min":0,"x_max":0,"o":""},"Ḛ":{"ha":0,"x_min":0,"x_max":0,"o":""},"Ǝ":{"ha":40,"x_min":0,"x_max":0,"o":"m 699 982 l 77 982 l 77 853 l 549 853 l 549 553 l 115 553 l 115 426 l 549 426 l 549 129 l 83 129 l 83 0 l 699 0 z "},"Ə":{"ha":219,"x_min":0,"x_max":0,"o":"m 476 -14 b 898 442 732 -14 898 180 l 898 536 b 449 996 898 817 727 996 b 167 937 339 996 218 968 l 199 811 b 435 857 273 841 359 857 b 734 536 642 857 734 735 l 734 525 l 81 525 l 81 431 b 476 -14 81 151 239 -14 z m 243 377 l 243 397 l 732 397 b 475 122 719 233 631 122 b 243 377 332 122 243 213 z "},"Ʒ":{"ha":149,"x_min":0,"x_max":0,"o":""},"Ǯ":{"ha":0,"x_min":0,"x_max":0,"o":""},"Ƹ":{"ha":149,"x_min":0,"x_max":0,"o":"m 856 52 l 704 52 b 458 -160 696 -73 589 -160 b 210 122 307 -160 210 -38 b 506 416 210 302 334 416 l 591 416 l 591 533 l 282 844 l 282 852 l 800 852 l 800 982 l 84 982 l 84 873 l 422 533 l 422 524 b 60 125 208 511 60 350 b 460 -290 60 -117 221 -290 b 856 52 677 -290 846 -151 z "},"F":{"ha":17,"x_min":0,"x_max":0,"o":"m 100 0 l 250 0 l 250 429 z "},"Ḟ":{"ha":17,"x_min":0,"x_max":0,"o":"m 100 0 l 250 0 l 250 429 "},"Ƒ":{"ha":28,"x_min":0,"x_max":0,"o":"m 110 0 l 110 -66 b 5 -156 110 -136 64 -156 b -33 -153 -8 -156 -23 -155 l -33 -271 b 20 -277 -4 -277 8 -277 b 259 -68 165 -277 259 -216 l 259 0 l 260 0 l 260 429 l -722 429 z "},"G":{"ha":237,"x_min":0,"x_max":0,"o":""},"Ǵ":{"ha":0,"x_min":0,"x_max":0,"o":""},"Ǥ":{"ha":235,"x_min":0,"x_max":0,"o":"m 983 305 l 917 305 b 924 392 921 333 924 361 l 924 503 l 537 503 l 537 380 l 779 380 b 769 305 778 353 774 328 l 537 305 l 537 217 l 727 217 b 621 110 667 217 621 144 b 680 106 621 18 751 106 b 600 NaN 564 106 600 NaN l 753 NaN b 911 NaN 945 NaN 911 NaN b 1173 NaN 911 NaN 1087 NaN b 1379 NaN 1318 NaN 1379 NaN l 1472 NaN z "},"Ğ":{"ha":0,"x_min":0,"x_max":0,"o":""},"Ǧ":{"ha":0,"x_min":0,"x_max":0,"o":""},"Ĝ":{"ha":0,"x_min":0,"x_max":0,"o":""},"Ģ":{"ha":0,"x_min":0,"x_max":0,"o":""},"Ġ":{"ha":0,"x_min":0,"x_max":0,"o":""},"Ɠ":{"ha":296,"x_min":0,"x_max":0,"o":"m 762 671 l 917 671 l 916 680 l 916 792 b 1029 890 916 869 966 890 b 1073 886 1044 890 1061 887 l 1073 1005 b 997 1012 1050 1010 1023 1012 b 791 897 899 1012 826 971 b 780 835 853 897 780 798 b 840 810 780 723 909 810 b 763 NaN 726 810 763 NaN z "},"Ḡ":{"ha":0,"x_min":0,"x_max":0,"o":""},"Ȝ":{"ha":94,"x_min":0,"x_max":0,"o":"m 141 338 l 141 218 b 562 384 313 257 456 313 b 614 228 600 355 614 305 b 141 -159 614 0 439 -100 l 141 -288 b 777 220 511 -221 777 -85 b 658 465 777 339 733 419 b 762 712 725 536 762 618 b 422 996 762 897 623 996 b 77 727 221 996 77 890 l 239 727 b 422 865 239 810 309 865 b 601 694 538 865 601 804 b 141 338 601 524 453 430 z "},"H":{"ha":229,"x_min":0,"x_max":0,"o":""},"Ħ":{"ha":291,"x_min":0,"x_max":0,"o":"m 998 788 l 920 788 l 920 982 l 770 982 l 770 788 l 282 788 l 282 982 l 133 982 l 133 788 l 52 788 l 52 682 l 133 682 l 133 0 l 282 0 l 282 429 l 770 429 l 770 0 l 920 0 l 920 682 l 998 682 z m 282 556 l 282 682 l 770 682 l 770 556 z "},"Ḫ":{"ha":0,"x_min":0,"x_max":0,"o":""},"Ḩ":{"ha":229,"x_min":0,"x_max":0,"o":"m 100 0 l 136 0 l 115 -92 l 122 -56 z "},"Ĥ":{"ha":0,"x_min":0,"x_max":0,"o":""},"Ḧ":{"ha":0,"x_min":0,"x_max":0,"o":""},"Ḣ":{"ha":0,"x_min":0,"x_max":0,"o":""},"Ḥ":{"ha":0,"x_min":0,"x_max":0,"o":""},"I":{"ha":-410,"x_min":0,"x_max":0,"o":""},"Ĳ":{"ha":321,"x_min":0,"x_max":0,"o":"m 581 982 l 581 286 l 1276 286 z "},"Í":{"ha":0,"x_min":0,"x_max":0,"o":""},"Ĭ":{"ha":0,"x_min":0,"x_max":0,"o":""},"Ǐ":{"ha":0,"x_min":0,"x_max":0,"o":""},"Î":{"ha":0,"x_min":0,"x_max":0,"o":""},"Ȉ":{"ha":0,"x_min":0,"x_max":0,"o":""},"Ï":{"ha":0,"x_min":0,"x_max":0,"o":""},"Ḯ":{"ha":0,"x_min":0,"x_max":0,"o":""},"İ":{"ha":0,"x_min":0,"x_max":0,"o":""},"Ị":{"ha":0,"x_min":0,"x_max":0,"o":""},"Ì":{"ha":0,"x_min":0,"x_max":0,"o":""},"Ỉ":{"ha":0,"x_min":0,"x_max":0,"o":""},"Ȋ":{"ha":-410,"x_min":0,"x_max":0,"o":""},"Ī":{"ha":0,"x_min":0,"x_max":0,"o":""},"Į":{"ha":-410,"x_min":0,"x_max":0,"o":"m 250 982 l 100 982 l 100 9 b 14 -156 35 -39 9 -98 z "},"Ɩ":{"ha":-361,"x_min":0,"x_max":0,"o":""},"Ɨ":{"ha":-410,"x_min":0,"x_max":0,"o":"m 250 982 l 100 982 z "},"Ĩ":{"ha":0,"x_min":0,"x_max":0,"o":""},"Ḭ":{"ha":0,"x_min":0,"x_max":0,"o":""},"J":{"ha":0,"x_min":0,"x_max":0,"o":""},"Ĵ":{"ha":-29,"x_min":0,"x_max":0,"o":"m 481 982 l 481 286 l 1177 286 "},"K":{"ha":124,"x_min":0,"x_max":0,"o":""},"Ḱ":{"ha":0,"x_min":0,"x_max":0,"o":""},"Ǩ":{"ha":0,"x_min":0,"x_max":0,"o":""},"Ķ":{"ha":0,"x_min":0,"x_max":0,"o":""},"Ḳ":{"ha":0,"x_min":0,"x_max":0,"o":""},"Ƙ":{"ha":159,"x_min":0,"x_max":0,"o":"m 100 0 l 250 0 l 250 296 l 372 431 l 694 0 l 875 0 l 465 536 l 728 815 b 861 846 776 867 815 873 l 916 955 b 628 917 822 1016 713 1008 l 262 518 l 250 518 l 250 982 l 100 982 z "},"Ḵ":{"ha":0,"x_min":0,"x_max":0,"o":""},"L":{"ha":-13,"x_min":0,"x_max":0,"o":""},"Ǉ":{"ha":718,"x_min":0,"x_max":0,"o":"m 1127 0 l 1127 -696 l 1823 -696 z "},"Ĺ":{"ha":0,"x_min":0,"x_max":0,"o":""},"Ƚ":{"ha":-13,"x_min":0,"x_max":0,"o":"m 100 0 "},"Ľ":{"ha":0,"x_min":0,"x_max":0,"o":""},"Ḽ":{"ha":0,"x_min":0,"x_max":0,"o":""},"Ļ":{"ha":0,"x_min":0,"x_max":0,"o":""},"Ŀ":{"ha":-7,"x_min":0,"x_max":0,"o":"m 102 0 l 694 0 "},"Ḷ":{"ha":0,"x_min":0,"x_max":0,"o":""},"Ḹ":{"ha":0,"x_min":0,"x_max":0,"o":""},"ǈ":{"ha":0,"x_min":0,"x_max":0,"o":""},"Ḻ":{"ha":0,"x_min":0,"x_max":0,"o":""},"Ł":{"ha":-3,"x_min":0,"x_max":0,"o":"m 426 621 l 264 572 l 264 982 l 115 982 l 115 528 l 18 498 l 18 403 l 115 433 l 115 0 l 708 0 l 708 129 l 264 129 l 264 477 l 426 525 z "},"M":{"ha":439,"x_min":0,"x_max":0,"o":""},"Ḿ":{"ha":0,"x_min":0,"x_max":0,"o":""},"Ṁ":{"ha":0,"x_min":0,"x_max":0,"o":""},"Ṃ":{"ha":0,"x_min":0,"x_max":0,"o":""},"N":{"ha":234,"x_min":0,"x_max":0,"o":""},"Ǌ":{"ha":964,"x_min":0,"x_max":0,"o":"m 582 982 l 582 286 l 1278 286 z "},"Ń":{"ha":0,"x_min":0,"x_max":0,"o":""},"Ň":{"ha":0,"x_min":0,"x_max":0,"o":""},"Ṋ":{"ha":0,"x_min":0,"x_max":0,"o":""},"Ņ":{"ha":0,"x_min":0,"x_max":0,"o":""},"Ṅ":{"ha":0,"x_min":0,"x_max":0,"o":""},"Ṇ":{"ha":0,"x_min":0,"x_max":0,"o":""},"Ɲ":{"ha":246,"x_min":0,"x_max":0,"o":"m 111 0 l 111 -66 b 7 -156 111 -136 65 -156 b -31 -153 -5 -156 -20 -155 l -31 -271 b 45 -277 -11 -277 22 -277 b 260 -68 159 -277 260 -216 l 260 0 l 262 0 l 262 718 l 270 718 l 768 0 l 905 0 l 905 982 z "},"ǋ":{"ha":0,"x_min":0,"x_max":0,"o":""},"Ṉ":{"ha":0,"x_min":0,"x_max":0,"o":""},"Ñ":{"ha":0,"x_min":0,"x_max":0,"o":""},"Ŋ":{"ha":234,"x_min":0,"x_max":0,"o":"m 755 0 l 755 -65 b 644 -161 755 -137 708 -161 b 595 -156 627 -161 609 -159 l 595 -274 b 665 -282 614 -281 640 -282 b 892 -65 795 -282 892 -213 l 892 982 l 746 982 l 746 263 l 736 263 l 239 982 l 100 982 l 100 0 l 250 0 l 250 718 l 258 718 z "},"O":{"ha":262,"x_min":0,"x_max":0,"o":""},"Ƣ":{"ha":425,"x_min":0,"x_max":0,"o":"m 830 127 l 830 776 l 928 814 l 928 -277 l 1084 -277 l 1084 982 l 964 982 l 784 905 b 498 996 718 960 614 996 b 68 534 228 996 68 825 l 68 449 b 488 -14 68 163 224 -14 b 830 127 643 -14 773 45 z m 231 449 l 231 534 b 498 865 231 750 316 865 b 675 804 572 865 639 842 l 675 178 b 496 115 637 137 571 115 b 231 449 315 115 231 240 z "},"Ó":{"ha":0,"x_min":0,"x_max":0,"o":""},"Ɵ":{"ha":0,"x_min":0,"x_max":0,"o":""},"Ŏ":{"ha":0,"x_min":0,"x_max":0,"o":""},"Ǒ":{"ha":0,"x_min":0,"x_max":0,"o":""},"Ô":{"ha":0,"x_min":0,"x_max":0,"o":""},"Ố":{"ha":0,"x_min":0,"x_max":0,"o":""},"Ộ":{"ha":0,"x_min":0,"x_max":0,"o":""},"Ồ":{"ha":0,"x_min":0,"x_max":0,"o":""},"Ổ":{"ha":0,"x_min":0,"x_max":0,"o":""},"Ỗ":{"ha":0,"x_min":0,"x_max":0,"o":""},"Ȍ":{"ha":0,"x_min":0,"x_max":0,"o":""},"Ö":{"ha":0,"x_min":0,"x_max":0,"o":""},"Ọ":{"ha":0,"x_min":0,"x_max":0,"o":""},"Ò":{"ha":0,"x_min":0,"x_max":0,"o":""},"Ỏ":{"ha":0,"x_min":0,"x_max":0,"o":""},"Ơ":{"ha":288,"x_min":0,"x_max":0,"o":""},"Ớ":{"ha":0,"x_min":0,"x_max":0,"o":""},"Ợ":{"ha":0,"x_min":0,"x_max":0,"o":""},"Ờ":{"ha":0,"x_min":0,"x_max":0,"o":""},"Ở":{"ha":0,"x_min":0,"x_max":0,"o":""},"Ỡ":{"ha":0,"x_min":0,"x_max":0,"o":""},"Ő":{"ha":0,"x_min":0,"x_max":0,"o":""},"Ȏ":{"ha":262,"x_min":0,"x_max":0,"o":""},"Ō":{"ha":0,"x_min":0,"x_max":0,"o":""},"Ṓ":{"ha":0,"x_min":0,"x_max":0,"o":""},"Ṑ":{"ha":0,"x_min":0,"x_max":0,"o":""},"Ǫ":{"ha":262,"x_min":0,"x_max":0,"o":""},"Ǭ":{"ha":0,"x_min":0,"x_max":0,"o":""},"Ɔ":{"ha":218,"x_min":0,"x_max":0,"o":""},"Ø":{"ha":262,"x_min":0,"x_max":0,"o":"m -590 0 b -294 368 -590 239 -464 368 b -136 321 -235 368 -181 351 l -525 -248 b -590 0 -566 -188 -590 -104 z "},"Ǿ":{"ha":262,"x_min":0,"x_max":0,"o":"m -347 -811 b 369 -926 -347 -1165 243 -926 b 667 -813 498 -926 667 -867 b NaN -784 667 -829 637 -784 l NaN -1354 b NaN -1105 NaN -1293 NaN -1210 z "},"Õ":{"ha":0,"x_min":0,"x_max":0,"o":""},"Ṍ":{"ha":0,"x_min":0,"x_max":0,"o":""},"Ṏ":{"ha":0,"x_min":0,"x_max":0,"o":""},"Œ":{"ha":543,"x_min":0,"x_max":0,"o":"m 506 0 l 1225 0 l 1225 129 l 511 129 b 73 -362 254 129 73 -58 b 511 -853 73 -665 254 -853 z m 221 -362 b 511 0 221 -133 339 0 l 609 0 l 609 -724 l 511 -724 b 221 -362 339 -724 221 -590 z "},"P":{"ha":0,"x_min":0,"x_max":0,"o":""},"Ṕ":{"ha":89,"x_min":0,"x_max":0,"o":"m 100 0 "},"Ṗ":{"ha":89,"x_min":0,"x_max":0,"o":"m 100 0 "},"Ƥ":{"ha":321,"x_min":0,"x_max":0,"o":"m 189 690 l 189 734 b 278 854 187 795 201 854 l 278 907 l -576 907 l -576 503 "},"Þ":{"ha":0,"x_min":0,"x_max":0,"o":""},"Q":{"ha":262,"x_min":0,"x_max":0,"o":"m 460 319 l 600 137 b 511 123 572 127 543 123 b 276 -40 377 123 337 24 l 181 82 b 412 492 181 429 353 492 b 446 NaN 424 492 446 545 l 529 NaN l 682 NaN l 549 NaN b 713 NaN 651 NaN 713 NaN z "},"Ɋ":{"ha":300,"x_min":0,"x_max":0,"o":"m 921 -68 l 921 982 l 780 982 l 780 833 l 769 833 b 481 996 720 932 616 996 b 68 494 239 996 68 784 b 481 -15 68 198 239 -15 b 769 152 614 -15 719 49 l 776 152 l 776 -68 b 989 -277 776 -213 871 -277 b 1067 -270 1020 -277 1048 -275 l 1067 -153 b 1027 -157 1057 -155 1042 -157 b 921 -68 968 -157 921 -137 z m 496 123 b 218 492 331 123 218 263 b 498 863 218 711 326 863 b 777 492 688 863 777 700 b 496 123 777 281 696 123 z "},"R":{"ha":0,"x_min":0,"x_max":0,"o":""},"Ŕ":{"ha":0,"x_min":0,"x_max":0,"o":""},"Ř":{"ha":0,"x_min":0,"x_max":0,"o":""},"Ŗ":{"ha":0,"x_min":0,"x_max":0,"o":""},"Ȑ":{"ha":0,"x_min":0,"x_max":0,"o":""},"Ṙ":{"ha":0,"x_min":0,"x_max":0,"o":""},"Ṛ":{"ha":0,"x_min":0,"x_max":0,"o":""},"Ṝ":{"ha":0,"x_min":0,"x_max":0,"o":""},"Ȓ":{"ha":0,"x_min":0,"x_max":0,"o":""},"Ṟ":{"ha":0,"x_min":0,"x_max":0,"o":""},"S":{"ha":94,"x_min":0,"x_max":0,"o":""},"Ś":{"ha":0,"x_min":0,"x_max":0,"o":""},"Ṥ":{"ha":0,"x_min":0,"x_max":0,"o":""},"Š":{"ha":0,"x_min":0,"x_max":0,"o":""},"Ṧ":{"ha":0,"x_min":0,"x_max":0,"o":""},"Ş":{"ha":0,"x_min":0,"x_max":0,"o":"l 94 635 l 103 471 l 220 364 l 409 349 l 393 271 l 413 477 b 699 NaN 427 593 544 594 "},"Ŝ":{"ha":0,"x_min":0,"x_max":0,"o":""},"Ș":{"ha":0,"x_min":0,"x_max":0,"o":""},"Ṡ":{"ha":0,"x_min":0,"x_max":0,"o":""},"Ṣ":{"ha":0,"x_min":0,"x_max":0,"o":""},"Ṩ":{"ha":0,"x_min":0,"x_max":0,"o":""},"ẞ":{"ha":163,"x_min":0,"x_max":0,"o":"m 100 651 l 100 0 l 250 0 l 250 651 b 420 869 250 766 289 869 b 597 810 499 869 555 840 l 407 563 l 407 453 l 500 453 b 704 281 556 453 704 442 b 521 111 704 176 637 111 b 374 144 461 111 412 127 l 328 22 b 524 -14 392 -3 460 -14 b 861 279 720 -14 861 94 b 567 563 861 442 751 548 l 785 841 b 418 996 685 926 560 996 b 100 651 213 996 100 873 z "},"T":{"ha":105,"x_min":0,"x_max":0,"o":""},"Ŧ":{"ha":105,"x_min":0,"x_max":0,"o":"m 52 853 l 358 853 l 358 544 l 212 544 l 212 445 l 358 445 l 358 0 l 507 0 l 507 445 l 817 445 l 817 750 l 945 750 l 945 -11 z "},"Ť":{"ha":0,"x_min":0,"x_max":0,"o":""},"Ṱ":{"ha":0,"x_min":0,"x_max":0,"o":""},"Ţ":{"ha":105,"x_min":0,"x_max":0,"o":"m 52 853 l 358 853 l 358 0 l 393 0 l 393 20 l 1246 20 l 1246 326 l 1375 326 l 1375 -435 z "},"Ṫ":{"ha":0,"x_min":0,"x_max":0,"o":""},"Ṭ":{"ha":0,"x_min":0,"x_max":0,"o":""},"Ƭ":{"ha":157,"x_min":0,"x_max":0,"o":"m 864 982 l 273 982 b 52 768 133 982 52 897 l 52 697 l 182 697 l 182 741 b 273 853 182 798 202 853 l 410 853 l 410 0 l 557 0 l 557 853 l 864 853 z "},"Ṯ":{"ha":0,"x_min":0,"x_max":0,"o":""},"Ƽ":{"ha":50,"x_min":0,"x_max":0,"o":"m 728 982 l 37 982 l 37 854 l 157 854 l 109 435 l 250 435 b 422 522 283 496 343 522 b 633 315 545 521 633 434 b 429 111 633 198 548 111 b 241 256 330 111 250 172 l 96 256 b 429 -14 103 100 243 -14 z "},"Ƅ":{"ha":292,"x_min":0,"x_max":0,"o":"m 434 982 l 52 982 l 52 853 l 283 853 l 283 0 l 651 0 b 996 298 871 0 996 122 b 651 587 996 475 871 587 l 434 587 z m 434 126 l 434 461 l 651 461 b 848 300 777 461 848 388 b 651 126 848 209 777 126 z "},"Ƨ":{"ha":94,"x_min":0,"x_max":0,"o":"m 75 723 l 218 723 b 420 867 229 814 309 867 b 617 722 541 867 617 806 b 439 574 618 628 517 593 l 343 548 b 61 271 218 518 61 449 b 425 -16 61 106 194 -16 b 793 273 646 -16 784 94 l 643 273 b 426 114 635 165 540 114 b 209 274 301 114 209 178 b 395 422 209 359 290 395 l 510 453 b 766 713 669 496 766 576 b 418 996 766 883 616 996 b 75 723 218 996 79 882 z "},"Ʈ":{"ha":105,"x_min":0,"x_max":0,"o":"m 506 -68 l 506 0 l 507 0 l 507 853 l -346 853 l -346 852 l -414 852 b -191 643 -414 703 -305 643 l -115 643 l -115 768 l -153 768 b -264 852 -212 768 -264 783 z "},"U":{"ha":222,"x_min":0,"x_max":0,"o":""},"Ú":{"ha":0,"x_min":0,"x_max":0,"o":""},"Ŭ":{"ha":0,"x_min":0,"x_max":0,"o":""},"Ǔ":{"ha":0,"x_min":0,"x_max":0,"o":""},"Û":{"ha":0,"x_min":0,"x_max":0,"o":""},"Ṷ":{"ha":0,"x_min":0,"x_max":0,"o":""},"Ȕ":{"ha":0,"x_min":0,"x_max":0,"o":""},"Ü":{"ha":0,"x_min":0,"x_max":0,"o":""},"Ǘ":{"ha":0,"x_min":0,"x_max":0,"o":""},"Ṳ":{"ha":222,"x_min":0,"x_max":0,"o":"m 305 0 z "},"Ǚ":{"ha":0,"x_min":0,"x_max":0,"o":""},"Ǜ":{"ha":0,"x_min":0,"x_max":0,"o":""},"Ǖ":{"ha":0,"x_min":0,"x_max":0,"o":""},"Ụ":{"ha":0,"x_min":0,"x_max":0,"o":""},"Ù":{"ha":0,"x_min":0,"x_max":0,"o":""},"Ủ":{"ha":0,"x_min":0,"x_max":0,"o":""},"Ư":{"ha":395,"x_min":0,"x_max":0,"o":""},"Ứ":{"ha":395,"x_min":0,"x_max":0,"o":"m -670 47 l -556 47 l -407 269 l -559 269 z "},"Ự":{"ha":0,"x_min":0,"x_max":0,"o":""},"Ừ":{"ha":395,"x_min":0,"x_max":0,"o":"m -669 47 l -553 47 l -665 269 l -818 269 z "},"Ử":{"ha":0,"x_min":0,"x_max":0,"o":""},"Ữ":{"ha":395,"x_min":0,"x_max":0,"o":"m -854 41 l -757 38 b -697 110 -757 79 -732 110 b -521 46 -628 110 -612 46 b -372 218 -437 46 -372 111 l -467 224 b -529 151 -467 182 -492 151 b -704 216 -593 151 -625 216 b -854 41 -788 216 -854 146 z "},"Ű":{"ha":0,"x_min":0,"x_max":0,"o":""},"Ȗ":{"ha":0,"x_min":0,"x_max":0,"o":""},"Ū":{"ha":0,"x_min":0,"x_max":0,"o":""},"Ṻ":{"ha":0,"x_min":0,"x_max":0,"o":""},"Ų":{"ha":222,"x_min":0,"x_max":0,"o":"m 731 982 b 1050 635 731 798 854 661 b 960 566 1004 635 960 617 b 953 618 960 570 911 618 b 1044 NaN 992 618 1044 652 b 1344 NaN 1227 NaN 1344 NaN l 1344 NaN z "},"Ʊ":{"ha":262,"x_min":0,"x_max":0,"o":"m 66 458 b 511 -14 66 182 251 -14 b 955 458 770 -14 955 182 b 757 846 955 637 879 769 l 757 853 l 955 853 l 955 982 l 591 982 l 591 821 b 807 465 711 770 807 635 b 511 123 807 273 684 123 b 214 465 336 123 214 273 b 429 821 214 635 311 770 l 429 982 l 66 982 l 66 853 l 263 853 l 263 846 b 66 458 142 768 66 637 z "},"Ů":{"ha":0,"x_min":0,"x_max":0,"o":""},"Ũ":{"ha":0,"x_min":0,"x_max":0,"o":""},"Ṹ":{"ha":0,"x_min":0,"x_max":0,"o":""},"Ṵ":{"ha":0,"x_min":0,"x_max":0,"o":""},"V":{"ha":170,"x_min":0,"x_max":0,"o":""},"Ɣ":{"ha":127,"x_min":0,"x_max":0,"o":"m 15 982 l 369 203 b 243 -122 280 6 243 -63 b 444 -292 243 -231 320 -292 b 643 -123 567 -292 643 -228 b 519 198 643 -63 595 27 l 872 982 l 705 982 l 442 374 l 180 982 z m 392 -119 b 445 35 392 -85 412 -39 b 495 -119 477 -40 495 -84 b 444 -171 495 -149 475 -171 b 392 -119 412 -171 392 -151 z "},"Ʋ":{"ha":94,"x_min":0,"x_max":0,"o":"m 426 -14 b 788 317 625 -14 788 99 l 788 751 b 560 996 788 907 693 996 b 473 985 529 996 498 990 l 473 857 b 522 861 488 860 510 861 b 624 751 590 861 624 834 l 624 317 b 426 115 624 180 551 115 b 228 317 302 115 228 180 l 228 982 l 66 982 l 66 317 b 426 -14 66 99 220 -14 z "},"Ṿ":{"ha":0,"x_min":0,"x_max":0,"o":""},"Ṽ":{"ha":0,"x_min":0,"x_max":0,"o":""},"W":{"ha":551,"x_min":0,"x_max":0,"o":""},"Ẃ":{"ha":0,"x_min":0,"x_max":0,"o":""},"Ŵ":{"ha":0,"x_min":0,"x_max":0,"o":""},"Ẅ":{"ha":0,"x_min":0,"x_max":0,"o":""},"Ẇ":{"ha":0,"x_min":0,"x_max":0,"o":""},"Ẉ":{"ha":0,"x_min":0,"x_max":0,"o":""},"Ẁ":{"ha":0,"x_min":0,"x_max":0,"o":""},"X":{"ha":0,"x_min":0,"x_max":0,"o":""},"Ẍ":{"ha":0,"x_min":0,"x_max":0,"o":""},"Ẋ":{"ha":0,"x_min":0,"x_max":0,"o":""},"Y":{"ha":150,"x_min":0,"x_max":0,"o":""},"Ʀ":{"ha":218,"x_min":0,"x_max":0,"o":"m 62 1050 l 62 0 l 225 0 l 225 395 l 408 395 l 742 -236 l 916 -236 l 916 -228 l 562 429 b 747 693 677 474 747 562 b 400 983 747 882 621 983 l 225 983 l 225 1050 z m 225 525 l 225 852 l 400 852 b 586 686 530 852 586 787 b 400 525 586 594 524 525 z "},"Ý":{"ha":0,"x_min":0,"x_max":0,"o":""},"Ŷ":{"ha":0,"x_min":0,"x_max":0,"o":""},"Ÿ":{"ha":0,"x_min":0,"x_max":0,"o":""},"Ẏ":{"ha":0,"x_min":0,"x_max":0,"o":""},"Ỵ":{"ha":0,"x_min":0,"x_max":0,"o":""},"Ỳ":{"ha":0,"x_min":0,"x_max":0,"o":""},"Ƴ":{"ha":216,"x_min":0,"x_max":0,"o":"m 27 982 l 392 396 l 392 0 l 541 0 l 541 396 l 796 810 b 925 856 833 867 872 876 l 959 974 b 675 876 856 1019 745 993 l 473 537 l 460 537 l 195 982 z "},"Ỷ":{"ha":0,"x_min":0,"x_max":0,"o":""},"Ỹ":{"ha":0,"x_min":0,"x_max":0,"o":""},"Z":{"ha":87,"x_min":0,"x_max":0,"o":""},"Ź":{"ha":0,"x_min":0,"x_max":0,"o":""},"Ƶ":{"ha":87,"x_min":0,"x_max":0,"o":"m 75 0 l 777 0 l 777 129 l 258 129 l 486 461 l 656 461 l 656 560 l 553 560 l 773 883 l 773 982 l 69 982 l 69 853 l 590 853 l 391 560 l 216 560 l 216 461 l 323 461 l 75 99 z "},"Ž":{"ha":0,"x_min":0,"x_max":0,"o":""},"Ẑ":{"ha":0,"x_min":0,"x_max":0,"o":""},"Ż":{"ha":0,"x_min":0,"x_max":0,"o":""},"Ẓ":{"ha":0,"x_min":0,"x_max":0,"o":""},"Ẕ":{"ha":0,"x_min":0,"x_max":0,"o":""},"Ɯ":{"ha":467,"x_min":0,"x_max":0,"o":"m 100 288 b 336 -14 100 64 189 -14 b 566 111 446 -14 521 33 b 773 -14 604 20 677 -14 b 978 79 865 -14 933 20 l 983 0 l 1127 0 l 1127 982 l 972 982 l 972 227 b 808 114 950 159 899 114 b 690 288 746 114 690 152 l 690 982 l 536 982 l 536 288 b 538 231 536 267 536 248 b 372 114 515 160 465 114 b 256 288 311 114 256 152 l 256 982 l 100 982 z "},"Ƕ":{"ha":734,"x_min":0,"x_max":0,"o":"m 1074 -14 b 1405 317 1271 -14 1405 100 l 1405 730 l 1255 730 l 1255 317 b 1074 119 1255 182 1191 119 b 887 317 956 119 887 182 l 887 982 l 776 982 b 1112 651 776 768 910 651 z "},"Ƿ":{"ha":128,"x_min":0,"x_max":0,"o":"m 240 982 l 79 982 l 79 -277 l 240 -277 l 240 -103 b 810 541 579 -18 810 234 l 810 575 b 415 996 810 857 651 996 b 240 959 342 996 286 982 z m 240 30 l 240 789 b 416 865 277 837 332 865 b 647 576 575 865 647 765 l 647 541 b 240 30 647 332 517 115 z "},"Ǹ":{"ha":0,"x_min":0,"x_max":0,"o":""},"Ț":{"ha":0,"x_min":0,"x_max":0,"o":""},"Ȟ":{"ha":0,"x_min":0,"x_max":0,"o":""},"Ƞ":{"ha":94,"x_min":0,"x_max":0,"o":"m 781 -274 l 781 681 b 438 996 781 887 621 996 b 229 943 359 996 288 975 l 229 982 l 75 982 l 75 0 l 229 0 l 229 815 b 420 868 286 849 351 868 b 624 681 551 868 624 811 l 624 -274 z "},"Ȣ":{"ha":93,"x_min":0,"x_max":0,"o":"m 419 472 l 434 472 b 639 294 559 472 639 414 b 434 118 639 172 559 118 l 419 118 b 213 293 294 118 213 174 b 419 472 213 414 294 472 z m 438 605 l 414 605 b 213 742 301 605 213 623 b 321 872 213 817 248 854 l 321 996 b 50 742 165 990 50 907 b 176 532 50 636 99 570 b 50 293 98 481 50 401 b 419 -14 50 91 208 -14 l 434 -14 b 802 294 644 -14 802 91 b 677 530 802 401 754 481 b 803 742 754 570 803 636 b 530 996 803 907 688 990 l 530 872 b 640 742 604 854 640 817 b 438 605 640 624 552 605 z "},"Ȥ":{"ha":87,"x_min":0,"x_max":0,"o":"m 69 853 l 591 853 l 75 99 l 75 0 l 566 0 b 658 -113 639 0 658 -54 l 658 -153 l 787 -153 l 787 -85 b 566 129 787 43 705 129 l 255 129 l 773 883 l 773 982 l 69 982 z "},"Ȧ":{"ha":0,"x_min":0,"x_max":0,"o":""},"Ȩ":{"ha":40,"x_min":0,"x_max":0,"o":""},"Ȫ":{"ha":0,"x_min":0,"x_max":0,"o":""},"Ȭ":{"ha":0,"x_min":0,"x_max":0,"o":""},"Ȯ":{"ha":0,"x_min":0,"x_max":0,"o":""},"Ȱ":{"ha":0,"x_min":0,"x_max":0,"o":""},"Ȳ":{"ha":0,"x_min":0,"x_max":0,"o":""},"Ⱥ":{"ha":170,"x_min":0,"x_max":0,"o":"m 770 1107 l 655 1107 l 582 895 l 551 982 l 378 982 l 26 0 l 184 0 l 274 259 l 363 259 l 231 -125 l 346 -125 l 479 259 l 656 259 l 746 0 l 905 0 l 642 732 z m 317 384 l 461 803 l 468 803 l 510 684 l 407 384 z m 522 384 l 567 517 l 613 384 z "},"Ȼ":{"ha":218,"x_min":0,"x_max":0,"o":"m 222 -125 l 338 -125 l 382 4 b 510 -14 422 -7 465 -14 b 426 -1 481 -14 452 -9 l 662 681 b 764 525 713 646 750 594 l 914 525 b 708 815 892 662 815 762 l 761 970 l 646 970 l 605 849 b 580 821 611 849 580 817 b 216 870 580 787 371 870 b 268 NaN 348 870 268 NaN z m 201 NaN b 497 NaN 201 NaN 328 NaN b 546 NaN 514 NaN 530 NaN l 317 NaN b 201 NaN 245 NaN 201 NaN z "},"Ⱦ":{"ha":105,"x_min":0,"x_max":0,"o":"m 176 -125 l 290 -125 l 358 72 l 358 0 l 507 0 l 507 505 l 628 853 l 812 853 l 812 982 l 673 982 l 715 1107 l 600 1107 l 557 982 l 52 982 l 52 853 l 358 853 l 358 404 z m 507 838 l 507 853 l 513 853 z "},"Ɂ":{"ha":-31,"x_min":0,"x_max":0,"o":"m 349 313 l 274 313 l 274 0 l 437 0 l 437 189 b 681 536 599 226 681 370 l 681 636 b 347 996 681 831 568 996 b 49 719 174 996 53 880 l 202 719 b 349 861 206 803 259 861 b 518 636 486 861 518 742 l 518 536 b 349 313 518 420 484 313 z "},"Ƀ":{"ha":188,"x_min":0,"x_max":0,"o":"m 179 0 l -469 0 l -469 -149 l -568 -149 l -568 0 z m -206 -107 z "},"Ʉ":{"ha":234,"x_min":0,"x_max":0,"o":"m 1006 566 l 888 566 l 888 982 l 739 982 l 739 566 l 258 566 l 258 982 l 109 982 l 109 566 l -14 566 l -14 473 l 109 473 l 109 336 l 109 473 l 227 473 z m -522 349 z "},"Ʌ":{"ha":218,"x_min":0,"x_max":0,"o":"m 738 0 l 917 0 l 564 982 l 411 982 l 61 0 l 239 0 l 488 777 z "},"Ɇ":{"ha":40,"x_min":0,"x_max":0,"o":"m 669 1107 l 559 1107 l 524 982 l 100 982 l 100 0 l 241 0 l 205 -125 l 313 -125 l 350 0 l 722 0 l 722 129 l 387 129 l 473 429 l 684 429 l 684 556 l 510 556 l 595 853 l 716 853 l 716 982 l 633 982 z m 250 129 l 250 429 l 365 429 l 278 129 z m 250 556 l 250 853 l 486 853 l 401 556 z "},"Ɉ":{"ha":-29,"x_min":0,"x_max":0,"o":"m 481 982 l 481 635 l 335 635 l 335 536 l 481 536 l 481 286 l 731 286 l 731 633 z "},"Ɍ":{"ha":113,"x_min":0,"x_max":0,"o":"m 115 0 b 666 350 115 149 486 350 b 681 NaN 553 350 681 122 l 331 NaN l 331 NaN l 221 NaN l 221 NaN l 331 NaN "},"Ɏ":{"ha":153,"x_min":0,"x_max":0,"o":"m 914 780 l 765 780 l 886 982 l 716 982 l 600 780 l 311 780 l 194 982 l 24 982 l 145 780 l -3 780 l -3 692 l 198 692 l 380 385 l 563 692 l 765 692 z m 212 692 l 400 692 l 311 537 l 300 537 z "},"Ỻ":{"ha":322,"x_min":0,"x_max":0,"o":"m 113 0 l 987 0 l 987 129 l 544 129 l 544 982 l 395 982 l 395 129 l 262 129 l 262 982 l 113 982 z "},"Ỽ":{"ha":5,"x_min":0,"x_max":0,"o":"m 439 643 l 385 522 b 545 289 473 492 545 420 b 387 115 545 178 487 115 b 221 351 296 115 221 198 l 221 431 b 525 837 221 665 321 798 l 505 964 b 61 401 180 913 61 692 l 61 363 b 388 -14 61 167 175 -14 b 703 300 590 -14 703 107 b 439 643 703 468 591 597 z "},"Ỿ":{"ha":218,"x_min":0,"x_max":0,"o":"m 282 982 l 104 982 l 387 450 b 294 468 359 462 328 468 b 53 227 160 468 53 358 b 294 -14 53 94 161 -14 b 524 146 399 -14 489 53 l 936 982 l 760 982 l 529 484 z m 294 123 b 194 228 237 123 194 160 b 294 332 194 297 237 332 b 393 228 350 332 393 297 b 294 123 393 160 350 123 z "},"Ɀ":{"ha":87,"x_min":0,"x_max":0,"o":"m 675 -288 b 787 -270 719 -288 762 -279 l 787 -144 b 696 -157 760 -152 732 -157 b 250 115 556 -157 480 65 l 770 887 l 770 982 l 69 982 l 69 854 l 587 854 l 73 96 l 73 0 l 130 0 b 675 -288 384 0 460 -288 z "},"Ａ":{"ha":543,"x_min":0,"x_max":0,"o":"m 372 0 "},"Ｂ":{"ha":543,"x_min":0,"x_max":0,"o":"m 317 0 "},"Ｃ":{"ha":543,"x_min":0,"x_max":0,"o":"m 928 662 l 1078 662 b 1256 620 1290 662 1256 498 b 751 598 1256 412 943 598 b 1223 892 1008 598 1223 757 b NaN NaN 1223 1086 1255 NaN z "},"Ｄ":{"ha":543,"x_min":0,"x_max":0,"o":"m 591 0 l 263 0 l 263 -982 z m 412 -852 "},"Ｅ":{"ha":543,"x_min":0,"x_max":0,"o":"m 353 0 z "},"Ｆ":{"ha":543,"x_min":0,"x_max":0,"o":"m 365 0 l 514 0 l 514 429 z "},"Ｇ":{"ha":543,"x_min":0,"x_max":0,"o":"m 917 671 l 1070 671 b 1227 642 1261 671 1227 509 b 1287 517 1227 429 1358 517 b 1207 NaN 1171 517 1207 NaN z "},"Ｈ":{"ha":543,"x_min":0,"x_max":0,"o":""},"Ｉ":{"ha":543,"x_min":0,"x_max":0,"o":""},"Ｊ":{"ha":543,"x_min":0,"x_max":0,"o":"m 769 982 l 769 286 l 1465 286 z "},"Ｋ":{"ha":543,"x_min":0,"x_max":0,"o":"m 311 0 l 460 0 l 460 305 l 575 438 l 891 0 l 1072 0 l 674 540 l 1070 982 l 883 982 l 472 514 l 460 514 l 460 982 l 311 982 z "},"Ｌ":{"ha":543,"x_min":0,"x_max":0,"o":"m 380 0 l 972 0 z "},"Ｍ":{"ha":543,"x_min":0,"x_max":0,"o":"m 153 982 l 153 0 l 296 0 l 296 711 l 304 711 l 593 1 l 711 1 l 998 709 l 1008 709 l 1008 0 l 1150 0 l 1150 982 l 968 982 l 658 221 l 646 221 l 335 982 z "},"Ｎ":{"ha":543,"x_min":0,"x_max":0,"o":"m 1047 982 l 1196 982 l 1196 1699 l 1204 1699 l 1702 982 l 1839 982 z "},"Ｏ":{"ha":543,"x_min":0,"x_max":0,"o":""},"Ｐ":{"ha":543,"x_min":0,"x_max":0,"o":"m 328 0 z "},"Ｑ":{"ha":543,"x_min":0,"x_max":0,"o":"m 601 319 l 741 137 b 652 123 713 127 684 123 b 417 -40 518 123 478 24 l 322 82 b 553 492 322 429 494 492 b 587 NaN 565 492 587 545 l 670 NaN l 823 NaN l 690 NaN b 854 NaN 792 NaN 854 NaN z "},"Ｒ":{"ha":543,"x_min":0,"x_max":0,"o":"m 324 0 b 875 350 324 149 694 350 b 890 NaN 762 350 890 122 l 540 NaN "},"Ｓ":{"ha":543,"x_min":0,"x_max":0,"o":"m 860 723 l 1005 723 b 662 996 1001 882 861 996 b 312 713 464 996 312 883 b 568 453 312 576 411 496 l 685 422 b 871 274 789 395 869 359 b 654 114 869 178 779 114 b 435 273 538 114 445 165 l 286 273 b 654 -16 296 94 434 -16 b 1019 271 886 -16 1017 106 "},"Ｔ":{"ha":543,"x_min":0,"x_max":0,"o":"m 271 853 l 578 853 l 578 0 l 727 0 l 727 853 l 1032 853 l 1032 982 l 271 982 z "},"Ｕ":{"ha":543,"x_min":0,"x_max":0,"o":""},"Ｖ":{"ha":0,"x_min":0,"x_max":0,"o":""},"Ｗ":{"ha":0,"x_min":0,"x_max":0,"o":""},"Ｘ":{"ha":543,"x_min":0,"x_max":0,"o":"m 414 982 l 239 982 "},"Ｙ":{"ha":543,"x_min":0,"x_max":0,"o":"m 221 982 l 576 385 l 933 982 l 764 982 l 507 537 l 496 537 l 241 982 z "},"Ｚ":{"ha":543,"x_min":0,"x_max":0,"o":"m 302 0 l 1005 0 l 1005 129 l 486 129 l 1001 883 l 1001 982 l 297 982 l 297 853 l 818 853 l 302 99 z "},"ɢ":{"ha":96,"x_min":0,"x_max":0,"o":"m 757 104 l 757 373 l 444 373 l 444 256 l 617 256 l 617 157 b 439 111 595 141 538 111 b 233 305 317 111 233 195 l 233 412 b 434 605 233 522 320 605 b 606 481 534 605 595 564 l 753 481 b 434 727 738 631 636 727 b 692 618 434 525 620 618 b 776 NaN 738 618 776 NaN z "},"ʛ":{"ha":146,"x_min":0,"x_max":0,"o":"m 757 481 l 757 566 b 853 665 757 639 793 665 b 895 661 867 665 882 663 l 895 765 b 823 774 872 770 846 774 b 658 667 739 774 682 736 b 435 727 606 705 532 727 b 692 620 435 526 620 620 b 776 NaN 738 620 776 NaN l 776 NaN l 463 NaN l 463 NaN l 637 NaN l 637 NaN b 460 NaN 616 NaN 559 NaN b 254 NaN 338 NaN 254 NaN l 254 NaN b 453 NaN 254 NaN 340 NaN b 627 NaN 553 NaN 614 NaN z "},"ɪ":{"ha":-243,"x_min":0,"x_max":0,"o":"m 435 713 l 81 713 l 81 589 l 179 589 l 179 125 l 81 125 l 81 0 l 435 0 l 435 125 l 335 125 l 335 589 l 435 589 z "},"ʟ":{"ha":-154,"x_min":0,"x_max":0,"o":"m 551 123 l 213 123 l 213 713 l 56 713 l 56 0 l 551 0 z "},"ɴ":{"ha":35,"x_min":0,"x_max":0,"o":"m 705 736 l 560 736 l 560 248 l 552 248 l 218 736 l 88 736 l 88 0 l 231 0 l 231 479 l 240 479 l 567 0 l 705 0 z "},"ɶ":{"ha":433,"x_min":0,"x_max":0,"o":"m 1100 123 l 726 123 l 726 298 l 1042 298 l 1042 423 l 726 423 l 726 591 l 1100 591 l 1100 713 l 675 713 b 426 727 566 713 506 727 b 94 365 218 727 92 570 l 94 349 b 427 -14 92 144 218 -14 b 675 0 506 -14 564 0 l 1100 0 z m 250 349 l 250 365 b 426 602 250 491 305 602 b 570 595 477 602 519 598 l 570 119 b 427 111 519 116 477 111 b 250 349 304 111 250 220 z "},"ʀ":{"ha":96,"x_min":0,"x_max":0,"o":"m 422 713 l 111 713 l 111 0 l 267 0 l 267 264 l 425 264 l 581 0 l 745 0 l 572 290 b 709 487 661 327 709 399 b 422 713 709 618 604 713 z m 267 381 l 267 591 l 422 591 b 553 486 514 591 553 537 b 431 381 553 433 517 381 z "},"ʁ":{"ha":96,"x_min":0,"x_max":0,"o":"m 422 0 b 709 227 602 0 709 96 b 572 425 709 315 661 388 l 745 713 l 581 713 l 423 449 l 267 449 l 267 713 l 111 713 l 111 0 z m 267 123 l 267 332 l 431 332 b 553 231 517 332 553 279 b 422 123 553 179 513 123 z "},"ʏ":{"ha":-32,"x_min":0,"x_max":0,"o":"m 182 713 l 9 713 l 285 239 l 285 0 l 438 0 l 438 232 l 718 713 l 545 713 l 365 370 z "},"a":{"ha":0,"x_min":0,"x_max":0,"o":""},"á":{"ha":0,"x_min":0,"x_max":0,"o":""},"ă":{"ha":0,"x_min":0,"x_max":0,"o":""},"ắ":{"ha":0,"x_min":0,"x_max":0,"o":""},"ặ":{"ha":0,"x_min":0,"x_max":0,"o":""},"ằ":{"ha":0,"x_min":0,"x_max":0,"o":""},"ẳ":{"ha":0,"x_min":0,"x_max":0,"o":""},"ẵ":{"ha":0,"x_min":0,"x_max":0,"o":""},"ǎ":{"ha":0,"x_min":0,"x_max":0,"o":""},"â":{"ha":-5,"x_min":0,"x_max":0,"o":"m -335 -746 l 152 -746 l 152 80 l 52 80 l 52 221 l 541 221 "},"ấ":{"ha":-5,"x_min":0,"x_max":0,"o":"m -632 -898 l -491 -898 l -491 -73 l -591 -73 l -591 68 l -102 68 "},"ậ":{"ha":-5,"x_min":0,"x_max":0,"o":"m 0 -1207 "},"ầ":{"ha":0,"x_min":0,"x_max":0,"o":""},"ẩ":{"ha":0,"x_min":0,"x_max":0,"o":""},"ẫ":{"ha":-5,"x_min":0,"x_max":0,"o":"m -507 -901 l -71 -901 l -71 60 l -171 60 l -171 201 l 319 201 "},"ȁ":{"ha":0,"x_min":0,"x_max":0,"o":""},"ä":{"ha":0,"x_min":0,"x_max":0,"o":""},"ǟ":{"ha":0,"x_min":0,"x_max":0,"o":""},"ạ":{"ha":0,"x_min":0,"x_max":0,"o":""},"ǡ":{"ha":-5,"x_min":0,"x_max":0,"o":"m -574 -916 l -180 -916 l -180 -66 l -281 -66 l -281 75 l 209 75 "},"à":{"ha":0,"x_min":0,"x_max":0,"o":""},"ả":{"ha":0,"x_min":0,"x_max":0,"o":""},"ȃ":{"ha":0,"x_min":0,"x_max":0,"o":""},"ā":{"ha":0,"x_min":0,"x_max":0,"o":""},"ą":{"ha":0,"x_min":0,"x_max":0,"o":""},"ẚ":{"ha":0,"x_min":0,"x_max":0,"o":""},"å":{"ha":0,"x_min":0,"x_max":0,"o":""},"ǻ":{"ha":0,"x_min":0,"x_max":0,"o":""},"ḁ":{"ha":0,"x_min":0,"x_max":0,"o":""},"ɑ":{"ha":0,"x_min":0,"x_max":0,"o":""},"ɒ":{"ha":94,"x_min":0,"x_max":0,"o":"m 780 366 l 780 395 b 502 746 780 602 678 746 b 300 639 410 746 344 707 b 160 746 277 713 228 746 b 76 726 130 746 103 742 l 91 610 b 109 613 95 610 102 613 b 157 521 137 613 157 594 l 157 0 l 292 0 l 305 87 b 500 -14 349 23 412 -14 b 780 366 680 -14 780 145 z m 623 395 l 623 366 b 457 111 623 228 578 111 b 315 208 387 111 343 150 l 315 521 l 315 526 b 458 621 342 583 385 621 b 623 395 581 621 623 518 z "},"ã":{"ha":0,"x_min":0,"x_max":0,"o":""},"ɐ":{"ha":-5,"x_min":0,"x_max":0,"o":"m 87 247 b 376 -9 87 34 259 -9 b 677 201 549 -9 663 79 l 533 201 b 381 107 518 146 467 107 b 232 239 282 107 232 156 l 232 297 b 425 308 265 298 376 304 b 700 529 557 317 700 361 b 452 753 700 673 591 753 b 233 636 330 753 262 692 l 228 636 l 228 736 l 87 736 z m 231 471 b 419 637 231 559 301 637 b 559 530 500 637 559 601 b 404 415 559 457 499 422 b 232 404 370 413 264 406 z "},"æ":{"ha":0,"x_min":0,"x_max":0,"o":""},"ǽ":{"ha":0,"x_min":0,"x_max":0,"o":""},"ǣ":{"ha":0,"x_min":0,"x_max":0,"o":""},"b":{"ha":71,"x_min":0,"x_max":0,"o":""},"ɤ":{"ha":184,"x_min":0,"x_max":0,"o":"m 54 646 l 142 551 b 218 601 164 579 190 601 b 376 437 275 601 304 557 b 388 416 380 429 384 422 b 381 404 385 412 383 408 b 281 141 338 327 281 225 b 471 -14 281 45 354 -14 b 661 141 589 -14 661 45 b 563 403 661 225 605 328 l 557 414 b 724 601 644 559 671 601 b 802 551 753 601 779 579 l 890 646 b 704 746 845 699 785 746 b 471 562 608 746 543 677 b 241 746 399 677 336 746 b 54 646 160 746 99 699 z m 430 148 b 471 264 430 174 444 213 b 511 148 498 208 511 172 b 471 107 511 129 502 107 b 430 148 439 107 430 129 z "},"ƀ":{"ha":71,"x_min":0,"x_max":0,"o":"m 100 0 l 279 0 l 279 149 l 378 149 l 378 0 l 465 0 l 465 -144 l 378 -144 "},"ḃ":{"ha":0,"x_min":0,"x_max":0,"o":""},"ḅ":{"ha":0,"x_min":0,"x_max":0,"o":""},"ɓ":{"ha":71,"x_min":0,"x_max":0,"o":"m 465 -15 l 635 -15 b 743 75 635 56 685 75 b 784 71 758 75 772 73 l 784 189 b 705 194 764 193 736 194 b 491 -15 591 194 491 134 l 491 -802 l 632 -802 l 632 -686 l 643 -686 b 856 -817 670 -735 722 -817 z m 823 -693 b 632 -433 701 -693 632 -587 b 823 -179 632 -279 700 -179 z "},"ḇ":{"ha":0,"x_min":0,"x_max":0,"o":""},"ƃ":{"ha":71,"x_min":0,"x_max":0,"o":"m 673 982 l 100 982 l 100 0 l 346 0 l 346 429 "},"ʘ":{"ha":0,"x_min":0,"x_max":0,"o":""},"c":{"ha":-7,"x_min":0,"x_max":0,"o":""},"ć":{"ha":0,"x_min":0,"x_max":0,"o":""},"č":{"ha":0,"x_min":0,"x_max":0,"o":""},"ç":{"ha":0,"x_min":0,"x_max":0,"o":""},"ḉ":{"ha":0,"x_min":0,"x_max":0,"o":""},"ĉ":{"ha":0,"x_min":0,"x_max":0,"o":""},"ɕ":{"ha":-9,"x_min":0,"x_max":0,"o":"m 397 -15 b 688 205 570 -15 688 75 b 491 372 688 305 618 372 b 213 259 384 372 291 323 b 198 369 203 292 198 328 b 397 625 198 526 278 625 b 559 498 490 625 544 567 l 700 498 b 396 746 685 647 563 746 b 53 368 187 746 53 590 b 103 153 53 285 71 212 b 5 37 65 111 33 70 l 103 -39 b 183 56 125 -12 153 22 b 397 -15 239 10 312 -15 z m 278 151 b 484 259 346 212 420 259 b 549 201 513 259 549 241 b 397 106 549 145 487 106 b 278 151 350 106 309 121 z "},"ċ":{"ha":0,"x_min":0,"x_max":0,"o":""},"ƈ":{"ha":64,"x_min":0,"x_max":0,"o":"m 703 498 l 703 598 b 803 696 703 673 743 696 b 844 692 818 696 833 694 l 844 802 b 772 810 823 808 796 810 b 582 697 686 810 614 770 b 563 652 613 697 563 634 b 183 711 563 581 342 711 b 571 929 397 711 571 823 b NaN NaN 571 1072 587 NaN z "},"ʗ":{"ha":-31,"x_min":0,"x_max":0,"o":"m 381 -167 b 210 66 241 -167 210 -45 l 210 388 b 380 621 210 499 243 621 b 528 479 469 621 522 556 l 674 479 b 381 746 670 633 556 746 b 54 388 161 746 54 582 l 54 66 b 381 -292 54 -129 160 -292 b 674 -45 540 -292 670 -180 l 528 -45 b 381 -167 522 -115 460 -167 z "},"d":{"ha":71,"x_min":0,"x_max":0,"o":""},"ď":{"ha":0,"x_min":0,"x_max":0,"o":""},"ḑ":{"ha":0,"x_min":0,"x_max":0,"o":""},"ḓ":{"ha":0,"x_min":0,"x_max":0,"o":""},"đ":{"ha":71,"x_min":0,"x_max":0,"o":""},"ḋ":{"ha":0,"x_min":0,"x_max":0,"o":""},"ḍ":{"ha":0,"x_min":0,"x_max":0,"o":""},"ƍ":{"ha":5,"x_min":0,"x_max":0,"o":"m 623 -247 l 623 -160 b 400 49 566 -96 472 -15 b 425 52 410 49 414 49 b 712 370 600 75 712 205 l 712 384 b 381 746 712 598 590 746 b 53 376 174 746 53 595 l 53 362 b 290 -15 53 216 151 102 b 415 -126 336 -52 399 -107 l 129 -126 l 129 -247 z m 556 376 l 556 362 b 373 140 556 243 502 140 b 323 146 353 140 338 141 b 208 362 263 184 208 260 l 208 376 b 381 621 208 517 258 621 b 556 376 509 621 556 514 z "},"ɗ":{"ha":0,"x_min":0,"x_max":0,"o":"l 75 0 l 75 363 l 862 363 b 975 452 862 439 918 452 b 1015 448 985 452 1002 452 l 1015 566 b 937 574 996 571 964 574 b 717 363 824 574 717 515 l 717 194 l 710 194 "},"ḏ":{"ha":0,"x_min":0,"x_max":0,"o":""},"ɖ":{"ha":59,"x_min":0,"x_max":0,"o":"m 798 -277 b 799 -250 827 -247 812 -250 b 692 -160 741 -250 692 -229 l 692 -92 l 693 -92 l 693 890 l 548 890 l 548 525 l 541 525 l 549 525 l 549 342 b 761 133 549 197 643 133 "},"ƌ":{"ha":71,"x_min":0,"x_max":0,"o":"m 156 982 l 156 863 l 585 863 l 585 617 l 578 617 l 589 617 l 589 502 l 730 502 l 730 1484 z m 589 871 b 396 610 589 716 519 610 z "},"ʤ":{"ha":535,"x_min":0,"x_max":0,"o":"m 720 0 l 720 612 l 1050 612 l 806 293 l 806 182 l 901 182 b 1111 0 1034 182 1111 102 b 918 -176 1111 -98 1038 -176 b 724 -56 812 -176 742 -123 l 585 -56 b 920 -292 616 -235 762 -292 b 1252 -3 1118 -292 1252 -183 b 964 290 1252 159 1152 273 l 1232 639 l 1230 736 l 720 736 l 720 982 l 576 982 l 576 631 l 568 631 b 365 746 543 674 491 746 b 56 366 189 746 56 606 b 363 -15 56 127 187 -15 b 568 102 490 -15 543 57 l 579 102 l 579 0 z m 198 369 b 395 623 198 515 262 623 b 585 369 524 623 585 518 b 395 109 585 218 522 109 b 198 369 263 109 198 220 z "},"ǳ":{"ha":682,"x_min":0,"x_max":0,"o":"m 388 -109 z "},"ʣ":{"ha":680,"x_min":0,"x_max":0,"o":"m 784 0 l 1375 0 l 1375 125 l 979 125 l 979 132 l 1362 632 l 1466 632 l 1466 0 l 1918 0 l 1918 -7 l 1520 -513 z m 1133 -503 b 909 -732 978 -503 909 -609 z "},"ǆ":{"ha":682,"x_min":0,"x_max":0,"o":"m 388 -109 "},"ʥ":{"ha":810,"x_min":0,"x_max":0,"o":"m 1122 0 l 1270 0 b 1550 225 1474 0 1550 132 b 1375 389 1550 321 1470 389 b 1061 125 1263 389 1183 296 l 974 125 l 974 -511 l 1427 -511 l 1034 -1019 l 1034 -1123 l 1217 -1123 l 1162 -1198 l 1265 -1264 z m 1518 -998 l 1454 -998 b 1607 -860 1520 -906 1556 -860 b 1666 -907 1637 -860 1664 -875 b 1518 -998 1664 -952 1617 -998 z m 640 -1015 b 416 -1244 486 -1015 416 -1120 z "},"ð":{"ha":17,"x_min":0,"x_max":0,"o":"m 627 932 l 601 1010 l 433 928 b 233 1042 369 975 301 1014 l 194 951 b 324 873 242 927 286 901 l 187 806 l 213 727 l 395 818 b 566 575 481 739 536 652 l 556 575 b 351 688 521 629 454 688 b 56 338 183 688 56 541 b 388 -15 56 132 184 -15 b 722 366 590 -15 722 129 b 500 869 722 576 628 746 z m 389 104 b 197 342 256 104 197 216 b 389 582 197 473 260 582 b 585 336 526 582 585 457 b 389 104 585 203 515 104 z "},"e":{"ha":0,"x_min":0,"x_max":0,"o":""},"é":{"ha":0,"x_min":0,"x_max":0,"o":""},"ĕ":{"ha":0,"x_min":0,"x_max":0,"o":""},"ě":{"ha":0,"x_min":0,"x_max":0,"o":""},"ḝ":{"ha":0,"x_min":0,"x_max":0,"o":""},"ê":{"ha":0,"x_min":0,"x_max":0,"o":""},"ế":{"ha":0,"x_min":0,"x_max":0,"o":""},"ḙ":{"ha":0,"x_min":0,"x_max":0,"o":""},"ệ":{"ha":0,"x_min":0,"x_max":0,"o":""},"ề":{"ha":0,"x_min":0,"x_max":0,"o":""},"ể":{"ha":0,"x_min":0,"x_max":0,"o":""},"ễ":{"ha":0,"x_min":0,"x_max":0,"o":""},"ȅ":{"ha":0,"x_min":0,"x_max":0,"o":""},"ë":{"ha":0,"x_min":0,"x_max":0,"o":""},"ė":{"ha":0,"x_min":0,"x_max":0,"o":""},"ẹ":{"ha":0,"x_min":0,"x_max":0,"o":""},"è":{"ha":0,"x_min":0,"x_max":0,"o":""},"ẻ":{"ha":0,"x_min":0,"x_max":0,"o":""},"ȇ":{"ha":0,"x_min":0,"x_max":0,"o":""},"ē":{"ha":0,"x_min":0,"x_max":0,"o":""},"ḗ":{"ha":0,"x_min":0,"x_max":0,"o":""},"ḕ":{"ha":0,"x_min":0,"x_max":0,"o":""},"ę":{"ha":20,"x_min":0,"x_max":0,"o":"m 433 -277 b 559 -185 481 -277 524 -237 b 762 1 664 -159 736 -91 l 615 1 b 455 -79 591 -44 538 -79 b 248 140 334 -79 252 1 l 771 140 l 771 192 b 444 562 771 458 612 562 b 319 602 237 562 345 420 "},"ɛ":{"ha":0,"x_min":0,"x_max":0,"o":""},"ɜ":{"ha":9,"x_min":0,"x_max":0,"o":"m 282 434 l 282 323 l 377 323 b 536 210 469 323 536 277 b 368 106 536 151 471 106 b 199 214 264 106 214 141 l 54 214 b 368 -14 66 72 194 -14 b 681 199 545 -14 681 71 b 529 370 681 267 645 340 b 667 530 635 399 667 469 b 369 746 667 667 545 746 b 66 532 199 746 81 666 l 212 532 b 372 628 225 591 282 628 b 525 526 467 628 525 585 b 377 434 525 469 473 434 z "},"ɞ":{"ha":-6,"x_min":0,"x_max":0,"o":"m 385 -14 b 693 199 562 -14 693 71 b 545 370 693 267 660 340 b 680 530 650 399 680 469 b 387 746 680 667 562 746 b 50 380 178 746 50 614 b 385 -14 50 127 179 -14 z m 191 380 b 395 628 191 544 264 628 b 536 526 483 628 536 585 b 395 433 536 469 490 433 l 323 433 l 323 323 l 395 323 b 547 210 488 323 547 277 b 389 107 547 151 487 107 b 191 380 259 107 191 205 z "},"ɝ":{"ha":241,"x_min":0,"x_max":0,"o":"m 283 434 l 283 323 l 378 323 b 537 210 471 323 537 277 b 369 106 537 151 472 106 b 201 214 266 106 216 141 l 56 214 b 369 -14 68 72 195 -14 b 682 199 547 -14 682 71 b 530 370 682 267 646 340 b 662 483 610 392 648 436 l 692 488 b 863 311 713 392 746 311 b 955 334 895 311 928 319 l 933 430 b 894 427 925 429 914 427 b 791 625 821 427 808 506 l 658 600 b 370 746 623 693 515 746 b 68 532 201 746 83 666 l 213 532 b 373 628 227 591 283 628 b 526 526 468 628 526 585 b 378 434 526 469 475 434 z "},"ʚ":{"ha":-5,"x_min":0,"x_max":0,"o":"m 368 -14 b 703 380 574 -14 703 127 b 366 746 703 614 576 746 b 73 530 193 746 73 667 b 209 370 73 469 103 400 b 60 199 94 340 60 267 b 368 -14 60 71 191 -14 z m 206 210 b 358 323 206 277 266 323 l 430 323 l 430 433 l 358 433 b 217 526 263 433 217 469 b 358 628 217 585 270 628 b 562 380 488 628 562 544 b 363 107 562 205 495 107 b 206 210 266 107 206 151 z "},"ɘ":{"ha":-31,"x_min":0,"x_max":0,"o":"m 338 -14 b 680 342 548 -14 680 133 l 680 369 b 350 746 680 591 553 746 b 49 385 161 746 49 612 l 49 317 l 522 317 b 328 111 513 191 444 111 b 146 201 260 111 194 140 l 58 123 b 338 -14 118 37 214 -14 z m 203 433 l 203 442 b 355 621 212 562 269 621 b 519 433 454 621 505 545 z "},"ʃ":{"ha":-154,"x_min":0,"x_max":0,"o":"m 224 781 l 224 -47 b 107 -164 224 -122 182 -164 b 45 -159 84 -164 61 -163 l 41 -281 b 129 -292 68 -288 99 -292 b 381 -47 285 -292 381 -206 "},"ʆ":{"ha":-32,"x_min":0,"x_max":0,"o":"m 484 -9 l 484 781 b 606 899 484 857 534 899 b 670 894 631 899 654 897 l 675 1016 b 586 1027 646 1023 614 1027 b 342 781 430 1027 342 941 l 342 65 b 250 77 313 73 283 77 b 49 -100 130 77 49 11 b 263 -279 49 -205 130 -279 b 468 -159 382 -279 441 -229 l 570 -256 l 651 -163 z m 195 -102 b 269 -39 195 -66 224 -39 b 342 -60 293 -39 317 -46 l 342 -92 b 260 -165 342 -136 313 -165 b 195 -102 222 -165 195 -141 z "},"ƪ":{"ha":5,"x_min":0,"x_max":0,"o":"m 71 788 b 312 547 71 655 179 547 b 399 563 342 547 372 553 l 399 -35 b 608 -279 399 -194 472 -279 b 693 -269 636 -279 670 -275 l 693 -146 b 644 -152 677 -149 659 -152 b 555 -35 586 -152 555 -119 l 555 788 b 312 1027 555 920 445 1027 b 71 788 178 1027 71 920 z m 313 685 b 212 789 255 685 212 719 b 313 892 212 857 255 892 b 411 789 368 892 411 857 b 313 685 412 719 368 685 z "},"ʅ":{"ha":-154,"x_min":0,"x_max":0,"o":"m 381 -47 l 381 502 b 129 746 381 661 285 746 b 41 734 100 746 69 742 l 45 613 b 107 618 61 617 84 618 b 225 502 182 618 225 576 l 225 -47 b 475 -292 225 -206 320 -292 b 567 -281 506 -292 537 -288 l 560 -159 b 496 -164 544 -163 521 -164 b 381 -47 425 -164 381 -123 z "},"ẽ":{"ha":0,"x_min":0,"x_max":0,"o":""},"ḛ":{"ha":0,"x_min":0,"x_max":0,"o":""},"ǝ":{"ha":0,"x_min":0,"x_max":0,"o":""},"ə":{"ha":0,"x_min":0,"x_max":0,"o":""},"ɚ":{"ha":253,"x_min":0,"x_max":0,"o":"m 334 727 b 57 591 190 727 103 659 l 144 513 b 326 602 184 567 244 602 b 506 476 415 602 478 551 l 46 381 l 46 340 b 353 -14 46 134 142 -14 b 677 355 532 -14 677 129 l 677 382 l 677 392 l 704 397 b 873 218 724 300 758 218 b 966 243 907 218 939 228 l 945 338 b 906 335 936 336 926 335 b 802 534 833 335 821 412 l 658 506 b 334 727 614 637 499 727 z m 201 279 l 201 296 l 521 361 l 521 355 b 354 111 521 209 460 111 b 201 279 241 111 201 195 z "},"ʒ":{"ha":0,"x_min":0,"x_max":0,"o":""},"ǯ":{"ha":0,"x_min":0,"x_max":0,"o":""},"ʓ":{"ha":112,"x_min":0,"x_max":0,"o":"m 125 736 l 125 609 l 541 609 l 541 602 l 304 330 l 304 217 l 406 217 b 602 47 522 217 602 144 b 594 -11 602 28 600 8 l 585 -4 b 302 109 521 45 426 109 b 81 -71 165 109 81 38 b 368 -279 81 -208 221 -279 b 635 -189 481 -279 571 -243 l 720 -256 l 792 -170 l 707 -100 b 743 43 730 -56 743 -6 b 465 320 743 191 633 302 l 465 328 l 732 632 l 732 736 z m 209 -71 b 308 -7 209 -33 245 -7 b 514 -94 393 -7 464 -53 l 530 -106 b 377 -155 495 -136 445 -155 b 209 -71 288 -155 209 -125 z "},"ƹ":{"ha":90,"x_min":0,"x_max":0,"o":"m 774 11 l 623 11 b 427 -130 614 -80 532 -130 b 229 37 315 -130 229 -72 b 457 217 229 134 297 217 l 547 217 l 547 330 l 309 601 l 309 609 l 727 609 l 727 736 l 115 736 l 115 628 l 378 328 l 378 320 b 77 31 195 308 77 184 b 429 -259 77 -138 225 -259 b 774 11 617 -259 765 -156 z "},"ƺ":{"ha":-31,"x_min":0,"x_max":0,"o":"m 91 736 l 91 612 l 442 612 l 217 415 l 217 320 l 347 320 b 471 245 434 320 471 293 b 326 144 471 189 434 165 b 56 -76 146 109 56 41 b 346 -293 56 -205 170 -293 b 648 -56 541 -293 647 -172 l 496 -56 b 339 -174 491 -146 415 -174 b 209 -85 260 -174 209 -142 b 357 23 209 -42 239 -3 b 625 240 514 57 625 110 b 429 431 625 334 551 409 l 671 644 l 671 736 z "},"f":{"ha":-276,"x_min":0,"x_max":0,"o":""},"ḟ":{"ha":0,"x_min":0,"x_max":0,"o":""},"ʩ":{"ha":0,"x_min":0,"x_max":0,"o":""},"ʪ":{"ha":128,"x_min":0,"x_max":0,"o":"m 667 193 b 526 106 667 141 621 106 b 190 221 454 106 320 127 l 190 982 l 45 982 l 45 0 l 190 0 l 190 71 b 526 -14 303 6 423 -14 b 822 203 707 -14 822 76 b 556 420 822 324 730 385 b 406 518 450 442 406 464 b 529 610 406 566 444 610 b 661 500 614 610 659 556 l 817 500 b 530 727 815 627 709 727 b 254 511 361 727 254 627 b 514 301 254 391 357 336 b 667 193 632 275 667 248 z "},"ʭ":{"ha":-63,"x_min":0,"x_max":0,"o":"m 620 384 l 77 384 l 77 0 l 193 0 l 193 292 l 503 292 l 503 0 l 620 0 z m 620 959 l 77 959 l 77 576 l 193 576 l 193 867 l 503 867 l 503 576 l 620 576 z "},"g":{"ha":59,"x_min":0,"x_max":0,"o":""},"ǵ":{"ha":0,"x_min":0,"x_max":0,"o":""},"ɣ":{"ha":58,"x_min":0,"x_max":0,"o":"m 408 -292 b 606 -125 533 -292 606 -233 b 571 7 606 -94 598 -46 l 488 168 l 774 736 l 621 736 l 410 323 l 197 736 l 43 736 l 332 172 l 245 4 b 205 -125 221 -41 205 -88 b 408 -292 206 -233 283 -292 z m 357 -123 b 411 16 357 -88 377 -47 b 458 -123 442 -47 458 -88 b 408 -171 458 -151 439 -171 b 357 -123 376 -171 357 -152 z "},"ǥ":{"ha":59,"x_min":0,"x_max":0,"o":"m 397 -292 b 730 -16 587 -292 730 -205 b 1222 -68 1072 -16 1222 83 b 1254 310 1222 244 1332 310 b 1148 NaN 1134 310 1148 NaN l 1002 NaN l 1002 NaN l 1148 NaN b 958 NaN 1135 NaN 1068 NaN z "},"ğ":{"ha":0,"x_min":0,"x_max":0,"o":""},"ǧ":{"ha":0,"x_min":0,"x_max":0,"o":""},"ĝ":{"ha":0,"x_min":0,"x_max":0,"o":""},"ģ":{"ha":0,"x_min":0,"x_max":0,"o":""},"ɡ":{"ha":59,"x_min":0,"x_max":0,"o":""},"ġ":{"ha":0,"x_min":0,"x_max":0,"o":""},"ɠ":{"ha":70,"x_min":0,"x_max":0,"o":"m 731 -16 l 731 787 b 838 876 731 857 780 876 b 879 872 853 876 863 875 l 879 990 b 800 996 860 994 833 996 b 589 787 686 996 589 935 b 503 894 502 787 503 704 b NaN 1225 503 1036 590 1225 b NaN 1417 NaN 1225 NaN 1350 b NaN 1165 NaN 1317 NaN 1165 b NaN NaN NaN 1165 NaN NaN z "},"ʡ":{"ha":-31,"x_min":0,"x_max":0,"o":"m 564 205 l 427 205 l 427 250 l 346 250 l 346 90 l 203 90 l 203 -22 l 346 -22 l 346 -115 l 506 -115 l 506 -22 l 643 -22 z "},"ƾ":{"ha":-31,"x_min":0,"x_max":0,"o":"m 507 193 b 373 104 507 141 458 104 b 221 225 304 104 225 134 l 69 225 b 373 -14 69 107 175 -14 b 662 203 547 -14 662 76 b 420 526 662 407 422 355 l 420 600 l 549 600 l 549 713 l 420 713 l 420 887 l 264 887 l 264 713 l 144 713 l 144 600 l 264 600 l 264 525 b 507 193 264 294 507 316 z "},"ʢ":{"ha":-31,"x_min":0,"x_max":0,"o":"m 298 0 l 453 0 l 453 84 l 595 84 l 595 183 l 453 183 l 453 366 l 357 366 b 210 597 238 380 210 494 l 210 639 b 380 871 210 749 243 871 b 528 728 469 871 522 807 l 674 728 b 381 996 670 884 556 996 b 54 639 161 996 54 833 l 54 597 b 298 248 54 429 134 284 l 298 183 l 155 183 l 155 84 l 298 84 z "},"ʖ":{"ha":-31,"x_min":0,"x_max":0,"o":"m 349 651 b 519 416 487 651 519 529 l 519 345 b 349 111 519 236 486 111 b 201 254 259 111 208 176 l 54 254 b 347 -14 60 99 175 -14 b 674 345 568 -14 674 151 l 674 416 b 433 766 674 583 595 728 l 433 982 l 275 982 l 275 651 z "},"ʕ":{"ha":-31,"x_min":0,"x_max":0,"o":"m 298 0 l 453 0 l 453 366 l 357 366 b 210 597 238 380 210 494 l 210 639 b 380 871 210 749 243 871 b 528 728 469 871 522 807 l 674 728 b 381 996 670 884 556 996 b 54 639 161 996 54 833 l 54 597 b 298 248 54 429 134 284 z "},"ḡ":{"ha":0,"x_min":0,"x_max":0,"o":""},"ȝ":{"ha":-31,"x_min":0,"x_max":0,"o":"m 142 240 l 142 125 b 463 248 273 153 381 195 b 496 127 484 220 496 178 b 142 -168 496 -20 399 -103 l 142 -288 b 652 119 483 -235 652 -99 b 556 324 652 213 619 283 b 639 521 610 382 639 449 b 369 746 639 662 538 746 b 77 511 190 746 77 656 l 233 511 b 365 625 232 581 283 625 b 483 510 442 625 483 586 b 142 240 483 391 369 300 z "},"h":{"ha":39,"x_min":0,"x_max":0,"o":""},"ħ":{"ha":0,"x_min":0,"x_max":0,"o":""},"ḫ":{"ha":0,"x_min":0,"x_max":0,"o":""},"ḩ":{"ha":0,"x_min":0,"x_max":0,"o":"l 39 0 l 39 233 l 71 233 l 71 252 "},"ĥ":{"ha":0,"x_min":0,"x_max":0,"o":""},"ḧ":{"ha":0,"x_min":0,"x_max":0,"o":""},"ḣ":{"ha":0,"x_min":0,"x_max":0,"o":""},"ḥ":{"ha":0,"x_min":0,"x_max":0,"o":""},"ɧ":{"ha":33,"x_min":0,"x_max":0,"o":"m 559 0 l 559 -68 b 453 -157 559 -137 511 -157 b 412 -153 438 -157 423 -155 l 412 -270 b 491 -277 431 -275 460 -277 b 704 -68 609 -277 704 -213 l 772 -68 l 772 -66 l 770 -66 l 770 -16 z "},"ɦ":{"ha":33,"x_min":0,"x_max":0,"o":"m 228 736 l 228 787 l 372 787 z "},"ẖ":{"ha":0,"x_min":0,"x_max":0,"o":""},"ɥ":{"ha":39,"x_min":0,"x_max":0,"o":"m 564 300 b 388 115 564 182 490 115 b 232 286 290 115 232 178 l 232 736 l 87 736 l 87 269 b 339 -9 87 84 187 -9 b 557 121 454 -9 522 41 l 567 121 l 567 -245 l 709 -245 l 709 736 l 564 736 z "},"ʯ":{"ha":0,"x_min":0,"x_max":0,"o":"l 162 0 l 162 -189 b 374 -397 162 -334 254 -397 b 452 -391 405 -397 432 -396 l 452 -274 b 412 -278 441 -275 425 -278 b 304 -189 353 -278 304 -258 l 304 616 l 159 616 l 159 179 "},"ʮ":{"ha":0,"x_min":0,"x_max":0,"o":"l 140 0 l 140 -397 l 283 -397 l 283 616 l 138 616 l 138 179 "},"ƕ":{"ha":520,"x_min":0,"x_max":0,"o":"m 88 0 l 233 0 l 233 437 l 233 277 b 496 -27 233 72 343 -27 b 859 629 716 -27 859 172 l 859 723 l 713 723 l 713 629 b 505 96 713 247 623 96 b 378 277 450 96 378 129 l 556 277 l 556 643 l 414 643 z "},"i":{"ha":-437,"x_min":0,"x_max":0,"o":""},"ı":{"ha":-437,"x_min":0,"x_max":0,"o":""},"í":{"ha":0,"x_min":0,"x_max":0,"o":""},"ɨ":{"ha":0,"x_min":0,"x_max":0,"o":""},"ĭ":{"ha":0,"x_min":0,"x_max":0,"o":""},"ǐ":{"ha":0,"x_min":0,"x_max":0,"o":""},"î":{"ha":0,"x_min":0,"x_max":0,"o":""},"ȉ":{"ha":0,"x_min":0,"x_max":0,"o":""},"ï":{"ha":0,"x_min":0,"x_max":0,"o":""},"ḯ":{"ha":0,"x_min":0,"x_max":0,"o":""},"ị":{"ha":0,"x_min":0,"x_max":0,"o":""},"ì":{"ha":0,"x_min":0,"x_max":0,"o":""},"ỉ":{"ha":0,"x_min":0,"x_max":0,"o":""},"ȋ":{"ha":0,"x_min":0,"x_max":0,"o":""},"ī":{"ha":0,"x_min":0,"x_max":0,"o":""},"į":{"ha":-437,"x_min":0,"x_max":0,"o":"m 137 -283 l 137 -1006 b 46 -1176 68 -1056 42 -1117 "},"ĩ":{"ha":-394,"x_min":0,"x_max":0,"o":"m 111 0 "},"ḭ":{"ha":0,"x_min":0,"x_max":0,"o":""},"ĳ":{"ha":0,"x_min":0,"x_max":0,"o":""},"j":{"ha":0,"x_min":0,"x_max":0,"o":""},"ȷ":{"ha":-437,"x_min":0,"x_max":0,"o":""},"ǰ":{"ha":0,"x_min":0,"x_max":0,"o":""},"ĵ":{"ha":0,"x_min":0,"x_max":0,"o":""},"ʝ":{"ha":-250,"x_min":0,"x_max":0,"o":"m 194 -279 b 408 -54 343 -279 408 -170 l 408 -39 l 563 -39 l 563 79 l 410 79 l 410 736 l 264 736 l 264 163 l 263 163 l 263 79 l 193 79 b -15 -102 72 79 -15 8 b 194 -279 -15 -202 60 -279 "},"ɟ":{"ha":0,"x_min":0,"x_max":0,"o":""},"ʄ":{"ha":-154,"x_min":0,"x_max":0,"o":"m 224 781 l 224 115 l 81 115 l 81 16 l 224 16 l 224 -47 b 107 -164 224 -122 182 -164 b 45 -159 84 -164 61 -163 l 41 -281 b 129 -292 68 -288 99 -292 b 381 -47 285 -292 381 -206 "},"k":{"ha":-22,"x_min":0,"x_max":0,"o":""},"ḱ":{"ha":0,"x_min":0,"x_max":0,"o":""},"ǩ":{"ha":0,"x_min":0,"x_max":0,"o":""},"ķ":{"ha":0,"x_min":0,"x_max":0,"o":""},"ḳ":{"ha":0,"x_min":0,"x_max":0,"o":""},"ĸ":{"ha":0,"x_min":0,"x_max":0,"o":""},"ƙ":{"ha":-35,"x_min":0,"x_max":0,"o":"m 552 0 l 719 0 l 407 422 l 693 736 l 515 736 l 243 430 l 233 430 l 233 787 b 339 876 233 857 281 876 b 380 872 354 876 368 875 l 380 990 b 301 996 361 994 331 996 b 88 787 189 996 88 935 l 88 0 l 233 0 l 233 228 l 315 317 z "},"ḵ":{"ha":0,"x_min":0,"x_max":0,"o":""},"ʞ":{"ha":-22,"x_min":0,"x_max":0,"o":"m 648 736 l 503 736 l 503 475 l 434 406 l 183 736 l 5 736 l 324 316 l 26 0 l 199 0 l 491 311 l 503 311 l 503 -245 l 648 -245 z "},"l":{"ha":-437,"x_min":0,"x_max":0,"o":""},"ĺ":{"ha":0,"x_min":0,"x_max":0,"o":""},"ƛ":{"ha":94,"x_min":0,"x_max":0,"o":"m 479 929 l 401 902 b 233 1002 372 966 326 1002 b 151 993 210 1002 168 998 l 153 875 b 186 876 163 876 178 876 b 251 848 212 876 233 868 l 123 802 l 123 684 l 297 746 l 323 685 l 64 0 l 235 0 l 404 475 l 536 126 b 718 -12 579 16 627 -12 b 777 -5 742 -12 764 -9 l 774 118 l 751 118 b 686 179 720 118 701 138 l 444 798 l 479 810 z "},"ƚ":{"ha":-437,"x_min":0,"x_max":0,"o":"m 233 982 l 88 982 l 88 557 l -370 557 l -370 703 l 88 703 l 88 850 l 187 850 l 187 703 z "},"ɬ":{"ha":-170,"x_min":0,"x_max":0,"o":"m 224 384 l 297 384 l 297 0 l 442 0 l 442 384 l 585 384 l 585 500 l 442 500 l 442 982 l 297 982 l 297 738 b 229 746 277 743 254 746 b 19 563 95 746 19 665 b 224 384 19 454 104 384 z m 157 564 b 227 631 157 601 187 631 b 297 553 275 631 297 597 l 297 500 l 232 500 b 157 564 187 500 157 530 z "},"ľ":{"ha":0,"x_min":0,"x_max":0,"o":""},"ḽ":{"ha":0,"x_min":0,"x_max":0,"o":""},"ļ":{"ha":0,"x_min":0,"x_max":0,"o":""},"ȴ":{"ha":-276,"x_min":0,"x_max":0,"o":"m 85 982 l 85 -8 b 60 -30 77 -16 68 -22 l -75 -161 l 7 -250 l 107 -152 b 312 -277 141 -226 213 -277 b 514 -94 435 -277 513 -197 b 324 85 513 11 434 85 b 231 69 294 85 263 79 l 231 982 z m 231 -84 l 231 -50 b 308 -30 254 -37 279 -30 b 380 -95 351 -30 380 -57 b 313 -164 380 -134 353 -164 b 231 -84 266 -164 231 -129 z "},"ŀ":{"ha":0,"x_min":0,"x_max":0,"o":""},"ḷ":{"ha":0,"x_min":0,"x_max":0,"o":""},"ḹ":{"ha":0,"x_min":0,"x_max":0,"o":""},"ǉ":{"ha":0,"x_min":0,"x_max":0,"o":""},"ḻ":{"ha":0,"x_min":0,"x_max":0,"o":""},"ɫ":{"ha":-349,"x_min":0,"x_max":0,"o":"m 281 982 l 136 982 l 136 587 b 109 590 127 589 118 590 b -50 415 20 590 -50 521 b -44 428 -50 422 -43 422 l -44 -55 l 101 -55 l 101 367 b 121 366 107 366 114 366 b 279 538 210 366 279 431 l 178 543 b 113 470 179 501 152 470 b 101 471 109 470 105 470 z "},"ɭ":{"ha":-387,"x_min":0,"x_max":0,"o":"m 233 -68 l 233 0 l 235 0 l 235 982 l 90 982 l 90 0 l 88 0 l 88 -68 b 301 -277 88 -213 182 -277 b 380 -270 334 -277 361 -275 z "},"ł":{"ha":-439,"x_min":0,"x_max":0,"o":"m 332 623 l 233 587 l 233 982 l 88 982 l 88 536 l -14 499 l -14 406 l 88 442 l 88 0 l 233 0 l 233 494 l 332 529 z "},"ɮ":{"ha":116,"x_min":0,"x_max":0,"o":"m 100 982 l 100 11 l 240 11 l 240 609 l 602 609 l 602 602 l 365 330 l 365 217 l 467 217 b 665 30 586 217 665 148 b 469 -164 665 -90 585 -164 b 313 -104 404 -164 350 -142 l 208 -203 b 468 -293 270 -259 361 -293 b 815 24 671 -293 815 -167 b 526 320 817 189 709 300 l 526 328 l 793 632 l 793 736 l 240 736 l 240 982 z "},"m":{"ha":420,"x_min":0,"x_max":0,"o":""},"ḿ":{"ha":0,"x_min":0,"x_max":0,"o":""},"ṁ":{"ha":0,"x_min":0,"x_max":0,"o":""},"ṃ":{"ha":0,"x_min":0,"x_max":0,"o":""},"ɱ":{"ha":420,"x_min":0,"x_max":0,"o":"m 945 0 l 945 -68 b 840 -157 945 -137 898 -157 b 799 -153 825 -157 811 -155 l 799 -270 b 878 -277 819 -275 846 -277 b 1090 -68 996 -277 1090 -213 l 1090 0 l 1092 0 l 1092 494 b 864 746 1092 662 997 746 b 643 616 757 746 678 696 l 635 616 b 437 746 604 697 534 746 b 236 616 339 746 267 699 l 228 616 l 228 736 l 88 736 l 88 0 l 233 0 l 233 454 b 384 621 233 553 302 621 b 518 488 463 621 518 568 l 518 0 l 662 0 l 662 469 b 808 621 662 557 715 621 b 947 480 884 621 947 579 l 947 0 z "},"ɯ":{"ha":420,"x_min":0,"x_max":0,"o":"m 1090 736 l 970 736 l 970 876 z "},"ɰ":{"ha":420,"x_min":0,"x_max":0,"o":"m 951 -277 l 1089 -277 l 1089 0 l 1090 0 l 1090 736 z "},"n":{"ha":33,"x_min":0,"x_max":0,"o":""},"ń":{"ha":0,"x_min":0,"x_max":0,"o":""},"ň":{"ha":0,"x_min":0,"x_max":0,"o":""},"ṋ":{"ha":0,"x_min":0,"x_max":0,"o":""},"ņ":{"ha":0,"x_min":0,"x_max":0,"o":""},"ȵ":{"ha":271,"x_min":0,"x_max":0,"o":"m 233 437 l 233 83 b 213 61 227 75 220 68 l 77 -80 l 160 -161 l 248 -68 b 449 -193 277 -140 345 -193 b 661 -9 579 -193 661 -118 b 467 172 661 99 576 172 b 377 163 436 172 406 170 l 669 163 z m 1139 174 l 1139 220 b 1214 239 1164 232 1190 239 b 1289 171 1257 239 1289 213 b 1219 99 1289 129 1261 99 b 1139 174 1176 99 1139 132 z "},"ṅ":{"ha":0,"x_min":0,"x_max":0,"o":""},"ṇ":{"ha":0,"x_min":0,"x_max":0,"o":""},"ǌ":{"ha":0,"x_min":0,"x_max":0,"o":""},"ƞ":{"ha":33,"x_min":0,"x_max":0,"o":""},"ɲ":{"ha":64,"x_min":0,"x_max":0,"o":"m 119 736 l 119 -65 b 19 -157 119 -134 79 -157 b -26 -152 3 -157 -14 -155 l -31 -273 b 47 -279 -8 -279 20 -279 b 264 -65 172 -279 264 -205 l 264 437 z "},"ṉ":{"ha":0,"x_min":0,"x_max":0,"o":""},"ɳ":{"ha":39,"x_min":0,"x_max":0,"o":"m 704 -68 l 704 468 l 254 468 l 254 467 l 186 467 b 399 258 186 321 281 258 b 479 264 431 258 457 259 l 479 381 b 437 377 461 378 452 377 b 331 467 378 377 331 397 z "},"ñ":{"ha":0,"x_min":0,"x_max":0,"o":""},"ŋ":{"ha":0,"x_min":0,"x_max":0,"o":""},"o":{"ha":39,"x_min":0,"x_max":0,"o":""},"ó":{"ha":0,"x_min":0,"x_max":0,"o":""},"ɵ":{"ha":0,"x_min":0,"x_max":0,"o":""},"ŏ":{"ha":0,"x_min":0,"x_max":0,"o":""},"ǒ":{"ha":0,"x_min":0,"x_max":0,"o":""},"ô":{"ha":0,"x_min":0,"x_max":0,"o":""},"ố":{"ha":0,"x_min":0,"x_max":0,"o":""},"ộ":{"ha":0,"x_min":0,"x_max":0,"o":""},"ồ":{"ha":0,"x_min":0,"x_max":0,"o":""},"ổ":{"ha":0,"x_min":0,"x_max":0,"o":""},"ỗ":{"ha":0,"x_min":0,"x_max":0,"o":""},"ȍ":{"ha":0,"x_min":0,"x_max":0,"o":""},"ö":{"ha":0,"x_min":0,"x_max":0,"o":""},"ọ":{"ha":0,"x_min":0,"x_max":0,"o":""},"ò":{"ha":0,"x_min":0,"x_max":0,"o":""},"ỏ":{"ha":0,"x_min":0,"x_max":0,"o":""},"ơ":{"ha":48,"x_min":0,"x_max":0,"o":""},"ớ":{"ha":0,"x_min":0,"x_max":0,"o":""},"ợ":{"ha":0,"x_min":0,"x_max":0,"o":""},"ờ":{"ha":0,"x_min":0,"x_max":0,"o":""},"ở":{"ha":0,"x_min":0,"x_max":0,"o":""},"ỡ":{"ha":0,"x_min":0,"x_max":0,"o":""},"ő":{"ha":0,"x_min":0,"x_max":0,"o":""},"ƣ":{"ha":128,"x_min":0,"x_max":0,"o":"m 366 111 b 197 345 254 111 195 202 l 197 369 b 362 621 197 502 229 621 b 460 587 404 621 435 609 l 460 141 b 366 111 435 122 406 111 z m 848 736 l 732 736 l 581 663 b 368 746 531 711 458 746 b 41 369 146 746 41 582 l 41 345 b 362 -14 39 151 151 -14 b 616 106 486 -14 564 37 l 616 507 l 692 547 l 692 -277 l 848 -277 z "},"ȏ":{"ha":39,"x_min":0,"x_max":0,"o":""},"ō":{"ha":0,"x_min":0,"x_max":0,"o":""},"ṓ":{"ha":0,"x_min":0,"x_max":0,"o":""},"ṑ":{"ha":0,"x_min":0,"x_max":0,"o":""},"ɷ":{"ha":376,"x_min":0,"x_max":0,"o":"m 568 621 b 902 327 819 621 902 491 b 774 111 902 218 869 111 b 647 316 705 111 647 167 l 647 442 l 488 442 l 488 316 b 361 111 488 167 430 111 b 233 327 266 111 233 218 b 568 621 233 491 316 621 z m 568 746 b 77 326 228 746 77 551 b 349 -14 77 164 149 -14 b 568 136 454 -14 529 39 b 787 -14 606 39 681 -14 b 1058 326 986 -14 1058 164 b 568 746 1058 551 909 746 z "},"ǫ":{"ha":39,"x_min":0,"x_max":0,"o":""},"ǭ":{"ha":0,"x_min":0,"x_max":0,"o":""},"ɔ":{"ha":0,"x_min":0,"x_max":0,"o":""},"ø":{"ha":0,"x_min":0,"x_max":0,"o":""},"ǿ":{"ha":0,"x_min":0,"x_max":0,"o":""},"õ":{"ha":0,"x_min":0,"x_max":0,"o":""},"ṍ":{"ha":0,"x_min":0,"x_max":0,"o":""},"ṏ":{"ha":0,"x_min":0,"x_max":0,"o":""},"œ":{"ha":557,"x_min":0,"x_max":0,"o":"m 401 -15 b 673 117 519 -15 613 33 b 952 -15 733 33 829 -15 b 1260 184 1114 -15 1227 65 b 1083 -40 1260 69 1166 20 b 810 93 1023 44 928 93 "},"p":{"ha":59,"x_min":0,"x_max":0,"o":""},"ṕ":{"ha":0,"x_min":0,"x_max":0,"o":""},"ṗ":{"ha":0,"x_min":0,"x_max":0,"o":""},"ɸ":{"ha":131,"x_min":0,"x_max":0,"o":"m 92 374 l 92 358 b 368 -7 91 155 200 24 l 368 -260 l 522 -260 l 522 -7 b 798 358 694 23 798 156 l 798 374 b 522 739 798 576 694 709 l 522 982 l 368 982 l 368 739 b 92 374 197 709 92 576 z m 248 358 l 248 374 b 368 606 248 491 292 574 l 368 126 b 248 358 292 158 248 240 z m 522 126 l 522 606 b 642 374 599 574 642 490 l 642 358 b 522 126 642 241 597 158 z "},"ƥ":{"ha":60,"x_min":0,"x_max":0,"o":"m 88 736 l 90 736 l 90 -277 l 88 -277 b 186 -206 88 -231 123 -206 b 233 -213 203 -208 221 -210 l 233 -102 b 153 -95 220 -99 190 -95 b -53 -277 20 -95 -53 -155 z m 91 -644 b -103 -905 91 -792 24 -905 b -294 -644 -227 -905 -294 -799 z "},"þ":{"ha":0,"x_min":0,"x_max":0,"o":""},"q":{"ha":0,"x_min":0,"x_max":0,"o":""},"ʠ":{"ha":143,"x_min":0,"x_max":0,"o":"m 589 736 l 589 617 l 578 617 l 585 617 l 585 225 l 730 225 l 730 1238 b 827 1309 730 1284 765 1309 b 873 1302 844 1308 863 1305 l 873 1413 b 796 1420 861 1416 831 1420 b 589 1238 662 1420 589 1360 z m 589 871 b 396 610 589 716 519 610 z "},"ɋ":{"ha":111,"x_min":0,"x_max":0,"o":"m 798 -277 b 798 -248 827 -245 812 -248 b 692 -159 741 -248 692 -228 l 692 646 l 551 646 l 551 526 l 540 526 l 547 526 l 547 343 b 760 134 547 198 642 134 "},"r":{"ha":-254,"x_min":0,"x_max":0,"o":""},"ŕ":{"ha":0,"x_min":0,"x_max":0,"o":""},"ř":{"ha":0,"x_min":0,"x_max":0,"o":""},"ŗ":{"ha":0,"x_min":0,"x_max":0,"o":""},"ȑ":{"ha":0,"x_min":0,"x_max":0,"o":""},"ṙ":{"ha":0,"x_min":0,"x_max":0,"o":""},"ṛ":{"ha":0,"x_min":0,"x_max":0,"o":""},"ṝ":{"ha":0,"x_min":0,"x_max":0,"o":""},"ɾ":{"ha":-330,"x_min":0,"x_max":0,"o":"m 229 0 l 229 533 b 347 628 229 608 288 628 b 388 624 361 628 374 627 l 388 736 b 308 746 368 742 335 746 b 87 540 195 746 87 688 l 87 0 z "},"ɿ":{"ha":-334,"x_min":0,"x_max":0,"o":"m 338 -275 l 338 540 b 115 746 338 688 229 746 b 35 736 88 746 57 742 l 35 624 b 77 628 49 627 64 628 b 194 533 137 628 194 608 l 194 -275 z "},"ȓ":{"ha":0,"x_min":0,"x_max":0,"o":""},"ṟ":{"ha":0,"x_min":0,"x_max":0,"o":""},"ɹ":{"ha":-254,"x_min":0,"x_max":0,"o":"m 416 736 l 271 736 l 271 288 l 411 288 z "},"ɺ":{"ha":-279,"x_min":0,"x_max":0,"o":"m 54 142 l 53 -4 b 111 -14 65 -8 92 -14 b 274 79 184 -14 238 22 l 278 0 l 427 0 l 427 1013 l 271 1013 l 271 221 b 119 136 246 168 197 136 b 54 142 98 136 76 138 z "},"ɻ":{"ha":-216,"x_min":0,"x_max":0,"o":"m 487 -288 b 567 -279 515 -288 544 -285 l 567 -175 b 525 -179 555 -179 537 -179 b 415 -77 453 -179 415 -145 l 415 0 l 416 0 l 416 736 l 271 736 l 271 288 l 270 288 l 270 206 b 481 0 270 61 363 0 z "},"s":{"ha":-51,"x_min":0,"x_max":0,"o":""},"ś":{"ha":0,"x_min":0,"x_max":0,"o":""},"ṥ":{"ha":0,"x_min":0,"x_max":0,"o":""},"š":{"ha":0,"x_min":0,"x_max":0,"o":""},"ṧ":{"ha":0,"x_min":0,"x_max":0,"o":""},"ş":{"ha":0,"x_min":0,"x_max":0,"o":"l -51 16 l -175 104 l -252 254 l -264 236 l -342 259 b -89 484 -183 273 -90 363 b -291 684 -90 589 -155 654 l -408 711 b -523 804 -489 730 -524 761 b -382 903 -524 860 -465 903 b -242 807 -302 903 -256 865 "},"ŝ":{"ha":0,"x_min":0,"x_max":0,"o":""},"ș":{"ha":0,"x_min":0,"x_max":0,"o":""},"ṡ":{"ha":0,"x_min":0,"x_max":0,"o":""},"ṣ":{"ha":0,"x_min":0,"x_max":0,"o":""},"ṩ":{"ha":0,"x_min":0,"x_max":0,"o":""},"ß":{"ha":71,"x_min":0,"x_max":0,"o":"m 100 728 l 100 0 l 244 0 l 244 718 b 406 867 244 807 312 867 b 564 716 505 867 564 802 b 422 562 564 635 509 562 l 363 562 l 363 435 l 446 435 b 625 278 556 435 625 370 b 465 127 625 189 563 127 l 361 127 l 361 0 l 475 0 b 772 270 652 0 770 109 b 560 513 772 408 685 500 l 560 522 b 711 738 651 552 711 629 b 403 996 711 902 575 996 b 100 728 222 996 100 894 z "},"ẛ":{"ha":0,"x_min":0,"x_max":0,"o":""},"ẜ":{"ha":-302,"x_min":0,"x_max":0,"o":"m 22 475 l 110 507 l 110 0 l 255 0 l 255 560 l 381 606 l 381 736 l 255 692 l 255 800 l 72 800 l -16 768 z "},"ʂ":{"ha":-51,"x_min":0,"x_max":0,"o":"m 54 190 l 54 -27 b 260 -233 54 -160 141 -233 b 332 -227 285 -233 312 -232 l 332 -115 b 292 -119 320 -118 304 -119 b 172 -23 229 -119 172 -98 l 172 24 b 281 59 146 72 208 58 b 270 NaN 277 59 273 60 z "},"ſ":{"ha":-307,"x_min":0,"x_max":0,"o":"m 245 0 l 245 783 b 357 903 245 859 283 903 b 416 897 381 903 399 901 l 431 1013 b 332 1027 399 1021 365 1027 b 88 783 180 1027 88 941 l 88 0 z "},"t":{"ha":-273,"x_min":0,"x_max":0,"o":""},"ŧ":{"ha":-273,"x_min":0,"x_max":0,"o":"m 30 392 l 30 500 l -175 500 l -175 675 l -24 675 l -24 766 l -175 766 l -175 905 l -24 905 l -24 1020 l -175 1020 l -175 1196 l -319 1196 l -319 1058 l -427 1058 z "},"ť":{"ha":0,"x_min":0,"x_max":0,"o":""},"ʨ":{"ha":0,"x_min":0,"x_max":0,"o":"l 359 0 l 359 -420 b 565 -631 359 -562 443 -631 b 764 -563 641 -630 707 -603 b 981 -636 821 -610 894 -636 b 1270 -411 1148 -636 1270 -540 b 1080 -244 1270 -313 1204 -244 b 800 -368 975 -244 888 -291 b 783 -252 789 -334 783 -296 b 981 4 783 -95 862 4 b 1143 -123 1072 4 1128 -54 l 1284 -123 b 1418 -145 1433 -123 1418 -244 b 1265 -297 1418 -315 1337 -297 b 1239 NaN 1298 -297 1239 NaN b 1131 NaN 1201 NaN 1164 NaN b 1056 NaN 1091 NaN 1056 NaN l 1056 NaN l 1206 NaN m 1419 NaN b 1619 NaN 1487 NaN 1548 NaN b 1688 NaN 1669 NaN 1688 NaN b 1544 NaN 1688 NaN 1622 NaN b 1419 NaN 1495 NaN 1453 NaN z "},"ţ":{"ha":0,"x_min":0,"x_max":0,"o":"b -128 -187 -273 -105 -211 -166 l -149 -278 l -143 -252 b -74 -247 -115 -252 -91 -249 l -74 157 l 77 157 "},"ṱ":{"ha":-273,"x_min":0,"x_max":0,"o":"m -56 -892 l 76 -892 l 76 -886 l -94 -682 l -214 -682 l -382 -886 l -382 -892 l -252 -892 l -153 -765 z "},"ț":{"ha":0,"x_min":0,"x_max":0,"o":""},"ȶ":{"ha":-102,"x_min":0,"x_max":0,"o":"m 182 913 l 182 536 b 30 388 136 497 87 448 l 109 300 b 202 395 143 336 174 368 b 403 277 235 323 304 277 b 613 464 543 277 613 362 b 420 639 613 563 544 639 b 327 624 388 639 357 633 l 327 913 l 477 913 l 477 1028 l 327 1028 l 327 1204 z m 327 463 l 327 495 b 403 522 358 514 382 522 b 480 458 460 522 480 492 b 408 389 480 412 446 389 b 327 463 362 389 327 422 z "},"ẗ":{"ha":0,"x_min":0,"x_max":0,"o":""},"ṫ":{"ha":0,"x_min":0,"x_max":0,"o":""},"ṭ":{"ha":0,"x_min":0,"x_max":0,"o":""},"ʧ":{"ha":48,"x_min":0,"x_max":0,"o":"m 152 887 l 152 713 l 31 713 l 31 600 l 152 600 l 152 208 b 340 -14 152 73 195 -14 b 461 1 386 -14 429 -6 l 461 -31 b 346 -149 461 -107 419 -149 b 282 -144 321 -149 298 -146 l 278 -266 b 366 -277 305 -271 336 -277 b 617 -31 522 -277 617 -190 l 617 783 b 734 899 617 859 662 899 b 798 894 758 899 781 898 l 803 1016 b 713 1027 774 1021 743 1027 b 461 783 557 1027 461 941 l 461 713 l 308 713 l 308 887 z m 308 208 l 308 600 l 461 600 l 461 125 b 384 117 438 120 408 117 b 308 208 327 117 308 137 z "},"ƭ":{"ha":-245,"x_min":0,"x_max":0,"o":"m 323 713 l 323 819 b 427 920 323 895 370 920 b 469 913 441 920 457 917 l 469 1017 b 389 1027 446 1023 418 1027 b 167 819 270 1027 167 966 l 167 713 l 46 713 l 46 600 l 167 600 l 167 199 b 198 138 15 199 94 138 b 258 125 244 138 279 125 b NaN NaN 254 125 232 NaN b NaN NaN NaN NaN NaN NaN l NaN NaN l NaN NaN l NaN NaN z "},"ṯ":{"ha":0,"x_min":0,"x_max":0,"o":""},"ƽ":{"ha":5,"x_min":0,"x_max":0,"o":"m 279 309 b 407 365 301 339 338 365 b 544 240 496 365 544 315 b 406 115 544 167 502 115 b 266 216 323 115 267 153 l 114 205 b 406 -11 114 57 267 -11 b 699 236 614 -11 699 96 b 442 480 699 392 604 483 b 301 442 388 477 330 461 l 320 585 l 658 585 l 658 713 l 64 713 l 64 585 l 175 585 l 141 317 z "},"ƅ":{"ha":260,"x_min":0,"x_max":0,"o":"m 290 0 l 655 0 l 655 -382 l 526 -382 l 526 -144 "},"ƨ":{"ha":-51,"x_min":0,"x_max":0,"o":"m 66 536 l 206 536 b 346 632 220 594 266 632 b 487 533 429 632 488 589 b 372 439 488 490 453 458 l 255 412 b 53 213 119 382 54 317 b 354 -15 54 80 165 -15 b 654 201 530 -15 636 64 l 506 201 b 355 102 494 134 442 102 b 201 202 262 102 202 140 b 315 298 202 250 237 281 l 430 323 b 632 525 563 353 632 423 b 347 746 632 656 518 746 b 66 536 183 746 81 662 z "},"ƫ":{"ha":0,"x_min":0,"x_max":0,"o":"b -75 -195 -265 -124 -178 -186 l -75 -255 b -185 -350 -75 -330 -128 -350 b -227 -346 -201 -350 -216 -349 l -227 -456 b -155 -463 -207 -463 -181 -463 b 48 -255 -37 -463 48 -388 l 48 -54 l -18 -69 l -32 -69 b -120 30 -78 -68 -120 -53 l -120 434 l 31 434 "},"ʈ":{"ha":0,"x_min":0,"x_max":0,"o":"l -269 0 l -269 -712 b -54 -910 -269 -846 -168 -911 b 40 -894 -7 -907 22 -899 l 14 -774 b -36 -780 5 -776 -13 -780 b -124 -684 -83 -780 -124 -765 l -124 0 l 26 0 "},"ʦ":{"ha":252,"x_min":0,"x_max":0,"o":"m 163 887 l 163 736 l 41 736 l 41 623 l 163 623 l 163 221 b 346 0 163 60 244 0 l 681 0 b 970 206 854 0 970 76 b 703 420 970 323 883 382 b 555 526 606 441 555 461 b 677 629 555 585 597 629 b 807 500 766 629 807 572 l 964 500 b 678 746 964 646 854 746 b 591 736 647 746 618 743 l 320 736 l 320 887 z m 815 202 b 682 129 815 148 769 129 l 395 129 b 320 221 350 129 319 151 l 320 623 l 429 623 b 401 521 410 592 401 557 b 665 301 401 396 499 334 b 815 202 785 277 815 240 z "},"ʇ":{"ha":-273,"x_min":0,"x_max":0,"o":"m 53 0 l 203 0 l 203 -176 l 347 -176 l 347 0 l 456 0 l 456 115 l 347 115 l 347 549 b 133 746 349 684 247 746 b 42 741 94 746 62 743 l 42 614 b 115 618 62 616 95 618 b 203 519 161 617 203 602 l 203 115 l 53 115 z "},"u":{"ha":29,"x_min":0,"x_max":0,"o":""},"ú":{"ha":0,"x_min":0,"x_max":0,"o":""},"ʉ":{"ha":81,"x_min":0,"x_max":0,"o":"m 848 475 l 726 475 l 726 736 l 582 736 l 582 475 l 259 475 l 259 736 l 114 736 l 114 475 l -8 475 l -8 376 l 114 376 l 114 269 l -14 269 l -14 410 l 362 410 l 362 532 z m 96 463 l 96 552 l 419 552 z "},"ŭ":{"ha":0,"x_min":0,"x_max":0,"o":""},"ǔ":{"ha":0,"x_min":0,"x_max":0,"o":""},"û":{"ha":0,"x_min":0,"x_max":0,"o":""},"ṷ":{"ha":29,"x_min":0,"x_max":0,"o":"m -46 -1008 l 85 -1008 l 85 -1001 l -84 -798 l -205 -798 l -373 -1001 l -373 -1008 l -243 -1008 l -144 -880 z "},"ȕ":{"ha":0,"x_min":0,"x_max":0,"o":""},"ü":{"ha":0,"x_min":0,"x_max":0,"o":""},"ǘ":{"ha":0,"x_min":0,"x_max":0,"o":""},"ṳ":{"ha":29,"x_min":0,"x_max":0,"o":"m 305 0 z "},"ǚ":{"ha":0,"x_min":0,"x_max":0,"o":""},"ǜ":{"ha":0,"x_min":0,"x_max":0,"o":""},"ǖ":{"ha":0,"x_min":0,"x_max":0,"o":""},"ụ":{"ha":0,"x_min":0,"x_max":0,"o":""},"ù":{"ha":0,"x_min":0,"x_max":0,"o":""},"ủ":{"ha":0,"x_min":0,"x_max":0,"o":""},"ư":{"ha":105,"x_min":0,"x_max":0,"o":""},"ứ":{"ha":0,"x_min":0,"x_max":0,"o":""},"ự":{"ha":105,"x_min":0,"x_max":0,"o":"m -483 -1025 z "},"ừ":{"ha":0,"x_min":0,"x_max":0,"o":""},"ử":{"ha":0,"x_min":0,"x_max":0,"o":""},"ữ":{"ha":105,"x_min":0,"x_max":0,"o":"m -743 57 l -646 54 b -586 126 -646 95 -621 126 b -410 62 -517 126 -500 62 b -260 235 -326 62 -260 127 l -355 240 b -418 167 -355 198 -381 167 b -593 232 -481 167 -514 232 b -743 57 -677 232 -743 163 z "},"ű":{"ha":0,"x_min":0,"x_max":0,"o":""},"ȗ":{"ha":0,"x_min":0,"x_max":0,"o":""},"ū":{"ha":0,"x_min":0,"x_max":0,"o":""},"ṻ":{"ha":0,"x_min":0,"x_max":0,"o":""},"ǹ":{"ha":0,"x_min":0,"x_max":0,"o":""},"ȟ":{"ha":0,"x_min":0,"x_max":0,"o":""},"ȡ":{"ha":197,"x_min":0,"x_max":0,"o":"m 365 -15 l 369 -15 l 369 -151 l 213 -297 l 292 -388 l 392 -294 b 597 -407 422 -359 486 -407 b 807 -233 730 -407 807 -336 b 601 -54 807 -126 724 -54 b 517 -65 573 -54 545 -58 l 517 852 l 372 852 l 372 487 l 365 487 z m 696 300 l 696 321 b 784 346 724 340 753 350 b 852 277 827 343 852 315 b 780 209 852 237 822 209 b 696 300 735 209 697 239 z "},"ȣ":{"ha":93,"x_min":0,"x_max":0,"o":"m 418 471 l 433 471 b 643 293 560 471 643 410 b 433 111 643 174 560 111 l 418 111 b 210 292 292 111 210 174 b 418 471 210 410 292 471 z m 438 595 l 414 595 b 210 753 300 595 210 631 b 321 909 210 840 250 882 l 321 1027 b 53 754 168 1023 53 926 b 183 530 53 643 104 572 b 53 292 102 482 53 404 b 418 -14 53 88 210 -14 l 433 -14 b 799 293 643 -14 799 88 b 670 530 799 404 749 482 b 799 754 748 572 799 643 b 530 1027 799 928 682 1023 l 530 909 b 643 753 602 882 643 840 b 438 595 643 631 553 595 z "},"ȧ":{"ha":0,"x_min":0,"x_max":0,"o":""},"ȩ":{"ha":0,"x_min":0,"x_max":0,"o":""},"ȫ":{"ha":0,"x_min":0,"x_max":0,"o":""},"ȭ":{"ha":0,"x_min":0,"x_max":0,"o":""},"ȯ":{"ha":39,"x_min":0,"x_max":0,"o":"m 0 745 z "},"ȱ":{"ha":0,"x_min":0,"x_max":0,"o":""},"ȳ":{"ha":0,"x_min":0,"x_max":0,"o":""},"ȸ":{"ha":465,"x_min":0,"x_max":0,"o":"m 1162 358 l 1162 372 b 875 746 1162 598 1054 746 b 690 667 797 746 736 718 l 690 982 l 533 982 l 533 667 b 516 656 533 718 488 656 b 519 749 437 656 519 718 b NaN NaN 519 805 565 NaN l NaN NaN z "},"ȹ":{"ha":465,"x_min":0,"x_max":0,"o":"m 533 -274 l 533 -117 l 872 -117 l 872 -103 b 585 271 872 123 764 271 b 395 186 503 271 440 241 l 387 262 l 259 262 l 251 183 b 235 177 251 240 203 177 b 229 265 151 177 229 237 b NaN NaN 229 316 274 NaN z "},"ȼ":{"ha":-7,"x_min":0,"x_max":0,"o":"m 673 982 l 574 982 l 480 738 b 397 746 454 743 427 746 b 56 365 190 746 56 590 b 213 37 56 219 113 100 l 94 -277 l 195 -277 l 300 -1 b 400 -15 330 -10 364 -15 b 703 233 574 -15 686 91 b 647 241 683 233 664 236 l 822 703 b 864 623 844 681 857 652 l 1005 623 b 871 830 996 714 946 787 z m 503 494 b 703 750 503 651 583 750 b 739 747 715 750 728 749 l 566 293 b 503 494 526 338 503 407 z "},"ȿ":{"ha":0,"x_min":0,"x_max":0,"o":"b -134 46 -50 6 -95 22 b NaN NaN -166 160 -363 NaN l NaN NaN b NaN NaN NaN NaN NaN NaN b NaN NaN NaN NaN NaN NaN l NaN NaN b NaN NaN NaN NaN NaN NaN b NaN NaN NaN NaN NaN NaN b NaN NaN NaN NaN NaN NaN b NaN NaN NaN NaN NaN NaN "},"ɀ":{"ha":1,"x_min":0,"x_max":0,"o":"m 288 125 l 288 100 l 469 100 b 860 -176 673 100 674 -176 b 1019 -103 930 -176 983 -137 l 966 -7 b 871 -47 943 -27 910 -47 b 496 225 762 -47 735 225 z "},"ɂ":{"ha":-29,"x_min":0,"x_max":0,"o":"m 81 460 l 239 460 b 369 621 239 562 283 621 b 492 461 458 621 492 555 b 359 305 492 365 456 305 l 293 305 l 293 0 l 449 0 l 449 218 b 648 467 589 241 647 337 b 369 746 647 648 541 746 b 81 460 199 746 81 642 z "},"ɇ":{"ha":20,"x_min":0,"x_max":0,"o":"m 673 982 l 574 982 l 480 736 b 396 746 453 743 425 746 b 242 730 246 746 303 630 l 123 417 l 224 417 l 329 692 b 435 679 361 684 397 679 b 743 878 596 679 710 759 l 596 878 b 436 798 572 833 519 798 b 372 806 413 798 392 801 l 452 1018 l 752 1018 l 752 1069 b 596 1396 752 1240 687 1343 z m 229 1018 l 352 1018 l 290 855 b 229 1018 253 892 231 947 b 338 1045 230 1018 338 1031 b NaN 1056 338 1044 337 1056 l NaN 865 z m NaN 865 l NaN 1014 b NaN 865 NaN 979 NaN 926 z "},"ɉ":{"ha":0,"x_min":0,"x_max":0,"o":""},"ɍ":{"ha":-254,"x_min":0,"x_max":0,"o":"m 88 0 "},"ɏ":{"ha":-6,"x_min":0,"x_max":0,"o":"m 713 515 l 643 515 l 723 736 l 567 736 l 495 515 l 259 515 l 187 736 l 33 736 l 113 515 l 34 515 l 34 422 l 146 422 b -129 618 302 422 -129 543 b NaN 723 -129 681 -12 723 l NaN 1242 l NaN 1242 z m NaN 1242 l NaN 1242 l NaN 986 l NaN 986 z "},"ʙ":{"ha":0,"x_min":0,"x_max":0,"o":""},"ʜ":{"ha":0,"x_min":0,"x_max":0,"o":"l 17 0 l 17 141 l 753 141 l 753 0 l 447 0 l 447 -317 "},"ʫ":{"ha":234,"x_min":0,"x_max":0,"o":"m 925 125 l 525 125 l 916 636 l 916 736 l 233 736 l 233 982 l 88 982 l 88 0 l 233 0 l 233 612 l 730 612 l 339 104 l 339 0 l 925 0 z "},"ʬ":{"ha":-121,"x_min":0,"x_max":0,"o":"m 149 962 l 34 962 l 145 575 l 239 575 l 320 822 l 399 575 l 492 575 l 604 962 l 490 962 l 441 727 l 365 962 l 273 962 l 199 726 z m 149 385 l 34 385 l 145 0 l 239 0 l 320 247 l 399 0 l 492 0 l 604 385 l 490 385 l 441 153 l 365 385 l 273 385 l 199 152 z "},"ẝ":{"ha":-280,"x_min":0,"x_max":0,"o":"m 282 0 l 282 711 l 429 711 l 429 819 l 286 819 b 399 899 298 871 338 899 b 460 894 420 899 444 898 l 467 1016 b 376 1027 438 1023 407 1027 b 127 819 233 1027 141 955 l 15 819 l 15 711 l 125 711 l 125 0 z "},"ẟ":{"ha":3,"x_min":0,"x_max":0,"o":"m 129 834 b 262 654 129 753 179 690 l 262 651 b 47 349 144 621 47 499 l 47 336 b 378 -14 47 136 171 -14 b 708 339 583 -14 708 137 l 708 353 b 415 726 708 532 617 655 b 283 834 308 764 283 803 b 397 903 283 875 323 903 b 568 868 461 903 530 883 l 568 994 b 391 1027 509 1016 457 1027 b 129 834 228 1027 129 951 z m 203 343 l 203 357 b 378 589 203 483 260 589 b 552 357 483 567 552 458 l 552 343 b 378 111 552 214 496 111 b 203 343 260 111 203 214 z "},"ỻ":{"ha":39,"x_min":0,"x_max":0,"o":"m 750 888 l 593 888 l 593 982 l 448 982 l 448 888 l 326 888 l 326 982 l 182 982 l 182 888 l 47 888 l 47 776 l 182 776 l 182 0 l 326 0 l 326 776 l 448 776 l 448 0 l 593 0 l 593 776 l 750 776 z "},"ỽ":{"ha":3,"x_min":0,"x_max":0,"o":"m 438 643 l 384 522 b 545 289 472 492 545 420 b 385 113 545 176 486 113 b 220 351 296 113 220 197 l 220 400 b 534 917 220 665 350 829 l 481 1034 b 64 401 208 914 64 690 l 64 363 b 388 -14 64 167 176 -14 b 700 300 587 -14 700 106 b 438 643 700 468 590 597 z "},"ỿ":{"ha":94,"x_min":0,"x_max":0,"o":"m 330 736 l 157 736 l 357 183 b 289 193 335 189 312 193 b 47 -47 156 193 46 84 b 288 -288 46 -180 156 -288 b 529 -98 410 -288 484 -222 l 814 736 l 642 736 l 483 233 l 475 269 z m 290 -151 b 190 -47 233 -151 190 -115 b 290 58 190 22 233 58 b 389 -47 346 58 389 22 b 290 -151 389 -115 346 -151 z "},"ↄ":{"ha":0,"x_min":0,"x_max":0,"o":""},"ų":{"ha":29,"x_min":0,"x_max":0,"o":"m 556 307 l 556 195 l 412 195 z "},"ʊ":{"ha":93,"x_min":0,"x_max":0,"o":"m 426 111 b 228 289 260 111 228 217 b 311 590 228 404 311 487 b 75 746 311 650 283 746 l 75 624 b 152 564 104 624 152 616 b 72 255 152 471 72 411 b 426 -14 72 132 142 -14 b 781 255 711 -14 781 132 b 701 564 781 411 701 471 b 779 624 701 616 749 624 l 779 746 b 543 590 570 746 543 650 b 624 289 543 487 624 404 b 426 111 624 217 593 111 z "},"ů":{"ha":0,"x_min":0,"x_max":0,"o":""},"ũ":{"ha":0,"x_min":0,"x_max":0,"o":""},"ṹ":{"ha":0,"x_min":0,"x_max":0,"o":""},"ṵ":{"ha":0,"x_min":0,"x_max":0,"o":""},"v":{"ha":-9,"x_min":0,"x_max":0,"o":""},"ṿ":{"ha":0,"x_min":0,"x_max":0,"o":""},"ʋ":{"ha":-29,"x_min":0,"x_max":0,"o":"m 365 -14 b 656 288 537 -14 656 73 l 656 536 b 503 746 656 647 635 746 b 351 718 453 746 399 732 l 369 602 b 435 610 395 608 414 610 b 500 525 479 610 500 586 l 500 288 b 365 114 500 152 445 114 b 231 288 286 114 231 152 l 231 736 l 75 736 l 75 288 b 365 -14 75 73 194 -14 z "},"ṽ":{"ha":0,"x_min":0,"x_max":0,"o":""},"ʌ":{"ha":-9,"x_min":0,"x_max":0,"o":"m 30 0 l 186 0 l 372 566 l 378 566 l 564 0 l 720 0 l 453 736 l 297 736 z "},"w":{"ha":340,"x_min":0,"x_max":0,"o":""},"ẃ":{"ha":0,"x_min":0,"x_max":0,"o":""},"ŵ":{"ha":0,"x_min":0,"x_max":0,"o":""},"ẅ":{"ha":0,"x_min":0,"x_max":0,"o":""},"ẇ":{"ha":0,"x_min":0,"x_max":0,"o":""},"ẉ":{"ha":0,"x_min":0,"x_max":0,"o":""},"ẁ":{"ha":0,"x_min":0,"x_max":0,"o":""},"ẘ":{"ha":0,"x_min":0,"x_max":0,"o":""},"ʍ":{"ha":340,"x_min":0,"x_max":0,"o":"m 852 736 l 703 736 l 555 206 l 544 206 l 395 736 l 247 736 l 31 0 l 180 0 l 323 537 l 331 537 l 473 0 l 623 0 l 766 540 l 774 540 l 918 0 l 1067 0 z "},"ƿ":{"ha":97,"x_min":0,"x_max":0,"o":"m 113 -274 l 270 -274 l 270 -109 b 743 350 566 -24 743 88 l 743 382 b 460 746 743 600 643 746 b 264 662 375 746 311 715 l 258 736 l 113 736 z m 270 15 l 270 536 b 415 618 298 587 344 618 b 586 382 536 618 586 511 l 586 350 b 270 15 586 163 455 62 z "},"x":{"ha":-29,"x_min":0,"x_max":0,"o":""},"ẍ":{"ha":0,"x_min":0,"x_max":0,"o":""},"ẋ":{"ha":-29,"x_min":0,"x_max":0,"o":"m 0 400 z "},"y":{"ha":-9,"x_min":0,"x_max":0,"o":""},"ý":{"ha":0,"x_min":0,"x_max":0,"o":""},"ŷ":{"ha":0,"x_min":0,"x_max":0,"o":""},"ÿ":{"ha":0,"x_min":0,"x_max":0,"o":""},"ẏ":{"ha":0,"x_min":0,"x_max":0,"o":""},"ỵ":{"ha":0,"x_min":0,"x_max":0,"o":""},"ỳ":{"ha":0,"x_min":0,"x_max":0,"o":""},"ƴ":{"ha":77,"x_min":0,"x_max":0,"o":"m 179 -277 b 418 -98 298 -277 377 -214 l 688 652 b 792 785 718 742 742 784 b 865 766 815 785 841 777 l 898 871 b 770 910 864 895 819 910 b 553 694 651 910 590 808 l 378 165 l 370 165 l 184 736 l 30 736 l 300 -9 l 282 -58 b 115 -141 245 -156 195 -163 l 81 -260 b 179 -277 99 -269 137 -277 z "},"ỷ":{"ha":0,"x_min":0,"x_max":0,"o":""},"ẙ":{"ha":0,"x_min":0,"x_max":0,"o":""},"ỹ":{"ha":0,"x_min":0,"x_max":0,"o":""},"ʎ":{"ha":-9,"x_min":0,"x_max":0,"o":"m 572 1013 b 334 834 452 1013 376 951 l 30 0 l 186 0 l 372 571 l 380 571 l 566 0 l 720 0 l 450 746 l 468 795 b 585 891 502 887 540 891 b 650 888 605 891 633 890 l 650 1009 b 572 1013 631 1012 602 1013 z "},"z":{"ha":-31,"x_min":0,"x_max":0,"o":""},"ź":{"ha":0,"x_min":0,"x_max":0,"o":""},"ƶ":{"ha":-31,"x_min":0,"x_max":0,"o":"m 72 0 l 665 0 l 665 125 l 269 125 l 269 132 l 412 320 l 583 320 l 583 419 l 488 419 l 651 632 l 651 736 l 85 736 l 85 612 l 471 612 l 471 605 l 324 419 l 142 419 l 142 320 l 247 320 l 72 99 z "},"ž":{"ha":0,"x_min":0,"x_max":0,"o":""},"ẑ":{"ha":0,"x_min":0,"x_max":0,"o":""},"ʑ":{"ha":100,"x_min":0,"x_max":0,"o":"m 411 0 l 557 0 b 840 225 762 0 840 132 b 665 389 840 321 758 389 b 350 125 553 389 472 296 l 350 38 l 533 38 l 479 -37 l 581 -103 z m 834 163 l 770 163 b 924 301 836 256 873 301 b 981 254 952 301 981 286 b 834 163 981 209 935 163 z "},"ż":{"ha":0,"x_min":0,"x_max":0,"o":""},"ẓ":{"ha":0,"x_min":0,"x_max":0,"o":""},"ȥ":{"ha":-35,"x_min":0,"x_max":0,"o":"m 555 -122 l 555 -163 l 681 -163 l 681 -90 b 460 125 681 37 601 125 l 460 -77 l -118 -77 l -118 -202 l 275 -202 l -117 -709 l -117 -814 l 270 -814 b 365 -936 349 -814 365 -875 z "},"ẕ":{"ha":0,"x_min":0,"x_max":0,"o":""},"ʐ":{"ha":50,"x_min":0,"x_max":0,"o":"m 540 0 l 540 -81 b 746 -288 540 -213 625 -288 b 818 -279 769 -288 796 -286 l 818 -168 b 776 -172 804 -172 788 -172 b 665 -81 716 -172 665 -155 l 665 125 l 269 125 l 269 132 l 269 33 z "},"ａ":{"ha":0,"x_min":0,"x_max":0,"o":""},"ｂ":{"ha":543,"x_min":0,"x_max":0,"o":"m 338 0 "},"ｃ":{"ha":543,"x_min":0,"x_max":0,"o":""},"ｄ":{"ha":543,"x_min":0,"x_max":0,"o":""},"ｅ":{"ha":543,"x_min":0,"x_max":0,"o":"m 669 -15 b 977 184 830 -15 944 65 b 1326 -194 977 -45 1109 -194 "},"ｆ":{"ha":543,"x_min":0,"x_max":0,"o":"m 849 736 l 690 736 l 690 800 b 803 903 690 872 726 903 b 864 898 817 903 837 902 l 864 1019 b 765 1028 836 1024 800 1028 b 545 822 629 1028 545 954 l 545 736 l 431 736 l 431 621 l 545 621 l 545 0 l 690 0 l 690 621 l 849 621 z "},"ｇ":{"ha":0,"x_min":0,"x_max":0,"o":""},"ｈ":{"ha":543,"x_min":0,"x_max":0,"o":"m 487 437 l 37 437 l 37 582 l 505 582 l 505 948 l 362 948 l 362 -34 l 507 -34 z "},"ｉ":{"ha":543,"x_min":0,"x_max":0,"o":"m 579 0 "},"ｊ":{"ha":0,"x_min":0,"x_max":0,"o":""},"ｋ":{"ha":543,"x_min":0,"x_max":0,"o":"m 372 0 z "},"ｌ":{"ha":543,"x_min":0,"x_max":0,"o":""},"ｍ":{"ha":543,"x_min":0,"x_max":0,"o":"m 151 0 z "},"ｎ":{"ha":543,"x_min":0,"x_max":0,"o":"m 490 437 l 350 437 l 350 -300 l 495 -300 z "},"ｏ":{"ha":543,"x_min":0,"x_max":0,"o":""},"ｐ":{"ha":543,"x_min":0,"x_max":0,"o":"m 331 -277 l 190 -277 z m 332 -644 b 138 -905 332 -792 266 -905 b -53 -644 15 -905 -53 -799 z "},"ｑ":{"ha":0,"x_min":0,"x_max":0,"o":""},"ｒ":{"ha":543,"x_min":0,"x_max":0,"o":"m 488 0 "},"ɼ":{"ha":-238,"x_min":0,"x_max":0,"o":"m 88 -277 l 233 -277 l 233 0 l 235 0 l 235 449 b 407 614 235 545 308 614 b 475 600 435 614 457 608 l 521 722 b 425 747 496 738 465 747 l 338 747 l 338 673 l 289 673 l 289 594 l 263 594 z "},"ɽ":{"ha":-238,"x_min":0,"x_max":0,"o":"m 301 -277 b 334 -243 301 -244 328 -243 b 426 -75 353 -243 426 -174 b 439 -35 426 -46 448 -53 l 486 87 b 389 113 461 103 430 113 b 202 -15 302 113 228 64 l 194 -15 l 194 102 l 54 102 l 54 -635 l 53 -635 l 53 -703 b 266 -911 53 -848 146 -911 z "},"ｓ":{"ha":543,"x_min":0,"x_max":0,"o":""},"ｔ":{"ha":0,"x_min":0,"x_max":0,"o":""},"ｕ":{"ha":543,"x_min":0,"x_max":0,"o":"m 814 307 l 1550 307 l 1550 163 z "},"ｖ":{"ha":0,"x_min":0,"x_max":0,"o":""},"ｗ":{"ha":543,"x_min":0,"x_max":0,"o":""},"ｘ":{"ha":0,"x_min":0,"x_max":0,"o":""},"ｙ":{"ha":0,"x_min":0,"x_max":0,"o":""},"ｚ":{"ha":543,"x_min":0,"x_max":0,"o":"m 359 0 z "},"ₔ":{"ha":-154,"x_min":0,"x_max":0,"o":"m 290 259 b 80 161 184 259 114 212 l 156 87 b 283 152 187 123 227 152 b 420 38 355 152 408 109 l 66 38 l 66 -27 b 304 -288 66 -178 149 -288 b 552 -15 435 -288 552 -183 l 552 5 b 290 259 552 151 448 259 z m 195 -72 l 195 -64 l 420 -64 b 305 -179 409 -138 370 -179 b 195 -72 232 -179 195 -134 z "},"ₐ":{"ha":0,"x_min":0,"x_max":0,"o":""},"ₑ":{"ha":0,"x_min":0,"x_max":0,"o":""},"ᵢ":{"ha":0,"x_min":0,"x_max":0,"o":""},"ⱼ":{"ha":0,"x_min":0,"x_max":0,"o":""},"ₒ":{"ha":0,"x_min":0,"x_max":0,"o":""},"ᵣ":{"ha":0,"x_min":0,"x_max":0,"o":""},"ᵤ":{"ha":0,"x_min":0,"x_max":0,"o":""},"ᵥ":{"ha":0,"x_min":0,"x_max":0,"o":""},"ₓ":{"ha":0,"x_min":0,"x_max":0,"o":""},"ǃ":{"ha":-379,"x_min":0,"x_max":0,"o":"m 269 982 l 110 982 l 122 283 l 256 283 "},"ʔ":{"ha":-31,"x_min":0,"x_max":0,"o":"m 349 365 z "},"ǀ":{"ha":-402,"x_min":0,"x_max":0,"o":"m 233 977 l 123 977 l 123 0 l 233 0 z "},"ǁ":{"ha":-277,"x_min":0,"x_max":0,"o":"m 202 977 l 92 977 l 92 0 l 202 0 z m 380 977 l 270 977 l 270 0 l 380 0 z "},"ǂ":{"ha":-340,"x_min":0,"x_max":0,"o":"m 264 977 l 155 977 l 155 703 l -12 703 l -12 604 l 155 604 l 155 381 l -9 381 l -9 282 l 155 282 l 155 0 l 264 0 l 264 282 l 431 282 l 431 381 l 264 381 l 264 604 l 429 604 l 429 703 l 264 703 z "},"ƻ":{"ha":0,"x_min":0,"x_max":0,"o":"l 67 87 b 188 214 117 136 156 177 l 357 214 l 357 313 l 261 313 b 304 465 292 367 304 414 b 243 317 304 413 284 369 l 59 317 l 59 218 l 157 218 b 143 205 152 214 147 210 l -197 -138 "},"ꟿ":{"ha":839,"x_min":0,"x_max":0,"o":"m 321 962 l 159 962 l 65 0 l 228 0 l 297 707 l 673 0 l 674 1 l 674 0 l 834 0 l 902 709 l 1278 0 l 1280 3 l 1280 0 l 1439 0 l 1533 962 l 1373 962 l 1305 252 l 926 962 l 768 962 l 699 254 z "},"ʶ":{"ha":-154,"x_min":0,"x_max":0,"o":"m 298 430 b 513 606 431 430 513 511 b 422 760 513 669 480 726 l 545 959 l 397 959 l 293 787 l 190 787 l 190 959 l 60 959 l 60 430 z m 190 540 l 190 680 l 293 680 b 382 610 357 680 382 648 b 285 540 382 570 353 540 z "},"ʵ":{"ha":-280,"x_min":0,"x_max":0,"o":"m 53 559 l 53 427 b 96 422 60 423 76 422 b 208 490 141 422 180 447 l 208 381 b 330 218 208 275 237 218 b 429 229 363 218 399 224 l 429 349 b 382 340 418 345 397 340 b 336 392 355 340 336 357 l 336 959 l 208 959 l 208 600 b 119 547 191 566 162 547 b 53 559 95 547 73 551 z "},"ʱ":{"ha":-153,"x_min":0,"x_max":0,"o":"m 214 1017 b 258 1069 214 1054 232 1069 b 304 1063 274 1069 293 1066 l 304 1180 b 203 1192 275 1187 236 1192 b 84 1028 114 1192 84 1134 l 84 430 l 214 430 l 214 800 b 305 859 231 836 260 859 b 392 734 361 859 392 825 l 392 430 l 522 430 l 522 765 b 350 967 522 907 456 967 b 214 894 292 967 245 940 z "},"ʴ":{"ha":-404,"x_min":0,"x_max":0,"o":"m 35 559 l 35 427 b 80 422 43 423 61 422 b 201 507 130 422 172 454 l 220 430 l 321 430 l 321 959 l 191 959 l 191 601 b 102 547 175 566 145 547 b 35 559 76 547 56 551 z "},"ʰ":{"ha":0,"x_min":0,"x_max":0,"o":""},"ⁱ":{"ha":0,"x_min":0,"x_max":0,"o":""},"ʲ":{"ha":0,"x_min":0,"x_max":0,"o":""},"ˡ":{"ha":-541,"x_min":0,"x_max":0,"o":"m 167 1145 l 50 1145 l 50 491 l 167 491 z "},"ⁿ":{"ha":0,"x_min":0,"x_max":0,"o":""},"ʳ":{"ha":0,"x_min":0,"x_max":0,"o":""},"ˢ":{"ha":-280,"x_min":0,"x_max":0,"o":""},"ʷ":{"ha":0,"x_min":0,"x_max":0,"o":""},"ˣ":{"ha":0,"x_min":0,"x_max":0,"o":""},"ʸ":{"ha":0,"x_min":0,"x_max":0,"o":""},"ª":{"ha":0,"x_min":0,"x_max":0,"o":""},"º":{"ha":0,"x_min":0,"x_max":0,"o":""},"А":{"ha":0,"x_min":0,"x_max":0,"o":""},"Б":{"ha":0,"x_min":0,"x_max":0,"o":""},"В":{"ha":109,"x_min":0,"x_max":0,"o":""},"Г":{"ha":0,"x_min":0,"x_max":0,"o":""},"Ѓ":{"ha":0,"x_min":0,"x_max":0,"o":""},"Ґ":{"ha":6,"x_min":0,"x_max":0,"o":"m 100 0 l 250 0 l 250 853 l 713 853 l 713 1208 l 568 1208 l 568 982 l 100 982 z "},"Ӷ":{"ha":5,"x_min":0,"x_max":0,"o":"m 712 982 l 100 982 l 100 0 l 247 0 l 247 -140 l 982 -140 l 982 323 z "},"Ғ":{"ha":5,"x_min":0,"x_max":0,"o":"m 712 982 l 100 982 l 100 1275 l 563 1275 z "},"Ҕ":{"ha":96,"x_min":0,"x_max":0,"o":"m 712 982 l 100 982 l 100 0 l 250 0 l 250 423 l 397 423 l 397 275 l 703 275 l 703 738 z "},"Д":{"ha":253,"x_min":0,"x_max":0,"o":"m 26 -237 l 168 -237 l 168 0 l 826 0 l 826 -236 l 970 -236 l 970 126 l 859 126 l 859 982 l 251 982 l 228 567 b 90 126 213 294 156 182 l 26 126 z m 266 126 b 372 567 321 216 359 359 l 387 853 l 715 853 l 715 126 z "},"Е":{"ha":40,"x_min":0,"x_max":0,"o":""},"Ѐ":{"ha":0,"x_min":0,"x_max":0,"o":""},"Ё":{"ha":0,"x_min":0,"x_max":0,"o":""},"Ж":{"ha":569,"x_min":0,"x_max":0,"o":""},"З":{"ha":108,"x_min":0,"x_max":0,"o":"m 435 -14 b 789 270 639 -14 789 106 b 578 503 789 395 712 484 l 426 503 b 780 233 431 343 576 233 z "},"И":{"ha":234,"x_min":0,"x_max":0,"o":""},"Й":{"ha":0,"x_min":0,"x_max":0,"o":""},"Ѝ":{"ha":0,"x_min":0,"x_max":0,"o":""},"Ҋ":{"ha":0,"x_min":0,"x_max":0,"o":"l 234 0 l 234 100 l 340 100 l 340 -37 l -159 -755 l -168 -755 l -168 -37 "},"К":{"ha":127,"x_min":0,"x_max":0,"o":"m 684 0 l 865 0 "},"Ќ":{"ha":0,"x_min":0,"x_max":0,"o":""},"Л":{"ha":0,"x_min":0,"x_max":0,"o":"l 196 0 l 196 148 l 1178 148 l 1178 -475 l 1162 -936 b 999 -1326 1151 -1219 1116 -1324 l 970 -1328 "},"М":{"ha":439,"x_min":0,"x_max":0,"o":""},"Н":{"ha":229,"x_min":0,"x_max":0,"o":""},"О":{"ha":262,"x_min":0,"x_max":0,"o":""},"П":{"ha":0,"x_min":0,"x_max":0,"o":""},"Р":{"ha":0,"x_min":0,"x_max":0,"o":""},"С":{"ha":218,"x_min":0,"x_max":0,"o":""},"Т":{"ha":105,"x_min":0,"x_max":0,"o":""},"У":{"ha":89,"x_min":0,"x_max":0,"o":""},"Ў":{"ha":0,"x_min":0,"x_max":0,"o":""},"Ф":{"ha":328,"x_min":0,"x_max":0,"o":"m 632 869 l 617 869 l 617 1000 l 471 1000 l 471 869 l 454 869 b 68 475 229 869 68 711 b 454 87 68 243 229 87 l 471 87 l 471 -41 l 617 -41 l 617 87 l 632 87 b 1019 476 856 87 1019 244 b 632 869 1019 711 856 869 z m 454 741 l 471 741 l 471 216 l 454 216 b 213 475 302 216 213 313 b 454 741 213 642 301 741 z m 617 216 l 617 741 l 632 741 b 873 476 785 741 873 640 b 632 216 873 315 785 216 z "},"Х":{"ha":0,"x_min":0,"x_max":0,"o":""},"Ч":{"ha":201,"x_min":0,"x_max":0,"o":""},"Ц":{"ha":257,"x_min":0,"x_max":0,"o":"m 972 132 l 860 132 l 860 982 l 715 982 l 715 129 l 243 129 l 243 982 l 100 982 l 100 0 l 811 0 l 811 -232 l 959 -232 z "},"Ш":{"ha":530,"x_min":0,"x_max":0,"o":"m 100 982 l 100 0 l 1190 0 l 1190 982 z "},"Щ":{"ha":585,"x_min":0,"x_max":0,"o":"m 1301 125 l 1190 125 l 1190 982 l 1042 982 l 1042 0 l 2087 0 l 2087 -232 l 2228 -232 z "},"Џ":{"ha":200,"x_min":0,"x_max":0,"o":"m 100 0 l 406 0 l 406 -237 l 553 -237 l 553 0 l 860 0 l 860 982 l 711 982 l 711 129 l 247 129 l 247 982 l 100 982 z "},"Ь":{"ha":0,"x_min":0,"x_max":0,"o":""},"Ы":{"ha":0,"x_min":0,"x_max":0,"o":""},"Ъ":{"ha":326,"x_min":0,"x_max":0,"o":"m 52 857 l 319 857 l 319 0 l 713 0 l 713 -416 "},"Љ":{"ha":705,"x_min":0,"x_max":0,"o":"m 30 0 l 71 0 b 362 481 289 0 347 137 l 380 854 l 696 854 l 696 0 l 1063 0 b 1408 298 1282 0 1408 122 b 1063 587 1408 475 1282 587 l 845 587 l 845 982 l 237 982 l 220 521 b 57 130 209 199 159 132 l 30 130 "},"Њ":{"ha":745,"x_min":0,"x_max":0,"o":"m 100 0 l 250 0 l 250 461 l 738 461 l 738 0 l 1133 0 l 1133 -149 l 738 -149 l 738 -637 l 1133 -637 l 1133 -787 "},"Ѕ":{"ha":94,"x_min":0,"x_max":0,"o":""},"Є":{"ha":138,"x_min":0,"x_max":0,"o":"m 457 -14 b 834 312 673 -14 823 110 l 682 312 b 457 115 674 190 575 115 b 216 419 318 115 220 239 l 576 419 l 576 548 l 217 548 b 465 865 222 736 322 865 b 682 665 581 865 674 788 l 834 665 b 465 996 822 871 675 996 b 68 519 229 996 68 802 l 68 439 b 457 -14 68 171 225 -14 z "},"Э":{"ha":143,"x_min":0,"x_max":0,"o":""},"І":{"ha":-410,"x_min":0,"x_max":0,"o":""},"Ї":{"ha":0,"x_min":0,"x_max":0,"o":""},"Ј":{"ha":0,"x_min":0,"x_max":0,"o":""},"Ћ":{"ha":428,"x_min":0,"x_max":0,"o":"m 800 982 l 52 982 l 52 854 l 326 854 l 326 0 l 475 0 l 475 471 b 720 502 547 490 638 502 b 921 324 848 502 921 458 l 921 0 l 1067 0 l 1067 256 l 1393 256 z "},"Ю":{"ha":611,"x_min":0,"x_max":0,"o":"m 250 982 l 100 982 l 100 0 l 250 0 l 250 416 l 420 416 b 860 -14 448 148 625 -14 b 986 -77 1175 -14 986 176 b 520 -508 986 -319 805 -489 l 352 -508 z m 1257 -558 z "},"Я":{"ha":138,"x_min":0,"x_max":0,"o":"m 798 0 l 798 982 l 446 982 b 106 674 218 982 106 854 b 285 397 106 542 165 441 l 69 0 l 239 0 l 437 370 l 446 370 l 648 370 l 648 0 z m 256 674 b 463 854 256 785 317 854 l 648 854 l 648 499 l 461 499 b 256 674 317 499 256 563 z "},"Ђ":{"ha":337,"x_min":0,"x_max":0,"o":"m 812 982 l 52 982 l 52 853 l 358 853 l 358 0 l 507 0 l 507 446 b 680 468 564 460 625 468 b 888 286 810 468 888 399 b 686 114 888 179 814 114 l 688 -9 b 1040 289 924 -11 1040 111 b 684 589 1040 483 898 589 b 507 566 627 589 566 580 l 507 853 l 812 853 z "},"Ѡ":{"ha":469,"x_min":0,"x_max":0,"o":"m 100 279 b 391 -14 100 85 222 -14 b 613 84 484 -14 564 19 b 827 -14 661 19 736 -14 b 1127 279 996 -14 1127 85 l 1127 982 l 978 982 l 978 279 b 827 115 978 171 911 115 b 688 279 745 115 688 171 l 688 982 l 538 982 l 538 279 b 391 115 538 171 480 115 b 250 279 312 115 250 171 l 250 982 l 100 982 z "},"Ѣ":{"ha":0,"x_min":0,"x_max":0,"o":""},"Ѥ":{"ha":535,"x_min":0,"x_max":0,"o":"m 890 559 l 543 559 b 830 859 564 758 682 859 b 1086 666 951 859 1057 792 b 651 229 852 666 676 502 l 506 229 l 506 652 l 357 652 l 357 -330 l 506 -330 l 506 103 l 651 103 b 1086 -343 672 -176 849 -343 b 1489 -24 1287 -343 1447 -224 l 1340 -15 b 1086 -206 1312 -141 1207 -206 b 798 103 936 -206 817 -102 l 1146 103 z "},"Ѧ":{"ha":127,"x_min":0,"x_max":0,"o":"m 697 0 l 865 0 l 522 982 l 369 982 l 23 0 l 190 0 l 285 282 l 366 282 l 366 0 l 513 0 l 513 282 l 605 282 z m 326 406 l 445 765 l 564 406 z "},"Ѩ":{"ha":505,"x_min":0,"x_max":0,"o":"m 220 982 l 69 982 l 69 0 l 220 0 l 220 283 l 446 283 l 346 0 l 513 0 l 608 282 l 689 282 l 689 0 l 836 0 l 836 282 l 928 282 l 1020 0 l 1188 0 l 845 982 l 692 982 l 490 406 l 220 406 z m 648 406 l 768 765 l 887 406 z "},"Ѫ":{"ha":376,"x_min":0,"x_max":0,"o":"m 65 235 l 52 235 b -289 -68 -170 235 -289 146 z m 49 548 l 395 548 l 221 247 z "},"Ѭ":{"ha":842,"x_min":0,"x_max":0,"o":"m 106 0 l 256 0 l 256 406 l 496 406 b 458 235 471 361 458 304 l -98 235 l -98 680 l -248 680 z m 442 548 l 788 548 l 614 247 z "},"Ѯ":{"ha":-31,"x_min":0,"x_max":0,"o":"m 312 982 l 121 982 l 121 854 l 312 854 b 484 713 430 854 484 802 b 305 564 484 628 431 564 l 209 564 l 209 437 l 304 437 b 506 277 434 437 506 382 b 332 114 506 176 441 114 l 300 114 b 69 -65 159 114 69 54 b 262 -296 69 -189 160 -262 l 317 -198 b 214 -83 274 -179 214 -146 b 301 -14 214 -42 240 -14 l 336 -14 b 662 267 529 -14 662 92 b 481 503 662 387 597 466 b 642 731 583 544 642 625 b 312 982 640 888 511 982 z m 290 1260 l 172 1260 l 172 1253 l 359 1070 l 445 1070 l 633 1253 l 633 1260 l 514 1260 l 403 1153 z "},"Ѱ":{"ha":0,"x_min":0,"x_max":0,"o":""},"Ѳ":{"ha":0,"x_min":0,"x_max":0,"o":""},"Ѵ":{"ha":199,"x_min":0,"x_max":0,"o":""},"Ѷ":{"ha":0,"x_min":0,"x_max":0,"o":""},"Ѹ":{"ha":0,"x_min":0,"x_max":0,"o":""},"Җ":{"ha":-240,"x_min":0,"x_max":0,"o":"l 569 0 l 569 84 l 446 84 "},"Ҙ":{"ha":108,"x_min":0,"x_max":0,"o":"m 81 256 l 86 109 l 211 3 l 391 -11 l 373 -91 l 397 NaN b 703 NaN 576 NaN 703 NaN b 491 NaN 703 NaN 625 NaN z "},"Қ":{"ha":178,"x_min":0,"x_max":0,"o":"m 684 0 l 747 0 l 747 -235 l 890 -235 l 890 121 l 768 121 "},"Ҝ":{"ha":139,"x_min":0,"x_max":0,"o":"m 321 720 l 321 555 l 248 555 l 248 982 l 100 982 l 100 0 l 248 0 l 248 412 l 321 412 l 321 259 l 430 259 l 430 412 l 479 412 l 704 0 l 876 0 l 598 500 l 857 982 l 682 982 l 468 555 l 430 555 l 430 720 z "},"Ҡ":{"ha":279,"x_min":0,"x_max":0,"o":"m 392 982 l 7 982 l 7 857 l 243 857 l 243 0 l 392 0 l 392 439 l 472 439 l 826 0 l 1008 0 l 601 0 l 601 505 z "},"Ң":{"ha":303,"x_min":0,"x_max":0,"o":"m 100 0 z "},"Ҥ":{"ha":565,"x_min":0,"x_max":0,"o":"m 1274 982 l 738 982 l 738 556 l 250 556 l 250 982 l 100 982 l 100 0 l 250 0 l 250 429 l 738 429 l 738 0 l 887 0 l 887 853 l 1274 853 z "},"Ҧ":{"ha":715,"x_min":0,"x_max":0,"o":"m 833 982 l 75 982 l 75 0 l 222 0 l 222 854 l 684 854 l 684 0 l 833 0 l 833 423 l 970 423 l 970 286 z "},"Ҩ":{"ha":344,"x_min":0,"x_max":0,"o":"m 1012 -15 l 1012 114 b 878 127 964 114 919 119 b 1004 457 958 212 1004 327 l 1004 620 b 716 996 1004 840 887 996 b 435 633 548 996 435 838 l 435 472 b 589 126 435 331 491 212 b 526 121 568 123 548 121 b 244 441 359 121 244 259 l 244 587 b 414 861 244 743 317 861 l 414 997 b 92 586 221 997 92 818 l 92 441 b 526 -14 92 184 266 -14 b 745 33 607 -14 680 3 b 1012 -15 822 1 912 -15 z m 579 471 l 579 635 b 718 861 579 768 640 861 b 854 629 795 861 854 770 l 854 457 b 730 187 854 345 808 248 b 579 471 633 250 579 349 z "},"Ҫ":{"ha":0,"x_min":0,"x_max":0,"o":""},"Ҭ":{"ha":105,"x_min":0,"x_max":0,"o":"m 52 853 l 358 853 l 358 0 l 503 0 l 503 -138 l 1238 -138 l 1238 167 l 1367 167 l 1367 -594 z "},"Ү":{"ha":150,"x_min":0,"x_max":0,"o":""},"Ұ":{"ha":150,"x_min":0,"x_max":0,"o":"m 24 982 l 350 437 l 235 437 l 235 338 l 380 338 l 380 0 l 529 0 l 529 338 l 675 338 l 675 437 l 560 437 l 886 982 l 716 982 l 460 537 l 449 537 l 194 982 z "},"Ҳ":{"ha":0,"x_min":0,"x_max":0,"o":"l 125 0 l 125 77 l 6 77 "},"Ҵ":{"ha":455,"x_min":0,"x_max":0,"o":"m 689 982 l 52 982 l 52 857 l 298 857 l 298 0 l 1009 0 l 1009 -232 l 1157 -232 l 1171 132 l 1058 132 l 1058 982 l 913 982 l 913 129 l 441 129 l 441 857 l 689 857 z "},"Ҷ":{"ha":0,"x_min":0,"x_max":0,"o":""},"Ҹ":{"ha":201,"x_min":0,"x_max":0,"o":"m 528 681 l 419 681 l 419 483 b 266 658 321 493 266 541 l 266 982 l 119 982 l 119 658 b 419 354 119 456 233 367 l 419 202 l 528 202 l 528 355 b 712 384 596 358 658 369 l 712 0 l 861 0 l 861 982 l 712 982 l 712 511 b 528 483 657 497 591 486 z "},"Һ":{"ha":201,"x_min":0,"x_max":0,"o":"m 841 0 l 841 384 l 692 384 l 692 -598 l 841 -598 l 841 -127 b 1086 -96 913 -109 1004 -96 b 1287 -274 1214 -96 1287 -140 l 1287 -598 z "},"Ҽ":{"ha":0,"x_min":0,"x_max":0,"o":"b -414 504 0 342 -258 504 b -46 631 -149 504 -46 608 b NaN NaN -46 667 11 NaN l NaN NaN "},"Ҿ":{"ha":0,"x_min":0,"x_max":0,"o":"b -372 465 0 342 -224 465 b -199 NaN -165 465 -199 NaN l -199 NaN l -56 NaN l -56 NaN b 162 NaN 31 NaN 114 NaN l 131 NaN "},"Ӏ":{"ha":-410,"x_min":0,"x_max":0,"o":""},"Ӂ":{"ha":0,"x_min":0,"x_max":0,"o":""},"Ӄ":{"ha":150,"x_min":0,"x_max":0,"o":"m 247 427 l 437 427 b 690 161 594 427 692 327 b 498 -85 690 8 617 -85 l 499 -209 b 838 165 711 -209 838 -68 b 502 545 838 382 712 521 l 845 982 l 663 982 l 345 562 l 247 562 l 247 982 l 100 982 l 100 0 l 247 0 z "},"Ӆ":{"ha":0,"x_min":0,"x_max":0,"o":"l 196 0 l 196 102 l 68 102 l 68 996 l -554 996 l -570 534 b -733 144 -581 251 -616 146 l -762 142 "},"Ӈ":{"ha":229,"x_min":0,"x_max":0,"o":"m 736 0 l 736 -62 b 625 -159 736 -137 686 -159 b 582 -155 612 -159 594 -156 l 582 -275 b 651 -282 597 -279 625 -282 b 887 -68 817 -282 887 -182 l 887 982 l 458 982 z "},"Ӊ":{"ha":302,"x_min":0,"x_max":0,"o":"m 100 0 l 250 0 l 250 429 l 738 429 l 738 0 l 844 0 l 844 -149 z "},"Ӌ":{"ha":0,"x_min":0,"x_max":0,"o":""},"Ӎ":{"ha":0,"x_min":0,"x_max":0,"o":"l 467 0 l 467 100 l 566 100 l 566 -81 l 256 -842 l 243 -842 l -67 -81 "},"Ӑ":{"ha":0,"x_min":0,"x_max":0,"o":""},"Ӓ":{"ha":0,"x_min":0,"x_max":0,"o":""},"Ӕ":{"ha":580,"x_min":0,"x_max":0,"o":"m -118 -598 l 88 -140 l 159 -140 l 159 -598 z "},"Ӗ":{"ha":0,"x_min":0,"x_max":0,"o":""},"Ә":{"ha":0,"x_min":0,"x_max":0,"o":""},"Ӛ":{"ha":0,"x_min":0,"x_max":0,"o":""},"Ӝ":{"ha":0,"x_min":0,"x_max":0,"o":""},"Ӟ":{"ha":108,"x_min":0,"x_max":0,"o":"m 435 -14 b 789 270 639 -14 789 106 b 578 503 789 395 712 484 l 426 503 b 780 233 431 343 576 233 "},"Ӡ":{"ha":0,"x_min":0,"x_max":0,"o":""},"Ӣ":{"ha":0,"x_min":0,"x_max":0,"o":""},"Ӥ":{"ha":0,"x_min":0,"x_max":0,"o":""},"Ӧ":{"ha":0,"x_min":0,"x_max":0,"o":""},"Ө":{"ha":0,"x_min":0,"x_max":0,"o":""},"Ӫ":{"ha":0,"x_min":0,"x_max":0,"o":""},"Ӭ":{"ha":0,"x_min":0,"x_max":0,"o":""},"Ӯ":{"ha":0,"x_min":0,"x_max":0,"o":""},"Ӱ":{"ha":0,"x_min":0,"x_max":0,"o":""},"Ӳ":{"ha":0,"x_min":0,"x_max":0,"o":""},"Ӵ":{"ha":0,"x_min":0,"x_max":0,"o":""},"Ӹ":{"ha":393,"x_min":0,"x_max":0,"o":"m 471 587 l 252 587 l 252 982 l 103 982 l 103 0 l 471 0 b 815 298 689 0 815 122 b 471 587 815 475 689 587 "},"Ӻ":{"ha":5,"x_min":0,"x_max":0,"o":"m 712 982 l 712 370 l 859 370 l 859 229 l 1190 229 l 1190 522 l 1652 522 z "},"Ӽ":{"ha":0,"x_min":0,"x_max":0,"o":"l 0 125 l 83 125 l 83 -7 "},"Ӿ":{"ha":125,"x_min":0,"x_max":0,"o":"m 205 982 l 30 982 l 309 543 l 221 543 l 221 444 l 312 444 l 28 0 l -251 444 l -165 444 l -165 543 l -248 543 "},"Ҁ":{"ha":93,"x_min":0,"x_max":0,"o":"m 532 115 l 431 115 b 220 388 302 115 220 227 l 220 594 b 437 865 220 761 294 865 b 632 669 555 865 632 793 l 793 669 b 438 996 793 869 648 996 b 60 593 203 996 60 836 l 60 388 b 370 -9 60 174 183 18 l 370 -247 l 532 -247 z "},"Ҍ":{"ha":0,"x_min":0,"x_max":0,"o":""},"Ҏ":{"ha":96,"x_min":0,"x_max":0,"o":"m 521 636 l 433 581 l 500 479 b 437 472 481 474 460 472 l 251 472 l 251 854 l 437 854 b 642 663 582 854 642 774 b 593 526 642 608 627 559 z m 102 0 l 251 0 l 251 345 l 452 345 b 576 361 498 345 539 350 l 648 250 l 735 307 l 671 406 b 792 663 752 463 792 555 b 452 982 792 845 680 982 l 102 982 z "},"а":{"ha":0,"x_min":0,"x_max":0,"o":""},"б":{"ha":32,"x_min":0,"x_max":0,"o":"m 716 920 l 656 1010 b 416 982 610 974 532 985 b 56 471 176 978 56 808 l 56 399 b 396 -15 56 127 190 -15 b 735 357 602 -15 735 127 b 427 708 735 583 605 708 b 183 571 320 708 231 663 l 174 571 b 420 854 190 758 260 850 b 716 920 562 860 651 860 z m 396 106 b 201 355 275 106 201 203 b 395 589 203 503 275 589 b 590 355 515 589 590 503 b 396 106 590 202 515 106 z "},"в":{"ha":0,"x_min":0,"x_max":0,"o":""},"г":{"ha":-153,"x_min":0,"x_max":0,"o":""},"ѓ":{"ha":0,"x_min":0,"x_max":0,"o":""},"ґ":{"ha":-143,"x_min":0,"x_max":0,"o":"m 568 920 l 430 920 l 430 736 l 88 736 l 88 0 l 231 0 l 231 612 l 568 612 z "},"ӷ":{"ha":-153,"x_min":0,"x_max":0,"o":"m 560 736 l 88 736 l 88 0 l 229 0 l 229 -240 l 372 -240 l 372 115 l 231 115 l 231 612 l 560 612 z "},"ғ":{"ha":-153,"x_min":0,"x_max":0,"o":"m 560 736 l 88 736 l 88 429 l -241 429 l -241 571 l 88 571 l 88 722 l 187 722 l 187 571 l 370 571 l 370 901 z "},"ҕ":{"ha":-28,"x_min":0,"x_max":0,"o":"m 560 736 l 88 736 l 88 0 l 231 0 l 231 308 l 305 308 b 517 115 429 308 517 233 b 357 -79 515 24 449 -49 l 404 -189 b 658 115 557 -151 659 -27 b 305 433 658 311 511 433 l 231 433 l 231 612 l 560 612 z "},"д":{"ha":89,"x_min":0,"x_max":0,"o":"m 16 -213 l 160 -213 l 160 0 l 671 0 l 671 -213 l 812 -213 l 812 125 l 699 125 l 699 736 l 198 736 l 175 463 b 76 125 159 278 137 179 l 16 125 z m 231 125 b 311 463 279 193 297 308 l 327 613 l 559 613 l 559 125 z "},"е":{"ha":0,"x_min":0,"x_max":0,"o":""},"ѐ":{"ha":0,"x_min":0,"x_max":0,"o":""},"ё":{"ha":0,"x_min":0,"x_max":0,"o":""},"ж":{"ha":366,"x_min":0,"x_max":0,"o":""},"з":{"ha":-93,"x_min":0,"x_max":0,"o":""},"и":{"ha":39,"x_min":0,"x_max":0,"o":""},"й":{"ha":0,"x_min":0,"x_max":0,"o":""},"ҋ":{"ha":0,"x_min":0,"x_max":0,"o":"l 124 0 l 124 99 l -32 99 "},"ѝ":{"ha":0,"x_min":0,"x_max":0,"o":""},"к":{"ha":-26,"x_min":0,"x_max":0,"o":""},"ќ":{"ha":0,"x_min":0,"x_max":0,"o":""},"л":{"ha":0,"x_min":0,"x_max":0,"o":""},"м":{"ha":0,"x_min":0,"x_max":0,"o":"l 0 246 l 141 246 l 141 983 l -39 983 "},"н":{"ha":0,"x_min":0,"x_max":0,"o":"l 17 0 l 17 141 l 753 141 l 753 0 l 447 0 l 447 -317 "},"о":{"ha":39,"x_min":0,"x_max":0,"o":""},"п":{"ha":0,"x_min":0,"x_max":0,"o":"l 20 0 l 20 736 l -583 736 "},"р":{"ha":59,"x_min":0,"x_max":0,"o":""},"с":{"ha":-7,"x_min":0,"x_max":0,"o":""},"т":{"ha":-43,"x_min":0,"x_max":0,"o":"m 47 612 l 288 612 l 288 0 l 430 0 l 430 612 l 670 612 l 670 736 l 47 736 z "},"у":{"ha":-9,"x_min":0,"x_max":0,"o":""},"ў":{"ha":0,"x_min":0,"x_max":0,"o":""},"ф":{"ha":197,"x_min":0,"x_max":0,"o":"m 406 -251 l 551 -251 l 551 -15 b 901 365 760 -15 901 137 b 551 746 901 594 760 746 l 551 982 l 406 982 l 406 746 b 56 365 197 746 56 594 b 406 -15 56 137 197 -15 z m 406 107 b 202 365 269 107 202 225 b 406 625 202 505 269 625 z m 551 107 l 551 625 b 754 365 688 625 754 505 b 551 107 754 225 688 107 z "},"х":{"ha":-29,"x_min":0,"x_max":0,"o":""},"ч":{"ha":9,"x_min":0,"x_max":0,"o":""},"ц":{"ha":0,"x_min":0,"x_max":0,"o":"l 83 0 l 83 568 l -25 568 "},"ш":{"ha":349,"x_min":0,"x_max":0,"o":"m 88 736 l 88 0 l 1021 0 l 1021 736 z "},"щ":{"ha":431,"x_min":0,"x_max":0,"o":"m 1146 125 l 1021 125 l 1021 736 l 879 736 l 879 0 l 1781 0 l 1781 -212 l 1923 -212 z "},"џ":{"ha":0,"x_min":0,"x_max":0,"o":"l 20 0 l 20 231 l -216 231 l -216 372 l 20 372 l 20 602 "},"ь":{"ha":0,"x_min":0,"x_max":0,"o":""},"ы":{"ha":0,"x_min":0,"x_max":0,"o":""},"ъ":{"ha":132,"x_min":0,"x_max":0,"o":"m 373 736 l 31 736 l 31 612 l 231 612 l 231 0 z m 231 -359 "},"љ":{"ha":486,"x_min":0,"x_max":0,"o":"m 54 0 l 100 0 b 332 362 262 0 320 118 l 346 612 l 585 612 l 585 0 l 837 0 l 837 -517 l 823 -842 b 707 -1128 815 -1069 789 -1128 l 681 -1128 z m 1354 -1128 l 1354 -894 l 1534 -894 b 1675 -1013 1615 -894 1675 -944 b 1534 -1128 1675 -1081 1615 -1128 z "},"њ":{"ha":450,"x_min":0,"x_max":0,"o":"m 88 0 l 231 0 l 231 330 l 548 330 l 548 0 l 871 0 b 1152 244 1051 0 1152 104 b 871 469 1152 385 1051 469 l 689 469 l 689 736 l 548 736 l 548 454 l 231 454 l 231 736 l 88 736 z m 689 125 l 689 345 l 871 345 b 1010 240 952 345 1010 311 b 871 125 1010 172 952 125 z "},"ѕ":{"ha":-51,"x_min":0,"x_max":0,"o":""},"є":{"ha":-28,"x_min":0,"x_max":0,"o":"m 410 415 l 165 415 b 387 486 292 415 306 486 b NaN NaN 497 486 334 NaN b NaN NaN NaN NaN NaN NaN b NaN NaN NaN NaN NaN NaN b NaN NaN NaN NaN NaN NaN l NaN NaN b NaN NaN NaN NaN NaN NaN b NaN NaN NaN NaN NaN NaN l NaN NaN z "},"э":{"ha":-37,"x_min":0,"x_max":0,"o":""},"і":{"ha":-437,"x_min":0,"x_max":0,"o":""},"ї":{"ha":0,"x_min":0,"x_max":0,"o":""},"ј":{"ha":0,"x_min":0,"x_max":0,"o":""},"ћ":{"ha":0,"x_min":0,"x_max":0,"o":""},"ю":{"ha":330,"x_min":0,"x_max":0,"o":"m 184 736 l 39 736 l 39 0 l 184 0 l 184 300 l 346 300 b 684 -15 370 109 498 -15 b 1024 366 890 -15 1024 138 b 684 746 1024 594 890 746 b 346 425 496 746 366 620 l 184 425 z m 684 109 b 484 366 545 109 484 225 b 684 623 484 506 545 623 b 883 366 822 623 883 506 b 684 109 883 225 822 109 z "},"я":{"ha":-9,"x_min":0,"x_max":0,"o":"m 526 0 l 663 0 l 663 736 l 351 736 b 77 510 180 736 77 648 b 216 309 77 413 127 342 l 43 0 l 191 0 l 351 288 l 526 288 z m 218 509 b 351 614 218 571 267 614 l 526 614 l 526 404 l 342 404 b 218 509 263 404 218 445 z "},"ђ":{"ha":39,"x_min":0,"x_max":0,"o":"m 566 450 l 566 -68 b 458 -157 566 -137 518 -157 b 418 -153 445 -157 430 -155 l 418 -270 b 496 -277 438 -275 465 -277 b 709 -68 616 -277 709 -213 l 777 -68 l 777 -66 l 1245 -66 l 1245 125 l 1396 125 l 1396 224 l 1245 224 l 1245 300 l 1103 300 l 1103 224 l 955 224 l 955 125 l 1103 125 l 1103 -682 l 1248 -682 l 1248 -245 z "},"ѡ":{"ha":342,"x_min":0,"x_max":0,"o":"m 88 256 b 349 -14 88 77 198 -14 b 552 80 434 -14 507 18 b 746 -14 593 18 662 -14 b 1015 256 901 -14 1015 77 l 1015 736 l 872 736 l 872 256 b 746 111 872 159 814 111 b 623 256 673 111 623 159 l 623 736 l 483 736 l 483 256 b 349 111 483 159 425 111 b 231 256 285 111 231 160 l 231 736 l 88 736 z "},"ѣ":{"ha":33,"x_min":0,"x_max":0,"o":"m 484 830 l 274 830 l 274 1092 l 133 1092 l 133 830 l 11 830 l 11 719 l 133 719 l 133 0 l 454 0 b 736 244 636 0 736 104 b 454 484 736 385 636 484 l 274 484 l 274 719 l 484 719 "},"ѥ":{"ha":336,"x_min":0,"x_max":0,"o":"m 753 412 l 486 412 b 708 484 614 412 627 484 b NaN NaN 819 484 658 NaN b NaN NaN NaN NaN NaN NaN l NaN NaN l NaN NaN l NaN NaN l NaN NaN l NaN NaN l NaN NaN l NaN NaN b NaN NaN NaN NaN NaN NaN b NaN NaN NaN NaN NaN NaN l NaN NaN b NaN NaN NaN NaN NaN NaN b NaN NaN NaN NaN NaN NaN l NaN NaN z "},"ѧ":{"ha":3,"x_min":0,"x_max":0,"o":"m 363 475 l 380 541 l 396 475 l 465 297 l 296 297 z m 581 0 l 739 0 l 453 720 l 307 720 l 22 0 l 182 0 l 252 184 l 316 184 l 316 0 l 446 0 l 446 184 l 509 184 z "},"ѩ":{"ha":296,"x_min":0,"x_max":0,"o":"m 872 0 l 1028 0 l 742 736 l 594 736 l 426 297 l 224 297 l 224 736 l 80 736 l 80 0 l 224 0 l 224 186 l 382 186 l 311 0 l 467 0 l 536 184 l 608 184 l 608 0 l 724 0 l 724 184 l 803 184 z m 576 297 l 648 491 l 667 566 l 686 491 l 760 297 z "},"ѫ":{"ha":219,"x_min":0,"x_max":0,"o":"m 231 0 l 231 111 b 382 279 231 244 281 279 l 414 279 l 414 0 l 570 0 l 570 278 l 571 279 l 597 279 b 726 286 597 382 644 286 b 575 NaN 563 286 575 NaN l 773 NaN l 77 NaN l 277 NaN b 7 NaN 106 NaN 5 NaN l 7 NaN z m 313 NaN l 538 NaN l 426 NaN z "},"ѭ":{"ha":592,"x_min":0,"x_max":0,"o":"m 225 736 l 80 736 l 80 0 l 225 0 l 225 282 l 453 282 b 415 111 428 239 415 182 l 415 0 l 572 0 l 572 111 b 723 279 572 244 623 279 l 755 279 l 755 0 l 911 0 l 911 279 l 939 279 b 1069 283 939 381 987 283 b 918 NaN 906 283 918 NaN l 1118 NaN l 422 NaN l 621 NaN l 160 NaN z m 658 NaN l 883 NaN l 770 NaN z "},"ѯ":{"ha":-117,"x_min":0,"x_max":0,"o":"m 244 736 l 53 736 l 53 617 l 244 617 b 392 530 342 617 392 589 b 240 430 392 468 336 430 l 140 430 l 140 319 l 239 319 b 414 213 355 319 414 282 b 262 106 414 142 358 106 l 231 106 b 7 -68 84 106 7 45 b 193 -292 7 -161 79 -247 l 247 -198 b 148 -83 182 -168 148 -129 b 241 -14 148 -37 180 -14 l 274 -14 b 570 212 457 -14 571 83 b 427 380 570 298 520 353 b 549 544 505 413 549 471 b 244 736 549 663 431 736 z m 187 1015 l 68 1015 l 68 1008 l 256 826 l 342 826 l 529 1008 l 529 1015 l 411 1015 l 298 907 z "},"ѱ":{"ha":0,"x_min":0,"x_max":0,"o":""},"ѳ":{"ha":0,"x_min":0,"x_max":0,"o":""},"ѵ":{"ha":48,"x_min":0,"x_max":0,"o":""},"ѷ":{"ha":0,"x_min":0,"x_max":0,"o":""},"ѹ":{"ha":0,"x_min":0,"x_max":0,"o":""},"җ":{"ha":-198,"x_min":0,"x_max":0,"o":"l 366 0 l 366 87 l 223 87 l 223 83 "},"ҙ":{"ha":-93,"x_min":0,"x_max":0,"o":"m 193 195 l 45 195 l 48 80 l 145 3 l 282 -12 l 264 -91 l 288 NaN b 534 NaN 433 NaN 534 NaN b 388 NaN 534 NaN 473 NaN z "},"қ":{"ha":56,"x_min":0,"x_max":0,"o":"m 88 0 l 233 0 l 233 294 l 316 294 l 547 0 l 629 0 l 629 -138 l 434 -138 l 434 107 l 743 107 l 743 -38 z "},"ҝ":{"ha":35,"x_min":0,"x_max":0,"o":"m 88 0 l 233 0 l 233 294 l 298 294 l 298 165 l 401 165 l 401 294 l 449 294 l 621 0 l 788 0 l 557 378 l 784 736 l 618 736 l 429 427 l 401 427 l 401 557 l 298 557 l 298 427 l 233 427 l 233 736 l 88 736 z "},"ҡ":{"ha":199,"x_min":0,"x_max":0,"o":"m 458 736 l 47 736 l 47 612 l 313 612 l 313 0 z "},"ң":{"ha":0,"x_min":0,"x_max":0,"o":"l 113 0 l 113 138 l -26 138 l -26 757 l -168 757 l -168 450 l -485 450 "},"ҥ":{"ha":218,"x_min":0,"x_max":0,"o":"m 949 736 l 548 736 l 548 430 l 231 430 l 231 736 l 372 736 l 372 1348 l 632 1348 z "},"ҧ":{"ha":0,"x_min":0,"x_max":0,"o":"l 471 0 l 471 309 l 588 309 b 814 117 714 309 816 239 b 649 -75 814 26 758 -39 l 702 -187 b 956 117 885 -144 956 16 b 588 435 956 320 802 435 l 471 435 l 471 736 l -131 736 "},"ҩ":{"ha":130,"x_min":0,"x_max":0,"o":"m 818 -11 l 818 95 b 705 107 777 95 739 99 b 791 349 760 170 791 254 l 791 448 b 568 746 791 616 704 746 b 349 467 434 746 349 628 l 349 369 b 456 111 349 268 386 178 b 420 109 444 109 433 109 b 217 368 304 109 217 225 l 217 431 b 326 618 217 537 267 616 l 326 745 b 72 431 175 745 72 610 l 72 368 b 420 -14 72 152 213 -14 b 597 26 486 -14 546 0 b 818 -11 660 2 734 -11 z m 471 363 l 471 464 b 560 620 471 556 507 620 b 650 453 613 620 650 552 l 650 353 b 572 167 650 277 621 211 b 471 363 507 214 471 283 z "},"ҫ":{"ha":0,"x_min":0,"x_max":0,"o":""},"ҭ":{"ha":-43,"x_min":0,"x_max":0,"o":"m 47 612 l 288 612 l 288 0 l 429 0 l 429 -240 l 571 -240 l 571 115 l 430 115 l 430 612 l 670 612 l 670 736 l 47 736 z "},"ү":{"ha":0,"x_min":0,"x_max":0,"o":""},"ұ":{"ha":-47,"x_min":0,"x_max":0,"o":"m 30 736 l 255 102 l 137 102 l 137 3 l 286 3 l 286 -277 l 427 -277 l 427 3 l 578 3 l 578 102 l 458 102 "},"ҳ":{"ha":-157,"x_min":0,"x_max":0,"o":"l -29 0 l -29 203 l 707 203 l 707 269 l 470 269 l 470 411 l 825 411 l 825 288 "},"ҵ":{"ha":200,"x_min":0,"x_max":0,"o":"m 526 736 l 53 736 l 53 612 l 217 612 l 217 0 l 761 0 l 761 -212 l 902 -212 l 916 125 l 819 125 l 819 736 l 678 736 l 678 125 l 359 125 l 359 612 l 526 612 z "},"ҷ":{"ha":0,"x_min":0,"x_max":0,"o":"l 0 105 l 138 105 l 138 -135 l 281 -135 l 281 220 l 141 220 "},"ҹ":{"ha":9,"x_min":0,"x_max":0,"o":"m 437 533 l 328 533 l 328 357 b 229 496 266 372 229 416 l 229 738 l 88 738 l 88 496 b 328 229 88 334 180 246 l 328 138 l 437 138 l 437 228 b 540 245 473 230 508 237 l 540 0 l 681 0 l 681 736 l 540 736 l 540 370 b 437 353 507 361 473 355 z "},"һ":{"ha":39,"x_min":0,"x_max":0,"o":""},"ҽ":{"ha":0,"x_min":0,"x_max":0,"o":"b NaN NaN 224 NaN NaN NaN b NaN NaN NaN NaN NaN NaN b NaN NaN NaN NaN NaN NaN b NaN NaN NaN NaN NaN NaN b NaN NaN NaN NaN NaN NaN "},"ҿ":{"ha":0,"x_min":0,"x_max":0,"o":"l 224 13 l 41 117 l -84 283 l -109 266 l -191 288 b 89 486 -45 296 58 373 b -228 154 89 302 -39 178 b -354 295 -318 157 -354 210 "},"ӏ":{"ha":-410,"x_min":0,"x_max":0,"o":""},"ӂ":{"ha":0,"x_min":0,"x_max":0,"o":""},"ӄ":{"ha":32,"x_min":0,"x_max":0,"o":"m 88 0 l 233 0 l 233 294 l 368 294 b 594 113 502 294 595 220 b 434 -73 594 28 529 -47 l 481 -182 b 734 113 631 -146 734 -26 b 463 406 734 263 627 375 l 723 736 l 544 736 l 301 427 l 233 427 l 233 736 l 88 736 z "},"ӆ":{"ha":0,"x_min":0,"x_max":0,"o":""},"ӈ":{"ha":17,"x_min":0,"x_max":0,"o":"m 688 -49 l 688 0 l 689 0 l 689 736 l 548 736 l 548 430 l 231 430 l 231 736 l 229 736 l 229 688 b 133 574 229 614 184 574 b 66 581 117 574 83 575 l 57 458 b 140 449 87 450 110 449 b 370 688 283 449 370 532 z "},"ӊ":{"ha":0,"x_min":0,"x_max":0,"o":"l 104 0 l 104 99 l 52 -155 l 169 -155 l 276 186 l 146 186 l 146 836 l 5 836 l 5 529 l -313 529 "},"ӌ":{"ha":9,"x_min":0,"x_max":0,"o":"m -142 115 l -285 115 l -285 -240 l -142 -240 z "},"ӎ":{"ha":0,"x_min":0,"x_max":0,"o":"l 334 0 l 334 98 l 154 98 "},"ӑ":{"ha":0,"x_min":0,"x_max":0,"o":""},"ӓ":{"ha":0,"x_min":0,"x_max":0,"o":""},"ӕ":{"ha":0,"x_min":0,"x_max":0,"o":""},"ӗ":{"ha":0,"x_min":0,"x_max":0,"o":""},"ә":{"ha":0,"x_min":0,"x_max":0,"o":""},"ӛ":{"ha":0,"x_min":0,"x_max":0,"o":""},"ӝ":{"ha":0,"x_min":0,"x_max":0,"o":""},"ӟ":{"ha":0,"x_min":0,"x_max":0,"o":""},"ӡ":{"ha":0,"x_min":0,"x_max":0,"o":""},"ӣ":{"ha":0,"x_min":0,"x_max":0,"o":""},"ӥ":{"ha":0,"x_min":0,"x_max":0,"o":""},"ӧ":{"ha":0,"x_min":0,"x_max":0,"o":""},"ө":{"ha":0,"x_min":0,"x_max":0,"o":""},"ӫ":{"ha":0,"x_min":0,"x_max":0,"o":"b -81 28 39 0 -81 -64 b NaN NaN -81 146 -94 NaN l NaN NaN b NaN NaN NaN NaN NaN NaN "},"ӭ":{"ha":0,"x_min":0,"x_max":0,"o":""},"ӯ":{"ha":0,"x_min":0,"x_max":0,"o":""},"ӱ":{"ha":0,"x_min":0,"x_max":0,"o":""},"ӳ":{"ha":0,"x_min":0,"x_max":0,"o":""},"ӵ":{"ha":0,"x_min":0,"x_max":0,"o":""},"ӹ":{"ha":0,"x_min":0,"x_max":0,"o":""},"ӻ":{"ha":-153,"x_min":0,"x_max":0,"o":"m 560 736 l 560 264 l 252 264 l 252 -110 l 251 -110 l 251 90 l 401 90 l 401 189 l 251 189 l 251 372 l 581 372 z "},"ӽ":{"ha":-39,"x_min":0,"x_max":0,"o":"m 42 0 l 201 0 l 361 263 l 473 85 b 522 -28 502 39 518 5 b 430 -163 534 -117 481 -163 b 369 -153 416 -163 381 -159 l 358 -278 b 441 -288 387 -286 411 -288 b 663 -72 585 -288 659 -187 b 585 152 667 14 628 84 l 450 369 l 678 736 l 519 736 l 361 461 l 203 736 l 43 736 l 269 369 z "},"ӿ":{"ha":-29,"x_min":0,"x_max":0,"o":"m 203 736 l 43 736 l 239 419 l 145 419 l 145 320 l 240 320 l 42 320 l 42 0 l 199 0 l 0 320 l 98 320 l 98 419 l 0 419 l 198 736 l 39 736 l -123 450 z "},"ҁ":{"ha":-31,"x_min":0,"x_max":0,"o":"m 475 111 l 382 111 b 216 345 259 111 216 231 l 216 370 b 378 621 216 502 260 621 b 522 460 465 621 522 556 l 670 460 b 382 746 670 633 551 746 b 60 370 175 746 60 582 l 60 345 b 317 -8 60 172 150 22 l 317 -248 l 475 -248 z "},"ҍ":{"ha":33,"x_min":0,"x_max":0,"o":"m 484 962 l 274 962 l 274 1092 l 133 1092 l 133 962 l 11 962 l 11 849 l 133 849 l 133 0 l 454 0 b 736 244 636 0 736 104 b 454 484 736 385 636 484 l 274 484 l 274 849 l 484 849 "},"ҏ":{"ha":51,"x_min":0,"x_max":0,"o":"m 498 277 l 423 209 l 498 123 b 423 109 476 114 451 109 b 232 369 300 109 232 214 b 423 623 232 522 298 623 b 617 369 552 623 617 514 b 574 191 617 299 602 237 z m 90 -277 b 225 -244 139 -277 184 -266 l 293 -323 l 368 -255 l 305 -182 b 397 104 363 -117 397 -19 l 385 104 l 385 224 l 244 224 z "},"ԯ":{"ha":0,"x_min":0,"x_max":0,"o":"l 127 0 l 127 -251 l 269 -251 l 269 104 l 127 104 l 127 736 l -387 736 l -401 411 b -517 125 -410 184 -436 125 l -543 125 "},"Α":{"ha":0,"x_min":0,"x_max":0,"o":""},"Β":{"ha":109,"x_min":0,"x_max":0,"o":""},"Γ":{"ha":0,"x_min":0,"x_max":0,"o":""},"Δ":{"ha":170,"x_min":0,"x_max":0,"o":"m 26 0 l 905 0 l 551 982 l 378 982 z m 228 129 l 461 803 l 468 803 l 701 129 z "},"∆":{"ha":170,"x_min":0,"x_max":0,"o":"m 26 0 l 905 0 l 551 982 l 378 982 z m 228 129 l 461 803 l 468 803 l 701 129 z "},"Ε":{"ha":40,"x_min":0,"x_max":0,"o":""},"Ζ":{"ha":87,"x_min":0,"x_max":0,"o":""},"Η":{"ha":229,"x_min":0,"x_max":0,"o":""},"Θ":{"ha":262,"x_min":0,"x_max":0,"o":"m 704 549 l 316 549 l 316 433 l 704 433 z "},"Ι":{"ha":-410,"x_min":0,"x_max":0,"o":""},"Κ":{"ha":124,"x_min":0,"x_max":0,"o":""},"Λ":{"ha":170,"x_min":0,"x_max":0,"o":"m 184 0 l 461 803 l 468 803 l 746 0 l 905 0 z "},"Μ":{"ha":439,"x_min":0,"x_max":0,"o":""},"Ν":{"ha":234,"x_min":0,"x_max":0,"o":""},"Ξ":{"ha":3,"x_min":0,"x_max":0,"o":"m 62 0 l 700 0 l 700 127 l 62 127 z m 127 437 l 633 437 l 633 562 l 127 562 z m 69 854 l 685 854 l 685 982 l 69 982 z "},"Ο":{"ha":262,"x_min":0,"x_max":0,"o":""},"Π":{"ha":0,"x_min":0,"x_max":0,"o":""},"Ρ":{"ha":0,"x_min":0,"x_max":0,"o":""},"Σ":{"ha":94,"x_min":0,"x_max":0,"o":"m 769 133 l 298 133 l 563 476 l 563 488 l 297 834 l 743 834 l 743 967 l 84 967 l 84 865 l 391 481 l 84 100 l 84 0 l 769 0 z "},"Τ":{"ha":105,"x_min":0,"x_max":0,"o":""},"Υ":{"ha":150,"x_min":0,"x_max":0,"o":""},"Φ":{"ha":281,"x_min":0,"x_max":0,"o":"m 595 982 l 450 982 l 450 856 b 64 488 228 851 64 705 b 450 126 64 274 226 132 l 450 0 l 595 0 l 595 126 b 977 490 818 132 977 276 b 595 856 977 705 815 850 z m 208 488 b 450 722 208 631 308 718 l 450 260 b 208 488 305 265 208 350 z m 595 260 l 595 722 b 834 490 736 717 834 632 b 595 260 834 352 739 267 z "},"Χ":{"ha":0,"x_min":0,"x_max":0,"o":""},"Ψ":{"ha":0,"x_min":0,"x_max":0,"o":""},"Ω":{"ha":262,"x_min":0,"x_max":0,"o":""},"Ω":{"ha":262,"x_min":0,"x_max":0,"o":""},"Ά":{"ha":0,"x_min":0,"x_max":0,"o":""},"Έ":{"ha":201,"x_min":0,"x_max":0,"o":"m 262 0 l 883 0 l 883 129 "},"Ή":{"ha":421,"x_min":0,"x_max":0,"o":"m 293 0 "},"Ί":{"ha":0,"x_min":0,"x_max":0,"o":""},"Ό":{"ha":0,"x_min":0,"x_max":0,"o":""},"Ύ":{"ha":0,"x_min":0,"x_max":0,"o":""},"Ώ":{"ha":0,"x_min":0,"x_max":0,"o":""},"Ϊ":{"ha":0,"x_min":0,"x_max":0,"o":""},"Ϋ":{"ha":0,"x_min":0,"x_max":0,"o":""},"Ͱ":{"ha":96,"x_min":0,"x_max":0,"o":"m 745 559 l 271 559 l 271 982 l 110 982 l 110 0 l 271 0 l 271 430 l 745 430 z "},"Ͳ":{"ha":116,"x_min":0,"x_max":0,"o":"m 821 594 l 821 982 l 58 982 l 58 594 l 190 594 l 190 853 l 365 853 l 365 0 l 514 0 l 514 853 l 690 853 l 690 594 z "},"Ͷ":{"ha":252,"x_min":0,"x_max":0,"o":"m 109 982 l 109 0 l 245 0 l 743 718 l 751 718 l 751 0 l 901 0 l 901 982 l 764 982 l 264 263 l 256 263 l 256 982 z "},"Ϙ":{"ha":253,"x_min":0,"x_max":0,"o":"m 943 491 b 506 996 943 804 757 996 b 68 491 254 996 68 804 b 431 -7 68 210 218 26 l 431 -274 l 581 -274 l 581 -7 b 943 491 793 26 943 208 z m 796 491 b 506 123 796 245 669 123 b 216 491 342 123 216 245 b 506 859 216 735 342 859 b 796 491 669 859 796 735 z "},"Ϛ":{"ha":219,"x_min":0,"x_max":0,"o":"m 594 -132 l 594 -259 b 841 -64 749 -251 841 -176 b 688 110 841 20 791 77 l 463 186 b 270 461 332 229 270 319 l 270 555 b 509 863 270 754 351 863 b 712 665 628 863 693 802 l 872 665 b 506 996 852 872 715 996 b 106 555 264 996 106 821 l 106 461 b 415 52 106 252 210 115 l 623 -15 b 678 -73 665 -30 678 -46 b 594 -132 678 -111 650 -129 z "},"Ϝ":{"ha":97,"x_min":0,"x_max":0,"o":"m 663 538 l 656 538 l 656 556 l 256 556 l 256 853 l 722 853 l 722 982 l 107 982 l 107 0 l 256 0 l 256 429 l 532 429 l 532 269 l 663 269 z "},"Ϟ":{"ha":127,"x_min":0,"x_max":0,"o":"m 144 170 l 601 533 l 576 298 b 570 178 572 255 568 212 b 791 -14 572 72 647 -14 b 845 -9 807 -14 827 -12 l 856 110 b 826 107 849 107 837 107 b 713 202 754 107 718 142 b 719 292 712 216 713 248 l 777 834 l 754 850 l 292 477 l 313 713 b 316 796 317 743 317 770 b 99 996 308 924 240 996 b 42 991 81 996 60 994 l 31 871 b 60 873 39 872 47 873 b 172 784 136 873 167 845 b 171 719 175 765 174 743 l 123 183 z "},"Ϡ":{"ha":250,"x_min":0,"x_max":0,"o":"m 39 589 l 197 589 b 479 864 221 760 319 864 b 735 719 593 864 679 811 l 237 434 l 300 324 l 784 602 b 811 391 801 540 810 469 l 374 141 l 438 31 l 810 244 b 487 -140 793 8 686 -140 l 487 -288 b 971 308 793 -288 971 -54 l 971 378 b 484 997 971 746 802 997 b 39 589 197 997 64 795 z "},"Ϗ":{"ha":128,"x_min":0,"x_max":0,"o":"m 222 982 l 61 982 l 61 0 l 222 0 l 222 305 l 335 422 l 632 3 l 461 -145 l 547 -241 l 827 0 l 441 537 l 823 982 l 625 982 l 317 621 l 222 507 z "},"ϒ":{"ha":140,"x_min":0,"x_max":0,"o":""},"ϓ":{"ha":0,"x_min":0,"x_max":0,"o":""},"ϔ":{"ha":0,"x_min":0,"x_max":0,"o":""},"ϴ":{"ha":0,"x_min":0,"x_max":0,"o":""},"Ϸ":{"ha":0,"x_min":0,"x_max":0,"o":""},"Ϲ":{"ha":218,"x_min":0,"x_max":0,"o":""},"Ϻ":{"ha":439,"x_min":0,"x_max":0,"o":""},"Ͻ":{"ha":128,"x_min":0,"x_max":0,"o":"m 222 316 l 60 316 b 425 -14 79 111 217 -14 b 827 441 675 -14 827 163 l 827 541 b 433 996 827 818 681 996 b 60 670 227 996 81 876 l 222 670 b 426 863 243 815 315 863 b 665 541 598 863 665 745 l 665 439 b 423 118 665 235 586 118 b 222 316 305 118 241 179 z "},"Ͼ":{"ha":0,"x_min":0,"x_max":0,"o":""},"Ͽ":{"ha":0,"x_min":0,"x_max":0,"o":""},"Ἀ":{"ha":0,"x_min":0,"x_max":0,"o":""},"Ἁ":{"ha":0,"x_min":0,"x_max":0,"o":""},"Ἂ":{"ha":0,"x_min":0,"x_max":0,"o":""},"Ἃ":{"ha":0,"x_min":0,"x_max":0,"o":""},"Ἄ":{"ha":0,"x_min":0,"x_max":0,"o":""},"Ἅ":{"ha":0,"x_min":0,"x_max":0,"o":""},"Ἆ":{"ha":0,"x_min":0,"x_max":0,"o":""},"Ἇ":{"ha":0,"x_min":0,"x_max":0,"o":""},"Ὰ":{"ha":0,"x_min":0,"x_max":0,"o":""},"Ά":{"ha":0,"x_min":0,"x_max":0,"o":""},"Ᾰ":{"ha":0,"x_min":0,"x_max":0,"o":""},"Ᾱ":{"ha":0,"x_min":0,"x_max":0,"o":""},"ᾼ":{"ha":0,"x_min":0,"x_max":0,"o":""},"ᾈ":{"ha":0,"x_min":0,"x_max":0,"o":""},"ᾉ":{"ha":0,"x_min":0,"x_max":0,"o":""},"ᾊ":{"ha":0,"x_min":0,"x_max":0,"o":""},"ᾋ":{"ha":0,"x_min":0,"x_max":0,"o":""},"ᾌ":{"ha":0,"x_min":0,"x_max":0,"o":""},"ᾍ":{"ha":0,"x_min":0,"x_max":0,"o":""},"ᾎ":{"ha":0,"x_min":0,"x_max":0,"o":""},"ᾏ":{"ha":0,"x_min":0,"x_max":0,"o":""},"Ἐ":{"ha":219,"x_min":0,"x_max":0,"o":"m 279 0 l 901 0 l 901 129 "},"Ἑ":{"ha":214,"x_min":0,"x_max":0,"o":"m 274 0 l 895 0 l 895 129 "},"Ἒ":{"ha":482,"x_min":0,"x_max":0,"o":"m 543 0 l 1164 0 l 1164 129 "},"Ἓ":{"ha":435,"x_min":0,"x_max":0,"o":"m 495 0 "},"Ἔ":{"ha":433,"x_min":0,"x_max":0,"o":"m 495 0 "},"Ἕ":{"ha":455,"x_min":0,"x_max":0,"o":"m 517 0 l 1138 0 l 1138 129 "},"Ὲ":{"ha":276,"x_min":0,"x_max":0,"o":"m 338 0 l 959 0 l 959 129 "},"Έ":{"ha":248,"x_min":0,"x_max":0,"o":"m 309 0 l 930 0 l 930 129 "},"Ἠ":{"ha":446,"x_min":0,"x_max":0,"o":"m 317 0 "},"Ἡ":{"ha":0,"x_min":0,"x_max":0,"o":""},"Ἢ":{"ha":0,"x_min":0,"x_max":0,"o":""},"Ἣ":{"ha":0,"x_min":0,"x_max":0,"o":""},"Ἤ":{"ha":0,"x_min":0,"x_max":0,"o":""},"Ἥ":{"ha":0,"x_min":0,"x_max":0,"o":""},"Ἦ":{"ha":0,"x_min":0,"x_max":0,"o":""},"Ἧ":{"ha":0,"x_min":0,"x_max":0,"o":""},"Ὴ":{"ha":497,"x_min":0,"x_max":0,"o":"m 369 0 "},"Ή":{"ha":0,"x_min":0,"x_max":0,"o":""},"ῌ":{"ha":229,"x_min":0,"x_max":0,"o":""},"ᾘ":{"ha":404,"x_min":0,"x_max":0,"o":"m 277 0 "},"ᾙ":{"ha":0,"x_min":0,"x_max":0,"o":""},"ᾚ":{"ha":0,"x_min":0,"x_max":0,"o":""},"ᾛ":{"ha":0,"x_min":0,"x_max":0,"o":""},"ᾜ":{"ha":0,"x_min":0,"x_max":0,"o":""},"ᾝ":{"ha":0,"x_min":0,"x_max":0,"o":""},"ᾞ":{"ha":0,"x_min":0,"x_max":0,"o":""},"ᾟ":{"ha":0,"x_min":0,"x_max":0,"o":""},"Ἰ":{"ha":0,"x_min":0,"x_max":0,"o":""},"Ἱ":{"ha":0,"x_min":0,"x_max":0,"o":""},"Ἲ":{"ha":0,"x_min":0,"x_max":0,"o":""},"Ἳ":{"ha":0,"x_min":0,"x_max":0,"o":""},"Ἴ":{"ha":0,"x_min":0,"x_max":0,"o":""},"Ἵ":{"ha":0,"x_min":0,"x_max":0,"o":""},"Ἶ":{"ha":0,"x_min":0,"x_max":0,"o":""},"Ἷ":{"ha":0,"x_min":0,"x_max":0,"o":""},"Ὶ":{"ha":0,"x_min":0,"x_max":0,"o":""},"Ί":{"ha":0,"x_min":0,"x_max":0,"o":""},"Ῐ":{"ha":0,"x_min":0,"x_max":0,"o":""},"Ῑ":{"ha":0,"x_min":0,"x_max":0,"o":""},"Ὀ":{"ha":0,"x_min":0,"x_max":0,"o":""},"Ὁ":{"ha":0,"x_min":0,"x_max":0,"o":""},"Ὂ":{"ha":0,"x_min":0,"x_max":0,"o":""},"Ὃ":{"ha":0,"x_min":0,"x_max":0,"o":""},"Ὄ":{"ha":0,"x_min":0,"x_max":0,"o":""},"Ὅ":{"ha":0,"x_min":0,"x_max":0,"o":""},"Ὸ":{"ha":0,"x_min":0,"x_max":0,"o":""},"Ό":{"ha":0,"x_min":0,"x_max":0,"o":""},"Ῥ":{"ha":271,"x_min":0,"x_max":0,"o":"m 278 0 "},"Ὑ":{"ha":370,"x_min":0,"x_max":0,"o":"m 224 982 l 579 385 l 936 982 l 766 982 l 510 537 l 499 537 l 244 982 "},"Ὓ":{"ha":576,"x_min":0,"x_max":0,"o":"m 430 982 l 785 385 l 1142 982 l 972 982 l 716 537 l 705 537 l 450 982 "},"Ὕ":{"ha":650,"x_min":0,"x_max":0,"o":"m 505 982 l 860 385 l 1217 982 l 1047 982 l 791 537 l 780 537 l 525 982 "},"Ὗ":{"ha":557,"x_min":0,"x_max":0,"o":"m 411 982 l 766 385 l 1123 982 l 954 982 l 697 537 l 686 537 l 431 982 "},"Ὺ":{"ha":399,"x_min":0,"x_max":0,"o":"m 252 982 l 608 385 l 964 982 l 795 982 l 538 537 l 528 537 l 273 982 "},"Ύ":{"ha":390,"x_min":0,"x_max":0,"o":"m 243 982 l 598 385 l 955 982 l 785 982 l 529 537 l 518 537 l 263 982 "},"Ῠ":{"ha":0,"x_min":0,"x_max":0,"o":""},"Ῡ":{"ha":0,"x_min":0,"x_max":0,"o":""},"Ὠ":{"ha":0,"x_min":0,"x_max":0,"o":""},"Ὡ":{"ha":0,"x_min":0,"x_max":0,"o":""},"Ὢ":{"ha":0,"x_min":0,"x_max":0,"o":""},"Ὣ":{"ha":0,"x_min":0,"x_max":0,"o":""},"Ὤ":{"ha":0,"x_min":0,"x_max":0,"o":""},"Ὥ":{"ha":0,"x_min":0,"x_max":0,"o":""},"Ὦ":{"ha":0,"x_min":0,"x_max":0,"o":""},"Ὧ":{"ha":0,"x_min":0,"x_max":0,"o":""},"Ὼ":{"ha":375,"x_min":0,"x_max":0,"o":"m 180 0 "},"Ώ":{"ha":329,"x_min":0,"x_max":0,"o":"m 134 0 "},"ῼ":{"ha":262,"x_min":0,"x_max":0,"o":""},"ᾨ":{"ha":0,"x_min":0,"x_max":0,"o":""},"ᾩ":{"ha":0,"x_min":0,"x_max":0,"o":""},"ᾪ":{"ha":581,"x_min":0,"x_max":0,"o":""},"ᾫ":{"ha":0,"x_min":0,"x_max":0,"o":""},"ᾬ":{"ha":0,"x_min":0,"x_max":0,"o":""},"ᾭ":{"ha":0,"x_min":0,"x_max":0,"o":""},"ᾮ":{"ha":0,"x_min":0,"x_max":0,"o":""},"ᾯ":{"ha":0,"x_min":0,"x_max":0,"o":""},"Ϳ":{"ha":0,"x_min":0,"x_max":0,"o":""},"α":{"ha":0,"x_min":0,"x_max":0,"o":""},"β":{"ha":33,"x_min":0,"x_max":0,"o":"m 393 996 b 88 718 218 996 88 882 l 88 -277 l 231 -277 l 231 69 l 239 73 b 431 -12 293 7 362 -12 b 732 282 604 -12 732 114 b 594 532 732 381 688 479 b 690 735 659 584 690 662 b 393 996 690 875 571 996 z m 231 281 l 231 713 b 393 865 231 806 304 865 b 549 723 483 865 551 806 b 391 576 551 651 496 576 l 340 576 l 340 456 l 425 456 b 591 288 522 456 591 378 b 408 117 591 195 521 117 b 231 281 297 117 231 191 z "},"γ":{"ha":0,"x_min":0,"x_max":0,"o":""},"δ":{"ha":3,"x_min":0,"x_max":0,"o":"m 133 834 b 266 654 133 753 183 690 l 266 651 b 52 349 148 621 52 499 l 52 336 b 382 -14 52 136 175 -14 b 712 339 587 -14 712 137 l 712 353 b 419 726 712 532 621 655 b 288 834 312 764 288 803 b 401 903 288 875 327 903 b 572 868 465 903 534 883 l 572 994 b 395 1027 513 1016 461 1027 b 133 834 232 1027 133 951 z m 208 343 l 208 357 b 382 589 208 483 264 589 b 556 357 487 567 556 458 l 556 343 b 382 111 556 214 500 111 b 208 343 264 111 208 214 z "},"ε":{"ha":0,"x_min":0,"x_max":0,"o":""},"ζ":{"ha":-56,"x_min":0,"x_max":0,"o":"m 639 982 l 53 982 l 53 854 l 453 854 l 286 655 b 100 252 170 515 100 418 b 315 8 100 136 179 45 l 370 -8 b 461 -76 427 -24 463 -49 b 400 -189 461 -104 439 -148 l 480 -255 b 614 -49 564 -191 614 -115 b 431 110 614 18 547 76 l 355 133 b 245 264 286 153 245 202 b 407 590 245 395 307 460 l 639 888 z "},"η":{"ha":33,"x_min":0,"x_max":0,"o":""},"θ":{"ha":5,"x_min":0,"x_max":0,"o":"m 697 419 l 697 553 b 381 981 697 848 572 981 b 65 553 193 981 65 848 l 65 419 b 384 -14 65 123 194 -14 b 697 419 572 -14 697 123 z m 553 578 l 553 544 l 209 544 l 209 578 b 381 857 209 760 278 857 b 553 578 484 857 553 762 z m 209 396 l 209 420 l 553 420 l 553 396 b 384 110 553 209 486 110 b 209 396 279 110 209 213 z "},"ɩ":{"ha":-391,"x_min":0,"x_max":0,"o":""},"ι":{"ha":-391,"x_min":0,"x_max":0,"o":""},"κ":{"ha":0,"x_min":0,"x_max":0,"o":""},"λ":{"ha":25,"x_min":0,"x_max":0,"o":"m 688 -11 b 750 -3 708 -11 731 -8 l 728 114 b 703 113 723 114 711 113 b 642 175 666 113 655 140 l 400 823 b 170 996 358 939 281 996 b 77 981 130 996 96 989 l 113 860 b 278 770 203 883 240 865 l 300 715 l 34 0 l 186 0 l 366 522 l 376 522 l 515 122 b 688 -11 547 33 608 -11 z "},"μ":{"ha":87,"x_min":0,"x_max":0,"o":""},"ν":{"ha":33,"x_min":0,"x_max":0,"o":"m 308 0 l 450 0 b 726 736 631 229 723 486 l 583 736 b 396 148 576 530 544 385 l 388 148 l 186 736 l 34 736 z "},"ξ":{"ha":-31,"x_min":0,"x_max":0,"o":"m 602 844 l 627 966 b 445 996 578 985 511 996 b 122 760 251 996 122 902 b 275 563 122 666 178 598 b 73 288 144 520 73 428 b 346 7 73 137 157 50 l 412 -12 b 503 -83 477 -27 503 -46 b 438 -197 503 -107 491 -140 l 524 -260 b 655 -43 601 -198 654 -114 b 476 102 655 30 605 73 l 400 119 b 231 304 288 146 231 209 b 469 496 231 433 315 496 l 563 496 l 563 624 l 467 624 b 278 749 346 624 278 667 b 450 869 278 826 340 869 b 602 844 498 869 541 863 z "},"ο":{"ha":39,"x_min":0,"x_max":0,"o":""},"π":{"ha":127,"x_min":0,"x_max":0,"o":"m 808 736 l 52 736 l 52 616 l 164 616 l 164 0 l 307 0 l 307 616 l 556 616 l 556 191 b 730 -9 556 45 627 -9 b 837 7 777 -9 812 0 l 837 129 b 779 121 823 125 800 121 b 697 199 736 121 699 134 l 697 616 l 808 616 z "},"ρ":{"ha":6,"x_min":0,"x_max":0,"o":"m 83 381 l 83 -274 l 225 -274 "},"ς":{"ha":-32,"x_min":0,"x_max":0,"o":"m 385 746 b 60 369 184 746 60 597 l 60 345 b 376 1 60 163 161 53 b 467 -68 446 -15 467 -28 b 403 -182 467 -100 452 -129 l 486 -247 b 617 -27 557 -190 617 -110 b 422 121 617 37 581 79 b 203 345 277 159 203 235 l 203 369 b 384 621 203 521 271 621 b 522 460 469 621 522 564 l 670 460 b 385 746 670 637 557 746 z "},"σ":{"ha":94,"x_min":0,"x_max":0,"o":"m 72 365 l 72 349 b 403 -14 72 144 194 -14 b 727 323 609 -14 727 144 l 727 336 b 604 589 727 444 678 534 l 781 589 l 781 713 l 401 713 b 72 365 193 713 72 563 z m 229 349 l 229 365 b 401 589 229 486 279 589 b 570 365 522 589 570 486 l 570 349 b 403 111 570 220 522 111 b 229 349 278 111 229 220 z "},"τ":{"ha":-100,"x_min":0,"x_max":0,"o":"m 642 736 l 19 736 l 19 613 l 252 613 l 252 198 b 427 -14 252 50 313 -14 b 553 19 473 -14 510 -8 l 526 130 b 464 113 510 122 490 113 b 393 194 431 113 393 119 l 393 613 l 642 613 z "},"υ":{"ha":17,"x_min":0,"x_max":0,"o":""},"φ":{"ha":264,"x_min":0,"x_max":0,"o":"m 435 578 l 435 117 b 210 392 271 143 210 262 b 320 654 212 506 250 589 l 228 746 b 66 392 126 673 66 547 b 435 -9 66 192 164 16 l 435 -277 l 575 -277 l 575 -11 b 955 374 854 12 956 185 b 621 746 955 590 810 746 b 435 578 505 746 435 692 z m 575 115 l 575 571 b 625 625 575 601 593 625 b 814 374 741 625 810 513 b 575 115 814 251 743 139 z "},"χ":{"ha":43,"x_min":0,"x_max":0,"o":"m 71 -277 l 221 -277 l 418 98 l 538 -142 b 761 -277 595 -252 642 -277 l 795 -277 l 795 -153 l 761 -153 b 656 -84 700 -153 689 -148 l 494 232 l 766 736 l 618 736 l 419 369 l 298 602 b 76 743 239 716 195 743 l 42 743 l 42 620 l 76 620 b 180 544 138 620 142 617 l 345 235 z "},"ψ":{"ha":0,"x_min":0,"x_max":0,"o":""},"ω":{"ha":375,"x_min":0,"x_max":0,"o":""},"ί":{"ha":0,"x_min":0,"x_max":0,"o":""},"ϊ":{"ha":0,"x_min":0,"x_max":0,"o":""},"ΐ":{"ha":0,"x_min":0,"x_max":0,"o":""},"ύ":{"ha":0,"x_min":0,"x_max":0,"o":""},"ϋ":{"ha":0,"x_min":0,"x_max":0,"o":""},"ΰ":{"ha":0,"x_min":0,"x_max":0,"o":""},"ό":{"ha":0,"x_min":0,"x_max":0,"o":""},"ώ":{"ha":0,"x_min":0,"x_max":0,"o":""},"ά":{"ha":0,"x_min":0,"x_max":0,"o":""},"έ":{"ha":0,"x_min":0,"x_max":0,"o":""},"ή":{"ha":0,"x_min":0,"x_max":0,"o":""},"ͱ":{"ha":-31,"x_min":0,"x_max":0,"o":"m 351 0 l 351 290 l 680 290 l 680 415 l 351 415 l 351 540 b 130 746 351 688 243 746 b 50 738 102 746 72 742 l 50 633 b 91 637 62 636 79 637 b 194 540 149 637 194 612 l 194 0 z "},"ͳ":{"ha":5,"x_min":0,"x_max":0,"o":"m 696 982 l 68 982 l 68 662 l 193 662 l 193 857 l 309 857 l 309 0 l 456 0 l 456 857 l 570 857 l 570 662 l 696 662 z "},"ͷ":{"ha":94,"x_min":0,"x_max":0,"o":"m 240 0 l 529 505 l 529 212 b 685 -14 529 53 589 -14 b 769 7 715 -14 741 -11 l 751 122 b 735 118 749 119 743 118 b 686 212 707 118 686 138 l 686 736 l 529 736 l 240 235 l 240 736 l 84 736 l 84 0 z "},"ͻ":{"ha":0,"x_min":0,"x_max":0,"o":""},"ͼ":{"ha":-31,"x_min":0,"x_max":0,"o":"m 289 363 b 370 286 289 321 319 286 b 453 363 422 286 453 320 b 370 441 453 407 422 441 b 289 363 319 441 289 407 z m 381 -14 b 674 244 538 -14 670 99 l 528 244 b 381 111 522 164 460 111 b 210 354 241 111 210 233 l 210 378 b 380 621 210 499 243 621 b 528 469 469 621 522 556 l 674 469 b 381 746 670 633 556 746 b 54 378 161 746 54 582 l 54 354 b 381 -14 54 151 160 -14 z "},"ͽ":{"ha":-31,"x_min":0,"x_max":0,"o":"m 201 235 l 54 235 b 347 -14 58 99 174 -14 b 674 354 567 -14 674 151 l 674 378 b 347 746 674 582 568 746 b 54 460 189 746 58 633 l 201 460 b 347 621 206 568 269 621 b 518 378 487 621 518 499 l 518 354 b 349 111 518 235 486 111 b 201 235 258 111 206 178 z m 358 278 b 439 357 410 278 439 312 b 358 433 439 399 410 433 b 275 357 307 433 275 399 b 358 278 275 312 307 278 z "},"ϙ":{"ha":70,"x_min":0,"x_max":0,"o":"m 392 109 b 191 366 252 109 191 225 b 392 623 191 506 252 623 b 590 366 529 623 590 506 b 392 109 590 225 529 109 z m 50 366 b 304 -4 50 172 147 33 l 304 -275 l 460 -275 l 460 -8 b 732 366 626 21 732 165 b 392 746 732 594 597 746 b 50 366 184 746 50 594 z "},"ϛ":{"ha":-31,"x_min":0,"x_max":0,"o":"m 439 -130 l 439 -256 b 678 -69 587 -255 678 -194 b 547 94 678 24 628 68 l 373 144 b 208 351 279 171 208 221 l 208 395 b 377 621 208 509 241 621 b 524 460 467 621 518 556 l 670 460 b 377 746 666 633 551 746 b 50 393 156 746 50 585 l 50 351 b 293 28 50 138 164 66 l 458 -14 b 524 -75 496 -20 524 -41 b 439 -130 524 -111 491 -130 z "},"ϝ":{"ha":-31,"x_min":0,"x_max":0,"o":"m 644 736 l 87 736 l 87 -274 l 241 -274 l 241 259 l 463 259 l 463 138 l 587 138 l 587 382 l 241 382 l 241 614 l 644 614 z "},"ϟ":{"ha":3,"x_min":0,"x_max":0,"o":"m 700 545 l 243 545 l 412 982 l 259 982 l 64 487 l 64 420 l 524 420 l 358 0 l 511 0 l 700 484 z "},"ϡ":{"ha":218,"x_min":0,"x_max":0,"o":"m 198 1034 l 56 955 b 525 643 264 863 415 762 l 83 388 l 145 279 l 602 543 b 693 362 639 486 669 427 l 229 95 l 290 -14 l 731 239 b 779 -288 766 90 779 -83 l 922 -212 b 198 1034 924 423 765 791 z "},"ϗ":{"ha":218,"x_min":0,"x_max":0,"o":"m 292 0 l 629 461 b 666 283 638 385 652 330 b 770 -28 712 136 770 72 b 651 -138 770 -107 728 -138 b 614 -134 642 -138 625 -137 l 614 -252 b 693 -263 636 -258 670 -263 b 917 -37 842 -263 917 -163 b 796 346 917 113 849 189 b 746 620 775 410 755 498 l 831 736 l 686 736 l 359 290 l 359 515 b 146 746 359 655 288 746 b 60 735 121 746 83 741 l 60 617 b 104 623 75 621 92 623 b 214 515 170 623 214 597 l 214 92 l 146 0 z "},"ϐ":{"ha":96,"x_min":0,"x_max":0,"o":"m 464 616 b 228 514 366 616 285 576 b 247 699 228 581 234 643 b 452 662 329 667 395 662 b 685 845 617 662 685 755 b 461 1027 685 959 593 1027 b 99 496 227 1027 99 815 l 99 452 b 431 -14 99 144 214 -14 b 757 312 636 -14 757 119 b 464 616 757 506 637 616 z m 431 491 b 601 312 547 491 601 430 b 427 111 601 193 547 111 b 259 312 309 111 259 193 b 431 491 259 430 338 491 z m 288 807 b 442 906 323 869 374 906 b 533 836 509 906 533 872 b 435 776 533 807 503 776 b 288 807 397 776 346 785 z "},"ϑ":{"ha":94,"x_min":0,"x_max":0,"o":"m 779 397 l 772 524 b 690 510 745 517 717 513 l 690 738 b 458 996 690 901 601 996 b 218 751 316 996 218 903 l 218 736 b 533 380 218 551 343 414 l 533 293 b 387 115 533 176 476 115 b 228 293 289 115 228 184 l 228 491 l 77 491 l 77 293 b 388 -14 77 111 202 -14 b 690 293 567 -14 690 100 l 690 377 b 779 397 719 380 748 387 z m 372 738 l 372 755 b 452 861 372 831 403 861 b 533 746 503 861 533 827 l 533 517 b 372 738 428 548 370 632 z "},"ϕ":{"ha":211,"x_min":0,"x_max":0,"o":"m 416 -277 l 553 -277 l 553 -9 b 910 369 777 11 910 156 b 553 745 910 576 776 722 l 553 997 l 416 997 l 416 745 b 60 369 194 722 60 576 b 416 -9 60 157 194 11 z m 203 369 b 416 635 203 504 283 612 l 416 99 b 203 369 283 122 203 233 z m 553 99 l 553 635 b 768 369 688 612 768 504 b 553 99 768 233 688 122 z "},"ϖ":{"ha":378,"x_min":0,"x_max":0,"o":"m 1085 736 l 52 736 l 52 620 l 123 620 b 77 372 93 543 77 460 b 350 -14 77 123 180 -14 b 568 138 457 -14 530 40 b 787 -14 606 40 680 -14 b 1059 372 958 -14 1061 123 b 1013 620 1059 460 1044 543 l 1085 620 z m 222 365 b 275 620 222 449 235 526 l 863 620 b 914 365 902 526 914 449 b 774 111 914 206 863 111 b 648 316 699 111 648 183 l 648 483 l 488 483 l 488 316 b 362 111 488 183 438 111 b 222 365 275 111 222 206 z "},"ϰ":{"ha":218,"x_min":0,"x_max":0,"o":"m 155 0 l 301 0 l 609 420 l 609 218 b 822 -14 609 83 680 -14 b 909 -3 848 -14 887 -9 l 909 115 b 864 110 894 113 876 110 b 754 218 798 110 754 137 l 754 618 l 841 736 l 696 736 l 368 290 l 368 515 b 156 746 368 655 296 746 b 69 735 129 746 91 741 l 69 617 b 115 623 83 621 100 623 b 224 515 179 623 224 597 l 224 95 z "},"ϱ":{"ha":96,"x_min":0,"x_max":0,"o":"m 575 -313 l 701 -313 b 454 -90 701 -149 600 -119 b 231 138 342 -64 257 -7 b 457 39 288 77 363 39 b 757 366 647 39 757 180 l 757 382 b 427 746 757 597 636 746 b 99 369 218 746 99 593 l 99 316 b 425 -216 99 -16 228 -175 b 575 -313 521 -236 575 -252 z m 427 163 b 254 366 304 163 254 259 l 254 382 b 427 621 254 519 304 621 b 601 382 552 621 601 517 l 601 366 b 427 163 601 258 549 163 z "},"ϲ":{"ha":-7,"x_min":0,"x_max":0,"o":""},"ϳ":{"ha":0,"x_min":0,"x_max":0,"o":""},"ϵ":{"ha":-155,"x_min":0,"x_max":0,"o":"m 365 121 b 197 308 245 121 205 208 l 450 308 l 450 426 l 197 426 b 365 612 205 531 248 612 l 567 612 l 567 736 l 365 736 b 37 380 145 736 37 582 l 37 355 b 365 -3 37 153 144 -3 l 567 -3 l 567 121 z "},"ϸ":{"ha":0,"x_min":0,"x_max":0,"o":""},"ϻ":{"ha":218,"x_min":0,"x_max":0,"o":"m 488 194 l 273 736 l 75 736 l 75 -274 l 232 -274 l 232 498 l 435 0 l 543 0 l 746 494 l 746 0 l 903 0 l 903 736 l 707 736 z "},"ϼ":{"ha":6,"x_min":0,"x_max":0,"o":"m 83 381 l 83 -66 l -66 -66 l -66 -165 l 83 -165 l 83 -274 l 225 -274 l 225 -165 l 374 -165 l 374 -66 l 225 -66 "},"ἀ":{"ha":0,"x_min":0,"x_max":0,"o":""},"ἁ":{"ha":0,"x_min":0,"x_max":0,"o":""},"ἂ":{"ha":0,"x_min":0,"x_max":0,"o":""},"ἃ":{"ha":0,"x_min":0,"x_max":0,"o":""},"ἄ":{"ha":0,"x_min":0,"x_max":0,"o":""},"ἅ":{"ha":0,"x_min":0,"x_max":0,"o":""},"ἆ":{"ha":0,"x_min":0,"x_max":0,"o":""},"ἇ":{"ha":0,"x_min":0,"x_max":0,"o":""},"ὰ":{"ha":0,"x_min":0,"x_max":0,"o":""},"ά":{"ha":0,"x_min":0,"x_max":0,"o":""},"ᾶ":{"ha":0,"x_min":0,"x_max":0,"o":""},"ᾰ":{"ha":0,"x_min":0,"x_max":0,"o":""},"ᾱ":{"ha":0,"x_min":0,"x_max":0,"o":""},"ᾳ":{"ha":0,"x_min":0,"x_max":0,"o":""},"ᾲ":{"ha":0,"x_min":0,"x_max":0,"o":""},"ᾴ":{"ha":0,"x_min":0,"x_max":0,"o":""},"ᾀ":{"ha":0,"x_min":0,"x_max":0,"o":""},"ᾁ":{"ha":0,"x_min":0,"x_max":0,"o":""},"ᾂ":{"ha":0,"x_min":0,"x_max":0,"o":""},"ᾃ":{"ha":0,"x_min":0,"x_max":0,"o":""},"ᾄ":{"ha":0,"x_min":0,"x_max":0,"o":""},"ᾅ":{"ha":0,"x_min":0,"x_max":0,"o":""},"ᾆ":{"ha":0,"x_min":0,"x_max":0,"o":""},"ᾇ":{"ha":0,"x_min":0,"x_max":0,"o":""},"ᾷ":{"ha":0,"x_min":0,"x_max":0,"o":""},"ἐ":{"ha":0,"x_min":0,"x_max":0,"o":""},"ἑ":{"ha":0,"x_min":0,"x_max":0,"o":""},"ἒ":{"ha":-28,"x_min":0,"x_max":0,"o":"m -274 -812 b 713 -366 -274 -237 579 -366 b 808 -65 629 -366 808 -194 b NaN 33 808 20 951 33 l NaN 33 b NaN -76 NaN -41 NaN -76 b NaN 28 NaN -76 NaN -31 b NaN 141 NaN 95 NaN 141 l NaN 141 l NaN 252 l NaN 252 b NaN 345 NaN 252 NaN 288 b NaN 446 NaN 403 NaN 446 b NaN 350 NaN 446 NaN 410 l NaN 350 b NaN 564 NaN 484 NaN 564 b NaN 349 NaN 564 NaN 486 b NaN 189 NaN 287 NaN 218 b NaN 18 NaN 157 NaN 85 z "},"ἓ":{"ha":0,"x_min":0,"x_max":0,"o":""},"ἔ":{"ha":0,"x_min":0,"x_max":0,"o":""},"ἕ":{"ha":0,"x_min":0,"x_max":0,"o":""},"ὲ":{"ha":0,"x_min":0,"x_max":0,"o":""},"έ":{"ha":0,"x_min":0,"x_max":0,"o":""},"ἠ":{"ha":0,"x_min":0,"x_max":0,"o":""},"ἡ":{"ha":0,"x_min":0,"x_max":0,"o":""},"ἢ":{"ha":0,"x_min":0,"x_max":0,"o":""},"ἣ":{"ha":0,"x_min":0,"x_max":0,"o":""},"ἤ":{"ha":0,"x_min":0,"x_max":0,"o":""},"ἥ":{"ha":0,"x_min":0,"x_max":0,"o":""},"ἦ":{"ha":0,"x_min":0,"x_max":0,"o":""},"ἧ":{"ha":0,"x_min":0,"x_max":0,"o":""},"ὴ":{"ha":0,"x_min":0,"x_max":0,"o":""},"ή":{"ha":0,"x_min":0,"x_max":0,"o":""},"ῆ":{"ha":0,"x_min":0,"x_max":0,"o":""},"ῃ":{"ha":33,"x_min":0,"x_max":0,"o":""},"ῂ":{"ha":0,"x_min":0,"x_max":0,"o":""},"ῄ":{"ha":0,"x_min":0,"x_max":0,"o":""},"ᾐ":{"ha":0,"x_min":0,"x_max":0,"o":""},"ᾑ":{"ha":0,"x_min":0,"x_max":0,"o":""},"ᾒ":{"ha":0,"x_min":0,"x_max":0,"o":""},"ᾓ":{"ha":0,"x_min":0,"x_max":0,"o":""},"ᾔ":{"ha":0,"x_min":0,"x_max":0,"o":""},"ᾕ":{"ha":0,"x_min":0,"x_max":0,"o":""},"ᾖ":{"ha":0,"x_min":0,"x_max":0,"o":""},"ᾗ":{"ha":0,"x_min":0,"x_max":0,"o":""},"ῇ":{"ha":0,"x_min":0,"x_max":0,"o":""},"ἰ":{"ha":0,"x_min":0,"x_max":0,"o":""},"ἱ":{"ha":0,"x_min":0,"x_max":0,"o":""},"ἲ":{"ha":0,"x_min":0,"x_max":0,"o":""},"ἳ":{"ha":0,"x_min":0,"x_max":0,"o":""},"ἴ":{"ha":0,"x_min":0,"x_max":0,"o":""},"ἵ":{"ha":0,"x_min":0,"x_max":0,"o":""},"ἶ":{"ha":0,"x_min":0,"x_max":0,"o":""},"ἷ":{"ha":0,"x_min":0,"x_max":0,"o":""},"ὶ":{"ha":0,"x_min":0,"x_max":0,"o":""},"ί":{"ha":0,"x_min":0,"x_max":0,"o":""},"ῖ":{"ha":0,"x_min":0,"x_max":0,"o":""},"ῐ":{"ha":0,"x_min":0,"x_max":0,"o":""},"ῑ":{"ha":0,"x_min":0,"x_max":0,"o":""},"ῒ":{"ha":0,"x_min":0,"x_max":0,"o":""},"ΐ":{"ha":-391,"x_min":0,"x_max":0,"o":"m -127 54 l -430 54 l -430 282 l -339 282 l -224 423 l -353 423 z "},"ῗ":{"ha":0,"x_min":0,"x_max":0,"o":""},"ὀ":{"ha":0,"x_min":0,"x_max":0,"o":""},"ὁ":{"ha":0,"x_min":0,"x_max":0,"o":""},"ὂ":{"ha":0,"x_min":0,"x_max":0,"o":""},"ὃ":{"ha":0,"x_min":0,"x_max":0,"o":""},"ὄ":{"ha":0,"x_min":0,"x_max":0,"o":""},"ὅ":{"ha":0,"x_min":0,"x_max":0,"o":""},"ὸ":{"ha":0,"x_min":0,"x_max":0,"o":""},"ό":{"ha":0,"x_min":0,"x_max":0,"o":""},"ῤ":{"ha":0,"x_min":0,"x_max":0,"o":""},"ῥ":{"ha":0,"x_min":0,"x_max":0,"o":""},"ὐ":{"ha":0,"x_min":0,"x_max":0,"o":""},"ὑ":{"ha":0,"x_min":0,"x_max":0,"o":""},"ὒ":{"ha":0,"x_min":0,"x_max":0,"o":""},"ὓ":{"ha":0,"x_min":0,"x_max":0,"o":""},"ὔ":{"ha":0,"x_min":0,"x_max":0,"o":""},"ὕ":{"ha":0,"x_min":0,"x_max":0,"o":""},"ὖ":{"ha":0,"x_min":0,"x_max":0,"o":""},"ὗ":{"ha":0,"x_min":0,"x_max":0,"o":""},"ὺ":{"ha":0,"x_min":0,"x_max":0,"o":""},"ύ":{"ha":0,"x_min":0,"x_max":0,"o":""},"ῦ":{"ha":0,"x_min":0,"x_max":0,"o":""},"ῠ":{"ha":0,"x_min":0,"x_max":0,"o":""},"ῡ":{"ha":0,"x_min":0,"x_max":0,"o":""},"ῢ":{"ha":0,"x_min":0,"x_max":0,"o":""},"ΰ":{"ha":17,"x_min":0,"x_max":0,"o":"m -127 54 l -216 54 l -216 282 l -125 282 l -9 423 l -138 423 z "},"ῧ":{"ha":0,"x_min":0,"x_max":0,"o":""},"ὠ":{"ha":0,"x_min":0,"x_max":0,"o":""},"ὡ":{"ha":0,"x_min":0,"x_max":0,"o":""},"ὢ":{"ha":0,"x_min":0,"x_max":0,"o":""},"ὣ":{"ha":0,"x_min":0,"x_max":0,"o":""},"ὤ":{"ha":0,"x_min":0,"x_max":0,"o":""},"ὥ":{"ha":0,"x_min":0,"x_max":0,"o":""},"ὦ":{"ha":0,"x_min":0,"x_max":0,"o":""},"ὧ":{"ha":0,"x_min":0,"x_max":0,"o":""},"ὼ":{"ha":0,"x_min":0,"x_max":0,"o":""},"ώ":{"ha":0,"x_min":0,"x_max":0,"o":""},"ῶ":{"ha":0,"x_min":0,"x_max":0,"o":""},"ῳ":{"ha":375,"x_min":0,"x_max":0,"o":""},"ῲ":{"ha":0,"x_min":0,"x_max":0,"o":""},"ῴ":{"ha":0,"x_min":0,"x_max":0,"o":""},"ᾠ":{"ha":0,"x_min":0,"x_max":0,"o":""},"ᾡ":{"ha":0,"x_min":0,"x_max":0,"o":""},"ᾢ":{"ha":0,"x_min":0,"x_max":0,"o":""},"ᾣ":{"ha":0,"x_min":0,"x_max":0,"o":""},"ᾤ":{"ha":0,"x_min":0,"x_max":0,"o":""},"ᾥ":{"ha":0,"x_min":0,"x_max":0,"o":""},"ᾦ":{"ha":0,"x_min":0,"x_max":0,"o":""},"ᾧ":{"ha":0,"x_min":0,"x_max":0,"o":""},"ῷ":{"ha":0,"x_min":0,"x_max":0,"o":""},"ι":{"ha":-401,"x_min":0,"x_max":0,"o":""},"ͺ":{"ha":-401,"x_min":0,"x_max":0,"o":""},"ㄱ":{"ha":0,"x_min":0,"x_max":0,"o":"m 983 811 l 217 811 l 217 707 l 856 707 l 856 172 l 983 172 z "},"ﾡ":{"ha":0,"x_min":0,"x_max":0,"o":"m 983 811 l 217 811 l 217 707 l 856 707 l 856 172 l 983 172 z "},"ㄲ":{"ha":0,"x_min":0,"x_max":0,"o":"m 587 811 l 157 811 l 157 707 l 463 707 l 463 172 l 587 172 z m 1076 815 l 655 815 l 655 709 l 948 709 l 948 174 l 1076 174 z "},"ﾢ":{"ha":0,"x_min":0,"x_max":0,"o":"m 587 811 l 157 811 l 157 707 l 463 707 l 463 172 l 587 172 z m 1076 815 l 655 815 l 655 709 l 948 709 l 948 174 l 1076 174 z "},"ㄳ":{"ha":0,"x_min":0,"x_max":0,"o":"m 547 810 l 152 810 l 152 705 l 419 705 l 419 172 l 547 172 z m 899 598 l 899 823 l 776 823 l 776 598 b 553 256 774 460 711 316 l 623 161 b 837 387 730 207 798 288 b 1050 161 873 288 942 207 l 1119 256 b 899 598 963 316 899 460 z "},"ﾣ":{"ha":0,"x_min":0,"x_max":0,"o":"m 547 810 l 152 810 l 152 705 l 419 705 l 419 172 l 547 172 z m 899 598 l 899 823 l 776 823 l 776 598 b 553 256 774 460 711 316 l 623 161 b 837 387 730 207 798 288 b 1050 161 873 288 942 207 l 1119 256 b 899 598 963 316 899 460 z "},"ㄴ":{"ha":0,"x_min":0,"x_max":0,"o":"m 1002 289 l 351 289 l 351 811 l 222 811 l 222 184 l 1002 184 z "},"ﾤ":{"ha":0,"x_min":0,"x_max":0,"o":"m 1002 289 l 351 289 l 351 811 l 222 811 l 222 184 l 1002 184 z "},"ㄵ":{"ha":0,"x_min":0,"x_max":0,"o":"m 309 815 l 179 815 l 179 160 l 240 160 b 559 191 355 160 450 163 l 557 205 l 597 155 b 799 388 698 202 762 286 b 901 305 835 286 901 201 b 742 263 901 256 742 323 b 894 NaN 742 419 894 NaN l 894 NaN l 1070 NaN l 1070 NaN l 597 NaN l 597 NaN l 772 NaN l 772 NaN b 582 NaN 770 NaN 719 NaN l 576 NaN b 343 NaN 500 NaN 424 NaN z "},"ﾥ":{"ha":0,"x_min":0,"x_max":0,"o":"m 309 815 l 179 815 l 179 160 l 240 160 b 559 191 355 160 450 163 l 557 205 l 597 155 b 799 388 698 202 762 286 b 901 305 835 286 901 201 b 742 263 901 256 742 323 b 894 NaN 742 419 894 NaN l 894 NaN l 1070 NaN l 1070 NaN l 597 NaN l 597 NaN l 772 NaN l 772 NaN b 582 NaN 770 NaN 719 NaN l 576 NaN b 343 NaN 500 NaN 424 NaN z "},"ㄶ":{"ha":0,"x_min":0,"x_max":0,"o":"m 305 793 l 178 793 l 178 168 l 240 168 b 559 201 354 167 450 168 l 543 304 b 305 273 465 281 387 274 z m 1039 715 l 860 715 l 860 831 l 736 831 l 736 715 l 545 715 l 545 610 l 1039 610 b 754 395 795 610 754 521 b 966 180 754 269 845 180 b 1175 395 1084 180 1175 269 b 966 610 1175 521 1084 610 z m 966 509 b 1067 395 1024 509 1067 464 b 966 281 1067 327 1024 282 b 864 395 906 282 864 327 b 966 509 864 464 906 509 z "},"ﾦ":{"ha":0,"x_min":0,"x_max":0,"o":"m 305 793 l 178 793 l 178 168 l 240 168 b 559 201 354 167 450 168 l 543 304 b 305 273 465 281 387 274 z m 1039 715 l 860 715 l 860 831 l 736 831 l 736 715 l 545 715 l 545 610 l 1039 610 b 754 395 795 610 754 521 b 966 180 754 269 845 180 b 1175 395 1084 180 1175 269 b 966 610 1175 521 1084 610 z m 966 509 b 1067 395 1024 509 1067 464 b 966 281 1067 327 1024 282 b 864 395 906 282 864 327 b 966 509 864 464 906 509 z "},"ㄷ":{"ha":0,"x_min":0,"x_max":0,"o":"m 979 818 l 227 818 l 227 175 l 990 175 l 990 277 l 355 277 l 355 713 l 979 713 z "},"ﾧ":{"ha":0,"x_min":0,"x_max":0,"o":"m 979 818 l 227 818 l 227 175 l 990 175 l 990 277 l 355 277 l 355 713 l 979 713 z "},"ㄸ":{"ha":0,"x_min":0,"x_max":0,"o":"m 574 818 l 184 818 l 184 183 l 250 183 b 590 216 368 183 469 187 l 578 321 b 311 293 485 299 401 294 l 311 713 l 574 713 z m 1021 818 l 635 818 l 635 182 l 1028 182 l 1028 286 l 761 286 l 761 713 l 1021 713 z "},"ﾨ":{"ha":0,"x_min":0,"x_max":0,"o":"m 574 818 l 184 818 l 184 183 l 250 183 b 590 216 368 183 469 187 l 578 321 b 311 293 485 299 401 294 l 311 713 l 574 713 z m 1021 818 l 635 818 l 635 182 l 1028 182 l 1028 286 l 761 286 l 761 713 l 1021 713 z "},"ㄹ":{"ha":0,"x_min":0,"x_max":0,"o":"m 983 831 l 213 831 l 213 728 l 860 728 l 860 553 l 216 553 l 216 167 l 1004 167 l 1004 273 l 338 273 l 338 452 l 983 452 z "},"ﾩ":{"ha":0,"x_min":0,"x_max":0,"o":"m 983 831 l 213 831 l 213 728 l 860 728 l 860 553 l 216 553 l 216 167 l 1004 167 l 1004 273 l 338 273 l 338 452 l 983 452 z "},"ㄺ":{"ha":0,"x_min":0,"x_max":0,"o":"l 581 0 l 581 823 l 416 823 l 416 543 l 34 543 l 34 618 b 441 648 176 618 296 621 l 427 753 b 85 722 307 729 202 723 l 85 895 l 366 895 m 821 1270 l 408 1270 l 408 1165 l 694 1165 l 694 621 l 821 621 z "},"ﾪ":{"ha":0,"x_min":0,"x_max":0,"o":"l 581 0 l 581 823 l 416 823 l 416 543 l 34 543 l 34 618 b 441 648 176 618 296 621 l 427 753 b 85 722 307 729 202 723 l 85 895 l 366 895 m 821 1270 l 408 1270 l 408 1165 l 694 1165 l 694 621 l 821 621 z "},"ㄻ":{"ha":0,"x_min":0,"x_max":0,"o":"l -382 0 l -382 69 b -15 96 -258 69 -151 72 l -28 198 b -324 172 -137 179 -228 174 l -324 345 l -49 345 m 434 719 l 12 719 l 12 72 l 434 72 z m 126 616 l 321 616 l 321 174 l 126 174 z "},"ﾫ":{"ha":0,"x_min":0,"x_max":0,"o":"l -382 0 l -382 69 b -15 96 -258 69 -151 72 l -28 198 b -324 172 -137 179 -228 174 l -324 345 l -49 345 m 434 719 l 12 719 l 12 72 l 434 72 z m 126 616 l 321 616 l 321 174 l 126 174 z "},"ㄼ":{"ha":0,"x_min":0,"x_max":0,"o":"l -384 0 l -384 69 b -12 99 -254 69 -146 72 l -26 202 b -326 174 -133 180 -226 174 l -326 346 l -50 346 m 129 723 l 8 723 l 8 69 l 434 69 l 434 723 l 313 723 l 313 506 l 129 506 z m 129 175 l 129 401 l 313 401 l 313 175 z "},"ﾬ":{"ha":0,"x_min":0,"x_max":0,"o":"l -384 0 l -384 69 b -12 99 -254 69 -146 72 l -26 202 b -326 174 -133 180 -226 174 l -326 346 l -50 346 m 129 723 l 8 723 l 8 69 l 434 69 l 434 723 l 313 723 l 313 506 l 129 506 z m 129 175 l 129 401 l 313 401 l 313 175 z "},"ㄽ":{"ha":0,"x_min":0,"x_max":0,"o":"m 570 822 l 165 822 l 165 718 l 442 718 l 442 555 l 167 555 l 167 172 l 236 172 b 606 205 369 172 479 176 l 605 216 l 639 168 b 846 391 743 212 809 293 b 1053 168 882 293 948 212 l 1122 262 b 906 601 968 323 906 464 l 906 827 l 784 827 l 784 601 b 598 274 784 472 728 340 l 593 309 b 294 277 491 284 397 277 l 294 448 l 570 448 z "},"ﾭ":{"ha":0,"x_min":0,"x_max":0,"o":"m 570 822 l 165 822 l 165 718 l 442 718 l 442 555 l 167 555 l 167 172 l 236 172 b 606 205 369 172 479 176 l 605 216 l 639 168 b 846 391 743 212 809 293 b 1053 168 882 293 948 212 l 1122 262 b 906 601 968 323 906 464 l 906 827 l 784 827 l 784 601 b 598 274 784 472 728 340 l 593 309 b 294 277 491 284 397 277 l 294 448 l 570 448 z "},"ㄾ":{"ha":0,"x_min":0,"x_max":0,"o":"m 572 822 l 168 822 l 168 718 l 446 718 l 446 555 l 171 555 l 171 174 l 239 174 b 609 206 373 174 483 176 l 595 312 b 298 278 493 286 401 279 l 298 448 l 572 448 z m 1054 822 l 643 822 l 643 171 l 1062 171 l 1062 275 l 770 275 l 770 449 l 1039 449 l 1039 553 l 770 553 l 770 718 l 1054 718 z "},"ﾮ":{"ha":0,"x_min":0,"x_max":0,"o":"m 572 822 l 168 822 l 168 718 l 446 718 l 446 555 l 171 555 l 171 174 l 239 174 b 609 206 373 174 483 176 l 595 312 b 298 278 493 286 401 279 l 298 448 l 572 448 z m 1054 822 l 643 822 l 643 171 l 1062 171 l 1062 275 l 770 275 l 770 449 l 1039 449 l 1039 553 l 770 553 l 770 718 l 1054 718 z "},"ㄿ":{"ha":0,"x_min":0,"x_max":0,"o":"m 559 822 l 168 822 l 168 718 l 433 718 l 433 555 l 171 555 l 171 172 l 239 172 b 602 205 368 172 476 176 l 587 309 b 297 277 488 284 397 277 l 297 448 l 559 448 z m 1072 821 l 616 821 l 616 716 l 684 716 l 684 275 l 612 275 l 612 172 l 1077 172 l 1077 275 l 1006 275 l 1006 716 l 1072 716 z m 795 275 l 795 716 l 891 716 l 891 275 z "},"ﾯ":{"ha":0,"x_min":0,"x_max":0,"o":"m 559 822 l 168 822 l 168 718 l 433 718 l 433 555 l 171 555 l 171 172 l 239 172 b 602 205 368 172 476 176 l 587 309 b 297 277 488 284 397 277 l 297 448 l 559 448 z m 1072 821 l 616 821 l 616 716 l 684 716 l 684 275 l 612 275 l 612 172 l 1077 172 l 1077 275 l 1006 275 l 1006 716 l 1072 716 z m 795 275 l 795 716 l 891 716 l 891 275 z "},"ㅀ":{"ha":0,"x_min":0,"x_max":0,"o":"m 544 822 l 174 822 l 174 722 l 418 722 l 418 556 l 175 556 l 175 172 l 244 172 b 595 202 366 172 473 175 l 582 305 b 304 277 486 284 398 277 l 304 454 l 544 454 z m 1076 728 l 901 728 l 901 853 l 776 853 l 776 728 l 594 728 l 594 624 l 1076 624 z m 834 583 b 623 372 715 583 623 495 b 834 161 623 248 715 160 b 1043 372 952 160 1043 248 b 834 583 1043 495 952 583 z m 834 481 b 935 372 892 481 935 438 b 834 260 935 304 892 260 b 731 372 773 260 731 304 b 834 481 731 438 773 481 z "},"ﾰ":{"ha":0,"x_min":0,"x_max":0,"o":"m 544 822 l 174 822 l 174 722 l 418 722 l 418 556 l 175 556 l 175 172 l 244 172 b 595 202 366 172 473 175 l 582 305 b 304 277 486 284 398 277 l 304 454 l 544 454 z m 1076 728 l 901 728 l 901 853 l 776 853 l 776 728 l 594 728 l 594 624 l 1076 624 z m 834 583 b 623 372 715 583 623 495 b 834 161 623 248 715 160 b 1043 372 952 160 1043 248 b 834 583 1043 495 952 583 z m 834 481 b 935 372 892 481 935 438 b 834 260 935 304 892 260 b 731 372 773 260 731 304 b 834 481 731 438 773 481 z "},"ㅁ":{"ha":0,"x_min":0,"x_max":0,"o":"m 990 815 l 221 815 l 221 178 l 990 178 z m 350 709 l 861 709 l 861 282 l 350 282 z "},"ﾱ":{"ha":0,"x_min":0,"x_max":0,"o":"m 990 815 l 221 815 l 221 178 l 990 178 z m 350 709 l 861 709 l 861 282 l 350 282 z "},"ㅂ":{"ha":0,"x_min":0,"x_max":0,"o":"m 350 831 l 224 831 l 224 171 l 987 171 l 987 831 l 857 831 l 857 616 l 350 616 z m 350 283 l 350 503 l 857 503 l 857 283 z "},"ﾲ":{"ha":0,"x_min":0,"x_max":0,"o":"m 350 831 l 224 831 l 224 171 l 987 171 l 987 831 l 857 831 l 857 616 l 350 616 z m 350 283 l 350 503 l 857 503 l 857 283 z "},"ㅃ":{"ha":0,"x_min":0,"x_max":0,"o":"m 305 821 l 187 821 l 187 172 l 587 172 l 587 821 l 471 821 l 471 608 l 305 608 z m 305 278 l 305 503 l 471 503 l 471 278 z m 755 821 l 636 821 l 636 172 l 1039 172 l 1039 821 l 918 821 l 918 608 l 755 608 z m 755 278 l 755 503 l 918 503 l 918 278 z "},"ﾳ":{"ha":0,"x_min":0,"x_max":0,"o":"m 305 821 l 187 821 l 187 172 l 587 172 l 587 821 l 471 821 l 471 608 l 305 608 z m 305 278 l 305 503 l 471 503 l 471 278 z m 755 821 l 636 821 l 636 172 l 1039 172 l 1039 821 l 918 821 l 918 608 l 755 608 z m 755 278 l 755 503 l 918 503 l 918 278 z "},"ㅄ":{"ha":0,"x_min":0,"x_max":0,"o":"m 916 598 l 916 823 l 793 823 l 793 598 b 587 263 792 465 732 326 l 587 821 l 471 821 l 471 608 l 305 608 l 305 821 l 187 821 l 187 172 l 587 172 l 587 233 l 639 161 b 854 387 746 207 815 288 b 1069 161 891 288 960 207 l 1137 256 b 916 598 981 316 914 460 z m 305 278 l 305 503 l 471 503 l 471 278 z "},"ﾴ":{"ha":0,"x_min":0,"x_max":0,"o":"m 916 598 l 916 823 l 793 823 l 793 598 b 587 263 792 465 732 326 l 587 821 l 471 821 l 471 608 l 305 608 l 305 821 l 187 821 l 187 172 l 587 172 l 587 233 l 639 161 b 854 387 746 207 815 288 b 1069 161 891 288 960 207 l 1137 256 b 916 598 981 316 914 460 z m 305 278 l 305 503 l 471 503 l 471 278 z "},"ㅅ":{"ha":0,"x_min":0,"x_max":0,"o":"m 669 647 l 669 838 l 543 838 l 543 647 b 168 259 543 452 395 309 l 231 156 b 606 434 404 199 539 294 b 981 156 673 294 808 199 l 1043 259 b 669 647 817 309 669 452 z "},"ﾵ":{"ha":0,"x_min":0,"x_max":0,"o":"m 669 647 l 669 838 l 543 838 l 543 647 b 168 259 543 452 395 309 l 231 156 b 606 434 404 199 539 294 b 981 156 673 294 808 199 l 1043 259 b 669 647 817 309 669 452 z "},"ㅆ":{"ha":0,"x_min":0,"x_max":0,"o":"m 454 665 l 454 807 l 326 807 l 326 667 b 103 289 324 533 264 365 l 176 195 b 392 457 286 249 355 347 b 613 179 428 342 498 235 b 834 453 726 235 797 338 b 1051 197 871 343 940 250 l 1123 292 b 902 667 960 362 902 522 l 902 807 l 772 807 l 772 665 b 613 316 772 545 724 405 b 454 665 500 407 453 551 z "},"ﾶ":{"ha":0,"x_min":0,"x_max":0,"o":"m 454 665 l 454 807 l 326 807 l 326 667 b 103 289 324 533 264 365 l 176 195 b 392 457 286 249 355 347 b 613 179 428 342 498 235 b 834 453 726 235 797 338 b 1051 197 871 343 940 250 l 1123 292 b 902 667 960 362 902 522 l 902 807 l 772 807 l 772 665 b 613 316 772 545 724 405 b 454 665 500 407 453 551 z "},"ㅇ":{"ha":0,"x_min":0,"x_max":0,"o":"m 601 837 b 216 499 387 836 216 696 b 601 161 216 302 387 161 b 987 499 815 161 986 302 b 601 837 986 696 815 836 z m 601 724 b 861 499 747 724 860 632 b 601 270 860 366 747 270 b 454 366 454 270 339 366 b NaN NaN 547 366 693 NaN z "},"ﾷ":{"ha":0,"x_min":0,"x_max":0,"o":"m 601 837 b 216 499 387 836 216 696 b 601 161 216 302 387 161 b 987 499 815 161 986 302 b 601 837 986 696 815 836 z m 601 724 b 861 499 747 724 860 632 b 601 270 860 366 747 270 b 454 366 454 270 339 366 b NaN NaN 547 366 693 NaN z "},"ㅈ":{"ha":0,"x_min":0,"x_max":0,"o":"m 673 658 l 673 724 l 994 724 l 994 830 l 229 830 l 229 724 l 544 724 l 544 658 b 191 263 544 464 407 317 l 254 161 b 609 452 420 209 548 309 b 966 161 670 309 797 209 l 1027 263 b 673 658 810 317 673 464 z "},"ﾸ":{"ha":0,"x_min":0,"x_max":0,"o":"m 673 658 l 673 724 l 994 724 l 994 830 l 229 830 l 229 724 l 544 724 l 544 658 b 191 263 544 464 407 317 l 254 161 b 609 452 420 209 548 309 b 966 161 670 309 797 209 l 1027 263 b 673 658 810 317 673 464 z "},"ㅉ":{"ha":0,"x_min":0,"x_max":0,"o":"m 444 686 l 444 731 l 587 731 l 587 837 l 149 837 l 149 731 l 316 731 l 316 686 b 90 278 316 524 256 351 l 168 175 b 373 407 268 224 334 307 b 613 157 413 291 488 205 b 852 406 738 205 812 290 b 1053 175 890 306 954 224 l 1131 277 b 909 686 964 354 909 525 l 909 731 l 1074 731 l 1074 837 l 637 837 l 637 731 l 781 731 l 781 686 b 613 298 781 509 736 368 b 444 686 488 368 444 509 z "},"ﾹ":{"ha":0,"x_min":0,"x_max":0,"o":"m 444 686 l 444 731 l 587 731 l 587 837 l 149 837 l 149 731 l 316 731 l 316 686 b 90 278 316 524 256 351 l 168 175 b 373 407 268 224 334 307 b 613 157 413 291 488 205 b 852 406 738 205 812 290 b 1053 175 890 306 954 224 l 1131 277 b 909 686 964 354 909 525 l 909 731 l 1074 731 l 1074 837 l 637 837 l 637 731 l 781 731 l 781 686 b 613 298 781 509 736 368 b 444 686 488 368 444 509 z "},"ㅊ":{"ha":0,"x_min":0,"x_max":0,"o":"m 678 585 l 678 614 l 987 614 l 987 720 l 669 720 l 669 897 l 538 897 l 538 720 l 218 720 l 218 614 l 525 614 l 525 585 b 182 236 525 414 397 282 l 243 137 b 601 410 415 178 543 273 b 963 137 660 273 790 178 l 1023 236 b 678 585 807 282 677 414 z "},"ﾺ":{"ha":0,"x_min":0,"x_max":0,"o":"m 678 585 l 678 614 l 987 614 l 987 720 l 669 720 l 669 897 l 538 897 l 538 720 l 218 720 l 218 614 l 525 614 l 525 585 b 182 236 525 414 397 282 l 243 137 b 601 410 415 178 543 273 b 963 137 660 273 790 178 l 1023 236 b 678 585 807 282 677 414 z "},"ㅋ":{"ha":0,"x_min":0,"x_max":0,"o":"m 991 833 l 233 833 l 233 727 l 863 727 l 863 540 l 206 510 l 222 395 l 863 438 l 863 161 l 991 161 z "},"ﾻ":{"ha":0,"x_min":0,"x_max":0,"o":"m 991 833 l 233 833 l 233 727 l 863 727 l 863 540 l 206 510 l 222 395 l 863 438 l 863 161 l 991 161 z "},"ㅌ":{"ha":0,"x_min":0,"x_max":0,"o":"m 987 821 l 224 821 l 224 171 l 1000 171 l 1000 275 l 351 275 l 351 449 l 978 449 l 978 555 l 351 555 l 351 716 l 987 716 z "},"ﾼ":{"ha":0,"x_min":0,"x_max":0,"o":"m 987 821 l 224 821 l 224 171 l 1000 171 l 1000 275 l 351 275 l 351 449 l 978 449 l 978 555 l 351 555 l 351 716 l 987 716 z "},"ㅍ":{"ha":0,"x_min":0,"x_max":0,"o":"m 1001 819 l 210 819 l 210 713 l 358 713 l 358 269 l 193 269 l 193 164 l 1021 164 l 1021 269 l 854 269 l 854 713 l 1001 713 z m 488 269 l 488 713 l 726 713 l 726 269 z "},"ﾽ":{"ha":0,"x_min":0,"x_max":0,"o":"m 1001 819 l 210 819 l 210 713 l 358 713 l 358 269 l 193 269 l 193 164 l 1021 164 l 1021 269 l 854 269 l 854 713 l 1001 713 z m 488 269 l 488 713 l 726 713 l 726 269 z "},"ㅎ":{"ha":0,"x_min":0,"x_max":0,"o":"m 1013 749 l 673 749 l 673 907 l 544 907 l 544 749 l 199 749 l 199 642 l 1013 642 z m 606 563 b 170 469 430 563 301 469 b 340 376 35 469 164 376 b 518 469 518 376 647 469 b NaN NaN 612 469 434 NaN z m NaN NaN b NaN NaN NaN NaN NaN NaN b NaN NaN NaN NaN NaN NaN b NaN NaN NaN NaN NaN NaN b NaN NaN NaN NaN NaN NaN z "},"ﾾ":{"ha":0,"x_min":0,"x_max":0,"o":"m 1013 749 l 673 749 l 673 907 l 544 907 l 544 749 l 199 749 l 199 642 l 1013 642 z m 606 563 b 170 469 430 563 301 469 b 340 376 35 469 164 376 b 518 469 518 376 647 469 b NaN NaN 612 469 434 NaN z m NaN NaN b NaN NaN NaN NaN NaN NaN b NaN NaN NaN NaN NaN NaN b NaN NaN NaN NaN NaN NaN b NaN NaN NaN NaN NaN NaN z "},"ㅏ":{"ha":0,"x_min":0,"x_max":0,"o":"m 627 1081 l 499 1081 l 499 -114 l 627 -114 l 627 495 l 903 495 l 903 601 l 627 601 z "},"ￂ":{"ha":0,"x_min":0,"x_max":0,"o":"m 627 1081 l 499 1081 l 499 -114 l 627 -114 l 627 495 l 903 495 l 903 601 l 627 601 z "},"ㅐ":{"ha":0,"x_min":0,"x_max":0,"o":"m 831 1085 l 709 1085 l 709 613 l 513 613 l 513 1065 l 391 1065 l 391 -66 l 513 -66 l 513 507 l 709 507 l 709 -111 l 831 -111 z "},"ￃ":{"ha":0,"x_min":0,"x_max":0,"o":"m 831 1085 l 709 1085 l 709 613 l 513 613 l 513 1065 l 391 1065 l 391 -66 l 513 -66 l 513 507 l 709 507 l 709 -111 l 831 -111 z "},"ㅑ":{"ha":0,"x_min":0,"x_max":0,"o":"m 861 747 l 593 747 l 593 1084 l 464 1084 l 464 -111 l 593 -111 l 593 304 l 861 304 l 861 412 l 593 412 l 593 640 l 861 640 z "},"ￄ":{"ha":0,"x_min":0,"x_max":0,"o":"m 861 747 l 593 747 l 593 1084 l 464 1084 l 464 -111 l 593 -111 l 593 304 l 861 304 l 861 412 l 593 412 l 593 640 l 861 640 z "},"ㅒ":{"ha":0,"x_min":0,"x_max":0,"o":"m 826 1082 l 703 1082 l 703 765 l 513 765 l 513 1065 l 391 1065 l 391 -69 l 513 -69 l 513 324 l 703 324 l 703 -114 l 826 -114 z m 513 431 l 513 658 l 703 658 l 703 431 z "},"ￅ":{"ha":0,"x_min":0,"x_max":0,"o":"m 826 1082 l 703 1082 l 703 765 l 513 765 l 513 1065 l 391 1065 l 391 -69 l 513 -69 l 513 324 l 703 324 l 703 -114 l 826 -114 z m 513 431 l 513 658 l 703 658 l 703 431 z "},"ㅓ":{"ha":0,"x_min":0,"x_max":0,"o":"m 787 1084 l 658 1084 l 658 612 l 380 612 l 380 505 l 658 505 l 658 -113 l 787 -113 z "},"ￆ":{"ha":0,"x_min":0,"x_max":0,"o":"m 787 1084 l 658 1084 l 658 612 l 380 612 l 380 505 l 658 505 l 658 -113 l 787 -113 z "},"ㅔ":{"ha":0,"x_min":0,"x_max":0,"o":"m 875 1084 l 750 1084 l 750 -114 l 875 -114 z m 625 1063 l 503 1063 l 503 614 l 293 614 l 293 507 l 503 507 l 503 -72 l 625 -72 z "},"ￇ":{"ha":0,"x_min":0,"x_max":0,"o":"m 875 1084 l 750 1084 l 750 -114 l 875 -114 z m 625 1063 l 503 1063 l 503 614 l 293 614 l 293 507 l 503 507 l 503 -72 l 625 -72 z "},"ㅕ":{"ha":0,"x_min":0,"x_max":0,"o":"m 789 1082 l 662 1082 l 662 762 l 378 762 l 378 655 l 662 655 l 662 438 l 378 438 l 378 330 l 662 330 l 662 -113 l 789 -113 z "},"ￊ":{"ha":0,"x_min":0,"x_max":0,"o":"m 789 1082 l 662 1082 l 662 762 l 378 762 l 378 655 l 662 655 l 662 438 l 378 438 l 378 330 l 662 330 l 662 -113 l 789 -113 z "},"ㅖ":{"ha":0,"x_min":0,"x_max":0,"o":"m 871 1081 l 747 1081 l 747 -115 l 871 -115 z m 625 1062 l 503 1062 l 503 765 l 286 765 l 286 659 l 503 659 l 503 442 l 283 442 l 283 336 l 503 336 l 503 -72 l 625 -72 z "},"ￋ":{"ha":0,"x_min":0,"x_max":0,"o":"m 871 1081 l 747 1081 l 747 -115 l 871 -115 z m 625 1062 l 503 1062 l 503 765 l 286 765 l 286 659 l 503 659 l 503 442 l 283 442 l 283 336 l 503 336 l 503 -72 l 625 -72 z "},"ㅗ":{"ha":0,"x_min":0,"x_max":0,"o":"m 1152 353 l 662 353 l 662 846 l 534 846 l 534 353 l 47 353 l 47 247 l 1152 247 z "},"ￌ":{"ha":0,"x_min":0,"x_max":0,"o":"m 1152 353 l 662 353 l 662 846 l 534 846 l 534 353 l 47 353 l 47 247 l 1152 247 z "},"ㅘ":{"ha":-129,"x_min":0,"x_max":0,"o":"m 495 709 l 369 709 l 369 293 b 52 289 256 290 146 289 l 68 182 b 811 229 277 182 562 189 l 800 323 b 495 298 704 311 600 303 z m 987 1081 z "},"ￍ":{"ha":-129,"x_min":0,"x_max":0,"o":"m 495 709 l 369 709 l 369 293 b 52 289 256 290 146 289 l 68 182 b 811 229 277 182 562 189 l 800 323 b 495 298 704 311 600 303 z m 987 1081 z "},"ㅙ":{"ha":0,"x_min":0,"x_max":0,"o":"m 438 712 l 319 712 l 319 321 b 220 229 316 321 220 230 b 393 412 220 157 385 412 b 616 NaN 424 412 616 NaN l 607 NaN b 370 NaN 536 NaN 454 NaN z m 1030 NaN l 905 NaN l 905 NaN l 781 NaN l 781 NaN l 660 NaN l 660 NaN l 781 NaN l 781 NaN l 905 NaN l 905 NaN l 1030 NaN z "},"ￎ":{"ha":0,"x_min":0,"x_max":0,"o":"m 438 712 l 319 712 l 319 321 b 220 229 316 321 220 230 b 393 412 220 157 385 412 b 616 NaN 424 412 616 NaN l 607 NaN b 370 NaN 536 NaN 454 NaN z m 1030 NaN l 905 NaN l 905 NaN l 781 NaN l 781 NaN l 660 NaN l 660 NaN l 781 NaN l 781 NaN l 905 NaN l 905 NaN l 1030 NaN z "},"ㅚ":{"ha":0,"x_min":0,"x_max":0,"o":"m 556 701 l 430 701 l 430 317 b 107 313 315 313 203 313 l 125 205 b 869 251 334 205 618 212 l 860 347 b 556 321 764 334 660 326 z m 1061 1085 l 930 1085 l 930 -111 l 1061 -111 z "},"ￏ":{"ha":0,"x_min":0,"x_max":0,"o":"m 556 701 l 430 701 l 430 317 b 107 313 315 313 203 313 l 125 205 b 869 251 334 205 618 212 l 860 347 b 556 321 764 334 660 326 z m 1061 1085 l 930 1085 l 930 -111 l 1061 -111 z "},"ㅛ":{"ha":0,"x_min":0,"x_max":0,"o":"m 1158 320 l 886 320 l 886 842 l 758 842 l 758 320 l 457 320 l 457 842 l 330 842 l 330 320 l 56 320 l 56 214 l 1158 214 z "},"ￒ":{"ha":0,"x_min":0,"x_max":0,"o":"m 1158 320 l 886 320 l 886 842 l 758 842 l 758 320 l 457 320 l 457 842 l 330 842 l 330 320 l 56 320 l 56 214 l 1158 214 z "},"ㅜ":{"ha":0,"x_min":0,"x_max":0,"o":"m 1158 690 l 54 690 l 54 586 l 541 586 l 541 72 l 670 72 l 670 586 l 1158 586 z "},"ￓ":{"ha":0,"x_min":0,"x_max":0,"o":"m 1158 690 l 54 690 l 54 586 l 541 586 l 541 72 l 670 72 l 670 586 l 1158 586 z "},"ㅝ":{"ha":0,"x_min":0,"x_max":0,"o":"m 1100 1085 l 970 1085 l 970 334 l 690 334 l 690 233 l 970 233 l 970 -113 l 1100 -113 z m 76 559 l 92 453 b 391 460 184 454 285 455 l 391 -22 l 519 -22 l 519 465 b 886 500 642 472 766 483 l 876 594 b 76 559 613 564 313 560 z "},"ￔ":{"ha":0,"x_min":0,"x_max":0,"o":"m 1100 1085 l 970 1085 l 970 334 l 690 334 l 690 233 l 970 233 l 970 -113 l 1100 -113 z m 76 559 l 92 453 b 391 460 184 454 285 455 l 391 -22 l 519 -22 l 519 465 b 886 500 642 472 766 483 l 876 594 b 76 559 613 564 313 560 z "},"ㅞ":{"ha":0,"x_min":0,"x_max":0,"o":"m 1120 1085 l 997 1085 l 997 -111 l 1120 -111 z m 884 1058 l 761 1058 l 761 336 l 551 336 l 551 235 l 761 235 l 761 -79 l 884 -79 b 699 77 66 -79 699 -9 b NaN 169 699 79 703 169 l NaN -314 l NaN -314 l NaN 177 b NaN 204 NaN 183 NaN 192 l NaN 294 b NaN 262 NaN 271 NaN 262 z "},"ￕ":{"ha":0,"x_min":0,"x_max":0,"o":"m 1120 1085 l 997 1085 l 997 -111 l 1120 -111 z m 884 1058 l 761 1058 l 761 336 l 551 336 l 551 235 l 761 235 l 761 -79 l 884 -79 b 699 77 66 -79 699 -9 b NaN 169 699 79 703 169 l NaN -314 l NaN -314 l NaN 177 b NaN 204 NaN 183 NaN 192 l NaN 294 b NaN 262 NaN 271 NaN 262 z "},"ㅟ":{"ha":0,"x_min":0,"x_max":0,"o":"m 1093 1081 l 963 1081 l 963 -115 l 1093 -115 z m 99 547 l 115 439 b 444 446 216 440 328 441 l 444 -22 l 571 -22 l 571 453 b 909 484 684 459 799 469 l 902 579 b 99 547 639 551 339 545 z "},"ￖ":{"ha":0,"x_min":0,"x_max":0,"o":"m 1093 1081 l 963 1081 l 963 -115 l 1093 -115 z m 99 547 l 115 439 b 444 446 216 440 328 441 l 444 -22 l 571 -22 l 571 453 b 909 484 684 459 799 469 l 902 579 b 99 547 639 551 339 545 z "},"ㅠ":{"ha":0,"x_min":0,"x_max":0,"o":"m 1152 694 l 47 694 l 47 589 l 328 589 l 328 73 l 458 73 l 458 589 l 735 589 l 735 73 l 864 73 l 864 589 l 1152 589 z "},"ￗ":{"ha":0,"x_min":0,"x_max":0,"o":"m 1152 694 l 47 694 l 47 589 l 328 589 l 328 73 l 458 73 l 458 589 l 735 589 l 735 73 l 864 73 l 864 589 l 1152 589 z "},"ㅡ":{"ha":0,"x_min":0,"x_max":0,"o":"m 1152 567 l 47 567 l 47 460 l 1152 460 z "},"ￚ":{"ha":0,"x_min":0,"x_max":0,"o":"m 1152 567 l 47 567 l 47 460 l 1152 460 z "},"ㅢ":{"ha":0,"x_min":0,"x_max":0,"o":"m 1073 1072 l 944 1072 l 944 -123 l 1073 -123 z m 80 369 l 96 263 b 876 308 324 263 613 269 l 869 404 b 80 369 613 372 316 369 z "},"ￛ":{"ha":0,"x_min":0,"x_max":0,"o":"m 1073 1072 l 944 1072 l 944 -123 l 1073 -123 z m 80 369 l 96 263 b 876 308 324 263 613 269 l 869 404 b 80 369 613 372 316 369 z "},"ㅣ":{"ha":0,"x_min":0,"x_max":0,"o":"m 670 1084 l 541 1084 l 541 -111 l 670 -111 z "},"ￜ":{"ha":0,"x_min":0,"x_max":0,"o":"m 670 1084 l 541 1084 l 541 -111 l 670 -111 z "},"ㅤ":{"ha":0,"x_min":0,"x_max":0,"o":""},"ㆍ":{"ha":0,"x_min":0,"x_max":0,"o":""},"가":{"ha":0,"x_min":0,"x_max":0,"o":"m 991 1100 l 1614 1100 l 1614 1289 l 1721 1289 l 1721 1100 "},"각":{"ha":0,"x_min":0,"x_max":0,"o":""},"갂":{"ha":0,"x_min":0,"x_max":0,"o":""},"갃":{"ha":0,"x_min":0,"x_max":0,"o":"l -692 0 l -692 129 l -400 129 l -400 305 l -293 305 l -293 129 "},"간":{"ha":0,"x_min":0,"x_max":0,"o":"m 1000 1100 "},"갅":{"ha":271,"x_min":0,"x_max":0,"o":""},"갆":{"ha":0,"x_min":0,"x_max":0,"o":""},"갇":{"ha":0,"x_min":0,"x_max":0,"o":"l -686 0 l -686 129 l -396 129 l -396 305 l -290 305 l -290 129 "},"갈":{"ha":0,"x_min":0,"x_max":0,"o":""},"갉":{"ha":0,"x_min":0,"x_max":0,"o":"l 1000 0 l 1000 -646 l 1128 -646 l 1128 -376 l 1306 -376 l 1306 -270 l 1128 -270 "},"갊":{"ha":0,"x_min":0,"x_max":0,"o":""},"갋":{"ha":0,"x_min":0,"x_max":0,"o":""},"갌":{"ha":0,"x_min":0,"x_max":0,"o":""},"갍":{"ha":0,"x_min":0,"x_max":0,"o":""},"갎":{"ha":0,"x_min":0,"x_max":0,"o":""},"갏":{"ha":0,"x_min":0,"x_max":0,"o":""},"감":{"ha":0,"x_min":0,"x_max":0,"o":"l -686 0 l -686 129 l -393 129 l -393 305 l -286 305 l -286 129 "},"갑":{"ha":0,"x_min":0,"x_max":0,"o":"m 1000 1100 "},"값":{"ha":0,"x_min":0,"x_max":0,"o":""},"갓":{"ha":0,"x_min":0,"x_max":0,"o":"m 1176 769 l 1000 769 l 1000 1101 l 1366 1101 l 1366 1278 b 1712 1093 1366 773 1712 879 b 2030 NaN 1712 1324 2030 NaN z m 2048 NaN l 2048 NaN l 1921 NaN l 1921 NaN b 1518 NaN 1921 NaN 1746 NaN l 1571 NaN b 1984 NaN 1754 NaN 1910 NaN b 2395 NaN 2058 NaN 2212 NaN l 2448 NaN b 2048 NaN 2219 NaN 2048 NaN z "},"갔":{"ha":0,"x_min":0,"x_max":0,"o":""},"강":{"ha":0,"x_min":0,"x_max":0,"o":""},"갖":{"ha":0,"x_min":0,"x_max":0,"o":""},"갗":{"ha":0,"x_min":0,"x_max":0,"o":"m 1176 825 l 1000 825 l 1000 1100 l 1286 1100 l 1286 1276 "},"갘":{"ha":0,"x_min":0,"x_max":0,"o":"l 294 0 l 294 176 l 401 176 l 401 0 "},"같":{"ha":0,"x_min":0,"x_max":0,"o":"l -646 0 l -646 129 l -378 129 l -378 305 l -274 305 l -274 129 "},"갚":{"ha":0,"x_min":0,"x_max":0,"o":"l 286 0 "},"갛":{"ha":0,"x_min":0,"x_max":0,"o":""},"개":{"ha":-123,"x_min":0,"x_max":0,"o":"m 1085 1100 z "},"객":{"ha":-296,"x_min":0,"x_max":0,"o":""},"갞":{"ha":0,"x_min":0,"x_max":0,"o":"l -294 0 l -294 -146 l -22 -146 l -22 -269 l -686 -269 l -686 -146 l -400 -146 l -400 0 l -694 0 l -694 122 m -1199 730 l -1678 730 l -1678 625 l -1329 625 b -1729 197 -1353 435 -1489 290 l -1668 102 b -1199 730 -1359 225 -1199 437 z "},"갟":{"ha":-293,"x_min":0,"x_max":0,"o":""},"갠":{"ha":-362,"x_min":0,"x_max":0,"o":""},"갡":{"ha":-505,"x_min":0,"x_max":0,"o":"l -293 0 l -293 -146 l -22 -146 l -22 -269 l -682 -269 l -682 -146 l -396 -146 l -396 0 l -688 0 l -688 122 "},"갢":{"ha":-266,"x_min":0,"x_max":0,"o":""},"갣":{"ha":-505,"x_min":0,"x_max":0,"o":"l -296 0 l -296 -146 l -20 -146 l -20 -269 l -694 -269 l -694 -146 l -401 -146 l -401 0 l -704 0 l -704 122 "},"갤":{"ha":0,"x_min":0,"x_max":0,"o":"l -266 0 l -266 -146 l -22 -146 l -22 -269 l -609 -269 l -609 -146 l -369 -146 l -369 0 l -618 0 l -618 122 b -1301 NaN -1126 669 -1206 728 l NaN NaN b NaN NaN NaN NaN NaN NaN m NaN NaN l NaN NaN l NaN NaN l NaN NaN l NaN NaN l NaN NaN l NaN NaN l NaN NaN l NaN NaN l NaN NaN l NaN NaN l NaN NaN z "},"갥":{"ha":-267,"x_min":0,"x_max":0,"o":""},"갦":{"ha":-267,"x_min":0,"x_max":0,"o":""},"갧":{"ha":-266,"x_min":0,"x_max":0,"o":""},"갨":{"ha":-267,"x_min":0,"x_max":0,"o":""},"갩":{"ha":-267,"x_min":0,"x_max":0,"o":""},"갪":{"ha":0,"x_min":0,"x_max":0,"o":""},"갫":{"ha":-262,"x_min":0,"x_max":0,"o":""},"갬":{"ha":-505,"x_min":0,"x_max":0,"o":"l -293 0 l -293 -146 l -22 -146 l -22 145 l 125 145 l 125 -153 l 247 -153 m 751 -821 l 1359 -821 l 1359 -1633 l 918 -1633 l 918 -821 z m 233 -483 l 792 -483 l 792 -716 l 233 -716 z "},"갭":{"ha":-285,"x_min":0,"x_max":0,"o":""},"갮":{"ha":-283,"x_min":0,"x_max":0,"o":""},"갯":{"ha":-311,"x_min":0,"x_max":0,"o":""},"갰":{"ha":-99,"x_min":0,"x_max":0,"o":"l -300 0 l -300 -146 l -22 -146 l -22 -269 l -686 -269 l -686 -146 l -404 -146 l -404 0 l -692 0 l -692 122 m -1196 727 l -1671 727 l -1671 621 l -1329 621 b -1725 189 -1353 432 -1485 286 l -1660 94 b -1196 727 -1354 220 -1196 433 z "},"갱":{"ha":-308,"x_min":0,"x_max":0,"o":""},"갲":{"ha":289,"x_min":0,"x_max":0,"o":""},"갳":{"ha":-282,"x_min":0,"x_max":0,"o":""},"갴":{"ha":-505,"x_min":0,"x_max":0,"o":"l -293 0 l -293 -146 l -22 -146 l -22 141 l 125 141 l 125 -153 l 247 -153 "},"갵":{"ha":-273,"x_min":0,"x_max":0,"o":""},"갶":{"ha":-505,"x_min":0,"x_max":0,"o":"l 290 0 l 290 146 l -8 146 l -8 269 m 506 -392 l 1111 -392 l 1111 -1233 l 1006 -1233 l 1006 -1062 l 768 -1062 l 768 -823 l 937 -823 z m 395 -1062 l 395 -823 l 643 -823 l 643 -1062 z "},"갷":{"ha":-507,"x_min":0,"x_max":0,"o":"l -262 0 l -262 -146 l -22 -146 l -22 -269 l -591 -269 l -591 -146 l -366 -146 l -366 0 l -650 0 l -650 122 "},"갸":{"ha":0,"x_min":0,"x_max":0,"o":"m 1179 781 l 991 781 l 991 1100 l 1417 1100 l 1417 1287 l 1525 1287 l 1525 1100 l 1780 1100 l 1780 1287 "},"갹":{"ha":0,"x_min":0,"x_max":0,"o":"m 1176 922 l 1000 922 l 1000 1100 l 871 1100 l 871 389 l 1000 389 l 1000 555 l 1154 555 l 1154 731 "},"갺":{"ha":0,"x_min":0,"x_max":0,"o":"m 1171 932 l 1000 932 l 1000 1100 l 871 1100 l 871 406 l 1000 406 l 1000 571 l 1171 571 l 1171 675 l 1000 675 l 1000 827 l 1171 827 "},"갻":{"ha":0,"x_min":0,"x_max":0,"o":"l -692 0 l -692 129 l -529 129 l -529 285 l -353 285 l -353 389 l -529 389 "},"갼":{"ha":0,"x_min":0,"x_max":0,"o":"m 1176 878 l 1000 878 l 1000 1100 l 869 1100 l 869 217 l 1000 217 l 1000 476 l 1176 476 l 1176 582 l 1000 582 l 1000 772 l 1176 772 "},"갽":{"ha":665,"x_min":0,"x_max":0,"o":"m 506 -94 l 1538 -94 l 1538 -264 l 1699 -264 l 1699 -393 l 1039 -393 l 1039 -264 l 1185 -264 l 1185 -94 l 1289 -94 l 1289 -264 l 1434 -264 l 1434 -94 z "},"갾":{"ha":0,"x_min":0,"x_max":0,"o":"l -617 0 l -617 129 l -490 129 l -490 300 l -384 300 l -384 129 l -264 129 l -264 300 l -160 300 l -160 129 "},"갿":{"ha":0,"x_min":0,"x_max":0,"o":"l -686 0 l -686 129 l -532 129 l -532 285 l -355 285 l -355 391 l -532 391 "},"걀":{"ha":0,"x_min":0,"x_max":0,"o":"m 1176 956 l 1000 956 l 1000 1100 l 871 1100 l 871 486 l 1000 486 l 1000 616 l 1176 616 l 1176 718 l 1000 718 l 1000 853 l 1176 853 "},"걁":{"ha":0,"x_min":0,"x_max":0,"o":"l 1000 0 l 1000 -646 l 1128 -646 l 1128 -494 l 1263 -494 l 1263 -317 l 1364 -317 l 1364 -494 "},"걂":{"ha":0,"x_min":0,"x_max":0,"o":"l 148 0 l 148 137 l 324 137 l 324 239 l 148 239 "},"걃":{"ha":0,"x_min":0,"x_max":0,"o":""},"걄":{"ha":0,"x_min":0,"x_max":0,"o":""},"걅":{"ha":0,"x_min":0,"x_max":0,"o":"l -647 0 l -647 129 l -496 129 l -496 305 l -395 305 l -395 129 l -256 129 l -256 305 l -155 305 l -155 129 "},"걆":{"ha":0,"x_min":0,"x_max":0,"o":"l 151 0 l 151 137 l 327 137 l 327 239 l 151 239 "},"걇":{"ha":0,"x_min":0,"x_max":0,"o":"l -602 0 l -602 129 l -494 129 l -494 305 l -391 305 l -391 129 l -256 129 l -256 305 l -155 305 l -155 129 "},"걈":{"ha":0,"x_min":0,"x_max":0,"o":""},"걉":{"ha":0,"x_min":0,"x_max":0,"o":"m 1000 1100 "},"걊":{"ha":0,"x_min":0,"x_max":0,"o":""},"걋":{"ha":0,"x_min":0,"x_max":0,"o":"m 1176 899 l 1000 899 l 1000 1100 l 1208 1100 l 1208 1282 l 1385 1282 b 1600 1100 1385 777 1600 886 b 1919 NaN 1600 1328 1919 NaN z m 1937 NaN b 1843 NaN 1984 NaN 1937 NaN b NaN NaN 1809 NaN 1912 NaN l NaN NaN b NaN NaN NaN NaN NaN NaN z "},"걌":{"ha":0,"x_min":0,"x_max":0,"o":""},"걍":{"ha":0,"x_min":0,"x_max":0,"o":"m 1173 916 l 1000 916 l 1000 1100 l 871 1100 l 871 378 l 1000 378 l 1000 547 l 1173 547 l 1173 654 l 1000 654 l 1000 810 l 1173 810 "},"걎":{"ha":0,"x_min":0,"x_max":0,"o":""},"걏":{"ha":0,"x_min":0,"x_max":0,"o":"l 669 0 l 669 1024 l 1000 1024 l 1000 1100 l 1164 1100 l 1164 1242 l 1340 1242 l 1340 1347 l 1164 1347 "},"걐":{"ha":0,"x_min":0,"x_max":0,"o":""},"걑":{"ha":0,"x_min":0,"x_max":0,"o":"l -646 0 l -646 129 l -510 129 l -510 305 l -407 305 l -407 129 l -259 129 "},"걒":{"ha":0,"x_min":0,"x_max":0,"o":""},"걓":{"ha":0,"x_min":0,"x_max":0,"o":"m 1176 944 l 1000 944 l 1000 1100 l 871 1100 l 871 461 l 1000 461 l 1000 590 l 1145 590 l 1145 766 "},"걔":{"ha":-123,"x_min":0,"x_max":0,"o":"m 1085 1100 z m 1326 604 l 1326 293 l 1176 293 l 1176 571 l 1055 571 l 1055 -553 l 1176 -553 l 1176 -153 l 1326 -153 l 1326 -612 l 1563 -612 l 1563 -461 l 1326 -461 z "},"걕":{"ha":-171,"x_min":0,"x_max":0,"o":"m 236 -355 l 236 -502 l 385 -502 l 385 -624 l -301 -624 l -301 -502 l -141 -502 l -141 -355 l -308 -355 l -308 -187 l -161 -187 l -161 -355 z "},"걖":{"ha":0,"x_min":0,"x_max":0,"o":"l -170 0 l -170 -146 l -22 -146 l -22 -269 l -686 -269 l -686 -146 l -536 -146 l -536 0 l -694 0 l -694 122 m -1199 730 l -1678 730 l -1678 625 l -1329 625 b -1729 197 -1353 435 -1489 290 l -1668 102 b -1199 730 -1359 225 -1199 437 z m -963 385 l -963 540 l -817 540 l -817 385 z "},"걗":{"ha":-171,"x_min":0,"x_max":0,"o":"m 233 -351 l 233 -498 l 382 -498 l 382 -353 l 529 -353 l 529 -505 l 694 -505 l 694 -358 l 529 -358 z "},"걘":{"ha":-228,"x_min":0,"x_max":0,"o":"m -305 661 l -305 514 l -99 514 l -99 392 l -944 392 l -944 514 l -701 514 l -701 661 l -983 661 l -983 849 l -837 849 l -837 661 z "},"걙":{"ha":-505,"x_min":0,"x_max":0,"o":"l -174 0 l -174 -146 l -22 -146 l -22 -269 l -682 -269 l -682 -146 l -529 -146 l -529 0 l -688 0 l -688 122 m -452 -214 l -452 387 l -308 387 l -308 533 l -452 533 z "},"걚":{"ha":-151,"x_min":0,"x_max":0,"o":"m -39 598 l -39 452 l 90 452 l 90 330 l -495 330 l -495 452 l -373 452 l -373 598 l -511 598 l -511 722 l -365 722 l -365 598 z "},"걛":{"ha":-505,"x_min":0,"x_max":0,"o":"l -168 0 l -168 -146 l -20 -146 l -20 -269 l -694 -269 l -694 -146 l -534 -146 l -534 0 l -704 0 l -704 122 m -468 -221 l -468 396 l -312 396 l -312 543 l -468 543 z "},"걜":{"ha":-507,"x_min":0,"x_max":0,"o":"l -159 0 l -159 -146 l -22 -146 l -22 -269 l -609 -269 l -609 -146 l -486 -146 l -486 0 l -618 0 l -618 122 m -111 -480 l 437 -480 l 437 -1295 l 334 -1295 l 334 -606 l 225 -606 l 225 -1293 l -95 -1293 l -95 -434 l 9 -434 l 9 -1165 l 129 -1165 l 129 -480 z m -140 117 l -140 243 l 7 243 l 7 117 z "},"걝":{"ha":-157,"x_min":0,"x_max":0,"o":"m 195 593 l 195 446 l 331 446 l 331 579 l 477 579 l 477 439 l 521 439 l 521 -178 l 654 -178 l 654 -31 l 521 -31 z "},"걞":{"ha":-159,"x_min":0,"x_max":0,"o":"m 239 -315 l 239 -461 l 376 -461 l 376 -327 l 522 -327 l 522 -468 l 650 -468 l 650 -321 l 522 -321 z "},"걟":{"ha":-156,"x_min":0,"x_max":0,"o":"m 208 595 l 208 449 l 342 449 l 342 327 l -252 327 l -252 449 l -122 449 l -122 595 l -259 595 l -259 727 l -113 727 l -113 595 z "},"걠":{"ha":-157,"x_min":0,"x_max":0,"o":"m 239 -313 l 239 -460 l 374 -460 l 374 -326 l 521 -326 l 521 -467 l 650 -467 l 650 -320 l 521 -320 z "},"걡":{"ha":-507,"x_min":0,"x_max":0,"o":"l -159 0 l -159 -146 l -22 -146 l -22 -22 l 125 -22 l 125 -153 l 247 -153 m 454 434 l 454 990 l 486 990 l 486 372 l 620 372 l 620 518 l 486 518 z "},"걢":{"ha":-159,"x_min":0,"x_max":0,"o":"m 210 593 l 210 446 l 347 446 l 347 579 l 494 579 l 494 439 l 522 439 l 522 -178 l 652 -178 l 652 -31 l 522 -31 "},"걣":{"ha":-152,"x_min":0,"x_max":0,"o":"m 225 601 l 225 454 l 355 454 l 355 332 l -222 332 l -222 454 l -102 454 l -102 601 l -236 601 l -236 727 l -90 727 l -90 601 z "},"걤":{"ha":-505,"x_min":0,"x_max":0,"o":"l -666 0 l -666 122 l -509 122 l -509 269 l -673 269 l -673 391 m -168 -273 "},"걥":{"ha":-161,"x_min":0,"x_max":0,"o":"m -142 688 l -142 541 l -3 541 l -3 419 l -631 419 l -631 541 l -491 541 l -491 688 l -639 688 l -639 825 l -492 825 l -492 688 z "},"걦":{"ha":-160,"x_min":0,"x_max":0,"o":"m 237 -328 l 237 -475 l 376 -475 l 376 -597 l -251 -597 l -251 -475 l -111 -475 l -111 -328 l -263 -328 l -263 -190 l -117 -190 l -117 -328 z "},"걧":{"ha":-172,"x_min":0,"x_max":0,"o":"m 77 359 l 77 213 l 228 213 l 228 91 l -430 91 l -430 213 l -279 213 l -279 359 l -543 359 l -543 509 l -396 509 l -396 359 z "},"걨":{"ha":0,"x_min":0,"x_max":0,"o":"l -665 0 l -665 122 l -509 122 l -509 269 l -670 269 l -670 391 m -1175 996 l -1649 996 l -1649 890 l -1308 890 b -1704 457 -1331 701 -1463 554 l -1638 362 b -1175 996 -1332 488 -1175 701 "},"걩":{"ha":0,"x_min":0,"x_max":0,"o":""},"걪":{"ha":0,"x_min":0,"x_max":0,"o":""},"걫":{"ha":-161,"x_min":0,"x_max":0,"o":"m 237 -327 l 237 -473 l 377 -473 l 377 -595 l -231 -595 l -231 -473 l -114 -473 l -114 -327 l -297 -327 l -297 -182 l -151 -182 l -151 -327 z "},"걬":{"ha":0,"x_min":0,"x_max":0,"o":"l -168 0 l -168 -146 l -22 -146 l -22 11 l 125 11 l 125 -153 l 247 -153 "},"걭":{"ha":-153,"x_min":0,"x_max":0,"o":"m 239 -316 l 239 -463 l 370 -463 l 370 -585 l -237 -585 l -237 -463 l -106 -463 l -106 -316 l -244 -316 l -244 -180 l -98 -180 l -98 -316 z "},"걮":{"ha":-505,"x_min":0,"x_max":0,"o":"l -171 0 l -171 -146 l -22 -146 l -22 -269 l -684 -269 l -684 -146 l -530 -146 l -530 0 l -692 0 l -692 122 m -178 -538 l 427 -538 l 427 -1379 l 323 -1379 l 323 -1208 l 84 -1208 l 84 -970 l 254 -970 z m -289 -1208 l -289 -970 l -41 -970 l -41 -1208 "},"걯":{"ha":-507,"x_min":0,"x_max":0,"o":"l -152 0 l -152 -146 l -22 -146 l -22 -269 l -591 -269 l -591 -146 l -476 -146 l -476 0 l -658 0 l -658 122 m -517 718 l -517 1297 l -395 1297 l -395 1443 l -517 1443 z "},"거":{"ha":0,"x_min":0,"x_max":0,"o":"l -481 0 l -481 -273 l -587 -273 l -587 0 l -1215 0 l -1215 127 m -1611 1213 l -2176 1213 l -2176 1109 l -1742 1109 b -2230 454 -1765 831 -1908 612 l -2162 353 b -1611 1213 -1750 557 -1613 860 z "},"걱":{"ha":0,"x_min":0,"x_max":0,"o":"m 675 1024 l 121 1024 l 121 918 l 537 918 b 58 496 512 727 340 575 l 110 396 b 675 1024 463 495 675 715 l 1058 1024 l 1058 338 l 712 338 l 712 467 z m 712 1678 l 583 1678 l 583 1369 l 336 1369 l 336 1261 l 583 1261 l 583 967 l 712 967 z "},"걲":{"ha":0,"x_min":0,"x_max":0,"o":"m -65 -681 l -472 -681 l -472 -787 l -195 -787 l -195 -1138 l -65 -1138 z m 385 75 l 256 75 l 256 -228 l -38 -228 l -38 -99 z m -38 -152 l -433 -152 l -433 -258 l -167 -258 l -167 -609 l -38 -609 z "},"걳":{"ha":-107,"x_min":0,"x_max":0,"o":"m 385 75 l 256 75 l 256 -228 l -41 -228 l -41 -99 z "},"건":{"ha":0,"x_min":0,"x_max":0,"o":"l -366 0 l -366 -252 l -473 -252 l -473 0 l -895 0 l -895 129 m -1268 933 l -1828 933 l -1828 826 l -1409 826 b -1891 368 -1436 621 -1620 455 l -1836 264 b -1268 933 -1488 377 -1270 616 z m -864 -60 l -1548 -60 l -1548 221 l -1678 221 l -1678 -164 l -864 -164 z "},"걵":{"ha":0,"x_min":0,"x_max":0,"o":"b -222 266 -142 48 -218 157 l -27 266 l -27 372 l -543 372 l -543 266 l -346 266 l -352 266 l -352 163 l -420 163 l -420 62 l -545 62 l -545 11 l -176 11 l -176 1010 l -449 1010 l -449 1139 "},"걶":{"ha":-346,"x_min":0,"x_max":0,"o":"l -282 0 l -282 -252 l -387 -252 l -387 0 l -618 0 l -618 129 m -1012 693 l -1549 693 l -1549 587 l -1149 587 b -1615 187 -1172 401 -1330 260 l -1569 84 b -1012 693 -1213 178 -1013 384 z "},"걷":{"ha":0,"x_min":0,"x_max":0,"o":"m 674 1024 l 119 1024 l 119 918 l 536 918 b 56 495 510 724 337 574 l 106 393 b 674 1024 460 494 673 713 z m 1058 1099 l 929 1099 l 929 785 l 678 785 l 678 680 l 929 680 l 929 412 l 1058 412 "},"걸":{"ha":0,"x_min":0,"x_max":0,"o":"l -282 0 l -282 -252 l -387 -252 l -387 0 l -618 0 l -618 129 m -1010 693 l -1549 693 l -1549 587 l -1149 587 b -1614 205 -1171 409 -1330 271 l -1569 100 b -1010 693 -1217 187 -1010 387 z m -618 77 "},"걹":{"ha":0,"x_min":0,"x_max":0,"o":"l -288 0 l -288 -251 l -393 -251 l -393 0 l -647 0 l -647 129 "},"걺":{"ha":-384,"x_min":0,"x_max":0,"o":"l -286 0 l -286 -245 l -157 -245 m 309 49 l 888 49 l 888 -34 l 258 -34 l 258 -429 l -254 -429 l -254 -34 z m -536 380 l -368 380 l -368 64 l -536 64 z "},"걻":{"ha":-384,"x_min":0,"x_max":0,"o":"l -279 0 l -279 -237 l -151 -237 m 35 68 l 600 68 l 600 -15 l -31 -15 l -31 -129 l -553 -129 l -553 266 l -31 266 l -31 151 l -186 151 l -186 -15 z m -186 -281 l -186 -113 l -20 -113 l -20 -281 z "},"걼":{"ha":0,"x_min":0,"x_max":0,"o":"l -279 0 l -279 -256 l -151 -256 "},"걽":{"ha":0,"x_min":0,"x_max":0,"o":"l -279 0 l -279 -237 l -151 -237 "},"걾":{"ha":0,"x_min":0,"x_max":0,"o":"l -286 0 l -286 -245 l -157 -245 "},"걿":{"ha":0,"x_min":0,"x_max":0,"o":"l -271 0 l -271 -251 l -376 -251 l -376 0 l -614 0 l -614 129 m -998 689 l -1549 689 l -1549 583 l -1137 583 b -1611 202 -1160 404 -1323 267 l -1565 99 b -998 689 -1210 183 -1000 381 "},"검":{"ha":673,"x_min":0,"x_max":0,"o":"m 0 -50 l 1024 -50 l 1024 -845 l 564 -845 l 564 -50 z m -104 307 l 437 307 l 437 53 l -104 53 z "},"겁":{"ha":0,"x_min":0,"x_max":0,"o":"l -297 0 l -297 -252 l -401 -252 l -401 0 l -655 0 l -655 127 m -1036 711 l -1590 711 l -1590 604 l -1175 604 b -1652 202 -1198 418 -1359 275 l -1603 100 b -1036 711 -1242 193 -1036 399 "},"겂":{"ha":0,"x_min":0,"x_max":0,"o":"l -297 0 l -297 -252 l -401 -252 l -401 0 l -655 0 l -655 127 m -1036 711 l -1590 711 l -1590 604 l -1175 604 b -1652 202 -1198 418 -1359 275 l -1603 100 b -1036 711 -1242 193 -1036 399 z "},"것":{"ha":0,"x_min":0,"x_max":0,"o":"l -335 0 l -335 -248 l -441 -248 l -441 0 l -817 0 l -817 129 m -1202 852 l -1750 852 l -1750 747 l -1339 747 b -1812 301 -1364 545 -1527 387 l -1755 199 b -1202 852 -1398 312 -1202 534 z m -1153 179 l -1153 229 l -1280 229 l -1280 179 b -1683 -161 -1282 14 -1454 -125 l -1633 -264 b -1573 7 -1447 -230 -1540 -45 l -1471 NaN b -1871 NaN -1699 NaN -1871 NaN z "},"겄":{"ha":0,"x_min":0,"x_max":0,"o":"m 673 1024 l 125 1024 l 125 918 l 536 918 l 536 670 l 429 670 l 429 918 l 152 918 l 152 1047 "},"겅":{"ha":0,"x_min":0,"x_max":0,"o":"l -332 0 l -332 -247 l -439 -247 l -439 0 l -716 0 l -716 129 m -1097 758 b -1135 1218 -1652 652 -1237 1009 b NaN NaN -917 1219 -598 NaN z m NaN NaN b NaN NaN NaN NaN NaN NaN b NaN NaN NaN NaN NaN NaN b NaN NaN NaN NaN NaN NaN b NaN NaN NaN NaN NaN NaN z m NaN NaN b NaN NaN NaN NaN NaN NaN b NaN NaN NaN NaN NaN NaN b NaN NaN NaN NaN NaN NaN b NaN NaN NaN NaN NaN NaN z "},"겆":{"ha":0,"x_min":0,"x_max":0,"o":"m 692 1024 l 123 1024 l 123 918 l 552 918 b 60 513 530 732 357 582 l 107 408 b 692 1024 473 498 692 711 z m 1058 1099 "},"겇":{"ha":0,"x_min":0,"x_max":0,"o":"m 1082 334 b 241 236 728 464 597 334 b 600 -376 597 15 573 -206 b NaN NaN 713 -384 821 NaN l NaN NaN z m NaN NaN l NaN NaN l NaN NaN l NaN NaN b NaN NaN NaN NaN NaN NaN l NaN NaN b NaN NaN NaN NaN NaN NaN z m NaN NaN l NaN NaN l NaN NaN l NaN NaN l NaN NaN l NaN NaN l NaN NaN l NaN NaN z "},"겈":{"ha":-385,"x_min":0,"x_max":0,"o":""},"겉":{"ha":0,"x_min":0,"x_max":0,"o":"l -298 0 l -298 -248 l -404 -248 l -404 0 l -650 0 l -650 129 m -1031 711 l -1587 711 l -1587 606 l -1171 606 b -1648 205 -1193 420 -1353 275 l -1599 102 b -1031 711 -1237 193 -1031 399 z "},"겊":{"ha":0,"x_min":0,"x_max":0,"o":"m 677 1024 l 121 1024 l 121 920 l 537 920 b 60 510 513 731 341 582 l 109 407 b 677 1024 460 499 675 715 z m 1058 1099 "},"겋":{"ha":0,"x_min":0,"x_max":0,"o":"m 663 1032 l 122 1032 l 122 929 l 525 929 b 58 536 504 745 351 605 l 103 434 b 663 1032 467 524 663 720 z m 1058 1100 "},"게":{"ha":1089,"x_min":0,"x_max":0,"o":"m -256 1184 l 844 1184 l 844 1062 l 387 1062 l 387 869 b 441 1207 424 975 440 1088 b 221 NaN -34 1101 313 1175 l NaN NaN b NaN NaN NaN NaN NaN NaN l NaN NaN l NaN NaN l NaN NaN z "},"겍":{"ha":0,"x_min":0,"x_max":0,"o":"m NaN 1116 l NaN 1116 l NaN 1012 l NaN 1012 b NaN 579 NaN 819 NaN 676 l NaN 484 b NaN 773 NaN 555 NaN 651 l NaN 773 l NaN 513 l NaN 513 l NaN 1190 l NaN 1190 l NaN 879 l NaN 879 b NaN 1116 NaN 951 NaN 1030 z m NaN 1214 l NaN 1214 l NaN 500 l NaN 500 z "},"겎":{"ha":0,"x_min":0,"x_max":0,"o":"b 395 NaN 582 1001 488 1065 l NaN NaN b NaN NaN NaN NaN NaN NaN l NaN NaN l NaN NaN l NaN NaN l NaN NaN l NaN NaN l NaN NaN l NaN NaN b NaN NaN NaN NaN NaN NaN m NaN NaN l NaN NaN l NaN NaN l NaN NaN "},"겏":{"ha":0,"x_min":0,"x_max":0,"o":"m NaN 736 l NaN 736 l NaN 631 l NaN 631 b NaN 209 NaN 442 NaN 300 l NaN 115 b NaN 399 NaN 183 NaN 278 l NaN 399 l NaN 144 l NaN 144 l NaN 802 l NaN 802 l NaN 503 l NaN 503 b NaN 736 NaN 574 NaN 652 z m NaN 826 l NaN 826 l NaN 127 l NaN 127 z "},"겐":{"ha":0,"x_min":0,"x_max":0,"o":"l -910 0 l -910 122 m -1157 1009 l -1279 1009 l -1279 648 l -1462 648 b -1412 917 -1429 729 -1412 819 l -1883 917 l -1883 814 l -1545 814 b -1944 365 -1568 616 -1697 465 l -1877 269 b -1518 547 -1715 338 -1595 431 l -1279 547 l -1279 157 l -1157 157 z m -865 -52 l -1580 -52 l -1580 237 l -1710 237 l -1710 -156 l -865 -156 z "},"겑":{"ha":0,"x_min":0,"x_max":0,"o":"l -331 0 l -331 780 l -578 780 l -578 902 l 75 902 l 75 214 l 197 214 "},"겒":{"ha":503,"x_min":0,"x_max":0,"o":"m 345 369 l 217 369 l 217 -83 l 278 -83 b 595 -41 373 -83 481 -79 l 574 64 b 345 23 497 37 416 26 z m 1146 350 b 1017 123 917 350 1017 224 b 823 -172 1017 -109 921 -172 b 817 -96 722 -172 818 -233 b 1051 68 954 -95 1051 -34 b 817 229 1051 165 954 229 z m 817 140 b 936 68 886 140 936 113 b 817 -5 936 20 886 -5 b 697 68 746 -5 697 20 b 817 140 697 113 746 140 z m 543 1040 l 77 1040 l 77 935 l 408 935 b 16 530 386 754 262 617 l 80 438 b 450 704 252 501 374 589 l 677 704 l 677 518 l 799 518 l 799 1093 l 677 1093 l 677 808 l 503 808 b 543 1040 529 878 542 955 z "},"겓":{"ha":0,"x_min":0,"x_max":0,"o":"m 1101 11 l 400 11 l 400 225 l 1089 225 l 1089 328 l 270 328 l 270 -94 l 1101 -94 l 582 -94 l 582 1012 l 316 1012 l 316 1134 l 987 1134 l 987 425 l 1109 425 z "},"겔":{"ha":0,"x_min":0,"x_max":0,"o":"l -618 0 l -618 122 l -865 122 l -865 716 l -1084 716 l -1084 838 m -837 777 l -1652 777 l -1652 674 l -964 674 l -964 570 l -1649 570 l -1649 251 l -1533 251 l -1533 935 z "},"겕":{"ha":-464,"x_min":0,"x_max":0,"o":"l -627 0 l -627 122 l -873 122 l -873 724 l -1100 724 l -1100 846 m -853 779 l -1255 779 l -1255 673 l -981 673 l -981 254 l -853 254 z "},"겖":{"ha":0,"x_min":0,"x_max":0,"o":"l -631 0 l -631 122 m -878 728 l -1000 728 l -1000 464 l -1022 464 l -1022 289 l -1148 289 l -1148 155 l -1389 155 l -1389 -74 l -1267 -74 z "},"겗":{"ha":0,"x_min":0,"x_max":0,"o":"l -627 0 l -627 122 l -873 122 l -873 724 l -1100 724 l -1100 846 "},"겘":{"ha":125,"x_min":0,"x_max":0,"o":"l -633 0 l -633 122 l -880 122 l -880 731 l -1108 731 l -1108 853 "},"겙":{"ha":0,"x_min":0,"x_max":0,"o":"l 1104 0 l 1104 1 l 605 1 l 605 511 l 1081 511 l 1081 1491 l 834 1491 l 834 2093 l 608 2093 l 608 2215 "},"겚":{"ha":0,"x_min":0,"x_max":0,"o":"m -247 606 l -369 606 l -369 342 l -391 342 l -391 167 l -517 167 l -517 33 l -758 33 l -758 -196 l -636 -196 "},"겛":{"ha":-201,"x_min":0,"x_max":0,"o":"l -627 0 l -627 122 m -873 724 l -996 724 l -996 460 l -1164 460 b -1127 680 -1140 526 -1127 599 l -1596 680 l -1596 576 l -1261 576 b -1651 189 -1284 401 -1410 269 l -1590 94 b -1217 357 -1418 155 -1294 242 l -996 357 l -996 141 l -873 141 z m -564 0 z "},"겜":{"ha":0,"x_min":0,"x_max":0,"o":"l 582 0 l 582 1012 l 327 1012 l 327 1134 l 987 1134 l 987 1012 l 685 1012 l 685 841 b 726 1081 711 914 725 994 m 1225 415 l 414 415 l 414 -27 l 1225 -27 z m 543 312 l 1099 312 l 1099 77 l 543 77 z m 1225 1168 l 1103 1168 l 1103 469 l 1225 469 z "},"겝":{"ha":225,"x_min":0,"x_max":0,"o":"m 578 1016 l 113 1016 l 113 913 l 445 913 b 52 496 423 729 302 587 l 115 401 b 487 677 289 468 411 559 z m 308 45 l 72 45 l 72 167 l 705 167 l 705 39 l 224 39 l 224 849 l 705 849 l 705 723 l 570 723 l 570 167 z m 570 -76 l 570 64 l 1126 64 l 1126 -76 z m 1252 1017 l 1130 1017 l 1130 351 l 1252 351 z "},"겞":{"ha":225,"x_min":0,"x_max":0,"o":"m 79 1016 l -387 1016 l -387 913 l -54 913 b -448 496 -76 729 -197 587 l -384 401 b -12 677 -210 468 -88 559 z m 491 760 l 267 760 l 267 882 l 888 882 l 888 760 l 231 760 l 231 882 z "},"겟":{"ha":0,"x_min":0,"x_max":0,"o":"l -803 0 l -803 122 m -1050 901 l -1172 901 l -1172 575 l -1345 575 b -1306 817 -1320 649 -1307 730 l -1780 817 l -1780 713 l -1438 713 b -1834 256 -1461 513 -1592 358 l -1767 160 b -1394 471 -1593 237 -1470 341 l -1172 471 l -1172 227 l -1050 227 z m -1153 141 l -1153 190 l -1283 190 l -1283 141 b -1694 -182 -1283 -12 -1463 -148 l -1644 -283 b -1218 -28 -1456 -252 -1295 -159 b -792 -283 -1142 -159 -980 -252 l -742 -182 b -1153 141 -971 -148 -1154 -12 z "},"겠":{"ha":-604,"x_min":0,"x_max":0,"o":"m 583 1012 l 109 1012 l 109 907 l 450 907 b 53 469 427 714 294 565 l 118 373 b 486 659 286 444 408 539 l 712 659 l 712 419 l 834 419 l 834 1074 l 712 1074 l 712 764 l 540 764 b 583 1012 568 839 583 922 z m 1081 1099 l 959 1099 l 959 400 l 1081 400 z "},"겡":{"ha":0,"x_min":0,"x_max":0,"o":"m 582 1004 l 104 1004 l 104 899 l 449 899 b 47 453 426 703 292 553 l 114 358 b 490 656 287 431 412 531 l 712 656 l 712 401 l 834 401 l 834 1074 l 712 1074 l 712 762 l 541 762 b 582 1004 568 836 581 916 z m 1081 1099 l 959 1099 l 959 359 l 1081 359 z m 678 349 b 260 119 419 347 260 262 b 678 -110 260 -26 419 -110 b 1095 119 935 -110 1095 -26 b 678 349 1095 262 935 347 z m 678 248 b 966 119 856 248 966 201 b 678 -11 966 37 856 -11 b 388 119 499 -11 388 37 b 678 248 388 201 499 248 z "},"겢":{"ha":0,"x_min":0,"x_max":0,"o":"l 582 0 l 582 1012 l 335 1012 l 335 1134 l 987 1134 l 987 446 l 1109 446 m 1123 385 l 293 385 l 293 279 l 640 279 "},"겣":{"ha":505,"x_min":0,"x_max":0,"o":"m -167 703 l -631 703 l -631 597 l -300 597 b -694 168 -322 408 -444 262 l -628 75 b -256 359 -453 144 -331 239 l -31 359 l -31 148 l 91 148 l 91 755 l -31 755 l -31 467 l -205 467 b -167 703 -180 538 -168 617 z "},"겤":{"ha":0,"x_min":0,"x_max":0,"o":"b 875 1182 582 1012 751 1084 b NaN NaN 951 1305 NaN NaN l NaN NaN l NaN NaN l NaN NaN l NaN NaN l NaN NaN l NaN NaN l NaN NaN b NaN NaN NaN NaN NaN NaN m NaN NaN l NaN NaN l NaN NaN l NaN NaN z m NaN NaN l NaN NaN l NaN NaN l NaN NaN l NaN NaN l NaN NaN l NaN NaN l NaN NaN l NaN NaN l NaN NaN z "},"겥":{"ha":0,"x_min":0,"x_max":0,"o":"l -631 0 l -631 122 m -878 728 l -1000 728 l -1000 467 l -1166 467 b -1131 684 -1143 532 -1131 604 l -1600 684 l -1600 581 l -1265 581 b -1657 184 -1289 404 -1415 269 l -1594 91 b -1218 363 -1419 154 -1294 245 l -1000 363 l -1000 132 l -878 132 z "},"겦":{"ha":0,"x_min":0,"x_max":0,"o":"m 1090 358 l 250 358 l 250 255 l 420 255 l 420 8 l 667 8 l 667 178 l 159 178 l 159 935 l -88 935 l -88 1057 l 564 1057 l 564 372 l 686 372 "},"겧":{"ha":1108,"x_min":0,"x_max":0,"o":"m -95 901 l 270 901 l 270 437 l 164 437 l 164 768 b -228 355 142 584 18 445 l -164 262 b 208 537 9 328 132 419 l 433 537 l 433 349 l 555 349 l 555 918 l 433 918 l 433 643 l 259 643 b 297 873 284 712 296 789 z m 802 943 l 680 943 l 680 289 l 802 289 z "},"겨":{"ha":0,"x_min":0,"x_max":0,"o":"m 663 970 l 96 970 l 96 867 l 534 867 b 41 212 509 586 354 366 l 109 109 b 621 670 395 249 552 444 l 929 670 l 929 448 l 602 448 l 602 342 l 929 342 l 929 -114 l 1057 -114 l 1057 1101 l 929 1101 l 929 773 l 646 773 b 663 970 657 837 663 903 z "},"격":{"ha":369,"x_min":0,"x_max":0,"o":"m 689 1020 l 126 1020 l 126 916 l 551 916 b 62 490 527 722 351 568 l 111 388 b 643 785 374 458 561 595 l 929 785 l 929 632 l 623 632 l 623 528 l 929 528 l 929 376 l 1058 376 l 1058 1099 l 929 1099 l 929 888 l 675 888 b 689 1020 684 930 689 974 z "},"겪":{"ha":688,"x_min":0,"x_max":0,"o":"m -80 -681 l 944 -681 l 944 -819 l 1073 -819 l 1073 -117 l 666 -117 l 666 -222 l 943 -222 l 943 -574 l 1073 -574 z m 1523 -117 l 1128 -117 l 1128 -222 l 1394 -222 l 1394 -574 l 1523 -574 z "},"겫":{"ha":951,"x_min":0,"x_max":0,"o":""},"견":{"ha":0,"x_min":0,"x_max":0,"o":"l -245 0 l -245 -258 b -227 -106 -233 -210 -227 -159 l -791 -106 l -791 -209 l -366 -209 b -853 -670 -393 -416 -576 -581 l -798 -772 b -281 -362 -551 -694 -368 -551 l 12 -362 l 12 -529 l -298 -529 l -298 -635 l 12 -635 l 12 -914 l 141 -914 m 172 -1096 l -511 -1096 l -511 -825 l -642 -825 l -642 -1200 l 172 -1200 z "},"겭":{"ha":-7,"x_min":0,"x_max":0,"o":"b -222 264 -141 48 -217 155 l -27 264 l -27 369 l -543 369 l -543 264 l -346 264 m 26 1264 z "},"겮":{"ha":319,"x_min":0,"x_max":0,"o":"m 228 979 l 601 979 l 601 850 l 433 850 l 433 587 l -115 587 l -115 481 l 292 481 b -180 88 271 298 115 157 l -134 -16 b 395 373 138 50 321 180 l 686 373 l 686 239 l 378 239 l 378 140 l 686 140 l 686 24 l 815 24 z "},"겯":{"ha":0,"x_min":0,"x_max":0,"o":"m 680 1024 l 119 1024 l 119 918 l 541 918 b 58 498 514 727 341 575 l 110 397 b 639 804 374 469 559 609 l 929 804 l 929 648 l 621 648 l 621 543 l 929 543 l 929 412 l 1058 412 l 1058 1099 l 929 1099 l 929 907 l 669 907 b 680 1024 675 945 680 983 "},"결":{"ha":0,"x_min":0,"x_max":0,"o":"l -168 0 l -168 -263 l -716 -263 l -716 -369 l -309 -369 b -780 -747 -330 -548 -488 -683 l -735 -853 b -208 -477 -466 -790 -283 -666 l 85 -477 l 85 -609 l -222 -609 l -222 -709 l 85 -709 l 85 -826 l 214 -826 m 214 -878 "},"겱":{"ha":0,"x_min":0,"x_max":0,"o":"m 674 1044 "},"겲":{"ha":-136,"x_min":0,"x_max":0,"o":"m 674 1044 z m 1141 1339 l 1270 1339 l 1270 1976 l 1187 1976 l 1187 1343 l 792 1343 l 792 831 l 1187 831 z m 905 1245 l 1073 1245 l 1073 929 l 905 929 z "},"겳":{"ha":-467,"x_min":0,"x_max":0,"o":"m 1058 1100 l 511 1100 l 511 994 l 918 994 b 446 616 897 817 738 680 l 492 510 b 1019 886 760 574 943 698 l 1313 886 l 1313 754 l 1005 754 l 1005 654 l 1313 654 l 1313 533 l 1442 533 z m 1628 838 l 1561 838 l 1561 724 l 1039 724 l 1039 1119 l 1561 1119 l 1561 1004 l 1407 1004 l 1407 838 z m 1407 572 l 1407 741 l 1572 741 l 1572 572 z "},"겴":{"ha":0,"x_min":0,"x_max":0,"o":"m 1058 1100 l 922 1100 l 922 1229 "},"겵":{"ha":0,"x_min":0,"x_max":0,"o":"m 1058 1100 l 937 1100 l 937 1229 "},"겶":{"ha":0,"x_min":0,"x_max":0,"o":"l -168 0 l -168 -264 l -715 -264 l -715 -370 l -309 -370 b -780 -757 -330 -551 -486 -689 l -734 -861 b -206 -479 -463 -795 -281 -669 l 87 -479 l 87 -610 l -221 -610 l -221 -711 l 87 -711 l 87 -846 l 216 -846 "}}}
